<?xml version="1.0" encoding="UTF-8"?>
<!DOCTYPE svg PUBLIC "-//W3C//DTD SVG 1.1//EN" "http://www.w3.org/Graphics/SVG/1.1/DTD/svg11.dtd">
<!-- Creator: CorelDRAW 2021 (64 Bit) -->
<svg xmlns="http://www.w3.org/2000/svg" xml:space="preserve" width="85mm" height="40mm" version="1.1" style="shape-rendering:geometricPrecision; text-rendering:geometricPrecision; image-rendering:optimizeQuality; fill-rule:evenodd; clip-rule:evenodd"
viewBox="0 0 8500 4000"
 xmlns:xlink="http://www.w3.org/1999/xlink"
 xmlns:xodm="http://www.corel.com/coreldraw/odm/2003">
 <defs>
  <style type="text/css">
   <![CDATA[
    .fil2 {fill:none;fill-rule:nonzero}
    .fil1 {fill:#FEFEFE;fill-rule:nonzero}
    .fil4 {fill:#FEFEFE;fill-rule:nonzero}
    .fil5 {fill:#008996;fill-rule:nonzero}
    .fil0 {fill:#DD111B;fill-rule:nonzero}
    .fil3 {fill:white;fill-rule:nonzero}
   ]]>
  </style>
   <clipPath id="id0" style="clip-rule:nonzero">
    <path d="M25.93 2506l8451.09 0 0 -2490.14 -8451.09 0 0 2490.14z"/>
   </clipPath>
 </defs>
 <g id="Camada_x0020_1">
  <metadata id="CorelCorpID_0Corel-Layer"/>
  <polygon class="fil0" points="25.93,2506 8477.02,2506 8477.02,15.86 25.93,15.86 "/>
  <g style="clip-path:url(#id0)">
   <g id="_2715342515888">
    <path id="_1" class="fil1" d="M25.92 852.97l0 339.08 699.35 0 -466.23 1313.95 381.46 0 423.86 -1165.6 296.7 0 -423.86 1165.6 381.47 0 339.08 -890.09 296.7 0 -317.89 890.09 593.4 0 211.93 -233.12 42.38 0 0 105.97c0,0 42.39,105.96 148.34,127.15l275.52 0 21.18 0 211.94 -233.12c0,0 84.76,233.12 169.54,233.12l317.88 0 211.92 -211.92 -63.56 211.92 381.46 0 254.32 -678.16 211.92 678.16 360.27 0 233.13 -233.12c0,0 84.78,233.12 169.54,233.12l339.08 0 233.12 -233.12c0,0 63.58,211.93 169.54,233.12l445.06 0 233.11 -233.12c0,0 84.77,233.12 169.54,233.12l296.7 0 233.12 -233.12c0,0 63.58,233.12 169.54,233.12l805.32 0 0 -339.08 -572.2 0 339.08 -890.09 -911.3 0c0,0 -190.72,63.57 -233.1,190.73l-254.32 699.36 -487.41 0 233.1 -614.59 254.31 0 105.96 -275.5 -254.29 0 148.33 -423.86 -402.65 0 -127.16 423.86 -296.7 0 -84.76 296.69 254.3 0 -211.92 593.4 -339.08 0 317.88 -890.09 -381.47 0 -317.89 890.09 -360.28 0 -84.76 -339.08 572.2 -551.01 -529.82 0 -381.46 402.66 296.68 -826.52 -402.64 0 -466.26 1313.95 -339.08 0 317.9 -890.09 -911.28 0c0,0 -211.94,105.96 -254.32,254.31l-233.12 635.78 -339.08 0 317.88 -890.09 -699.35 0 105.96 -254.32 -699.36 0 63.58 -169.54 -1207.98 0zm3030.55 762.94l317.88 0 -190.72 551.01 -317.9 0 190.74 -551.01zm4365.69 0l317.9 0 -211.93 551.01 -296.69 0 190.72 -551.01z"/>
   </g>
  </g>
  <polygon class="fil2" points="25.93,2506 8477.02,2506 8477.02,15.86 25.93,15.86 "/>
  <polygon class="fil3" points="5726.76,852.98 5620.78,1192.06 6002.25,1192.06 6108.23,852.98 "/>
  <polygon class="fil4" points="2524.53,3955.9 117.84,3952.71 117.84,2991.23 2802.86,2991.23 "/>
  <path class="fil4" d="M4015.98 3528.95c-5.9,21.8 -14.08,78.13 -49.06,78.13 -43.61,0 -35.89,-45.88 -29.98,-74.04l19.99 -94.49c5.45,-26.35 14.08,-85.86 64.05,-85.86 31.34,0 20.44,40.88 18.62,62.69l62.7 0c2.27,-8.63 3.18,-17.27 4.08,-25.9 7.73,-58.14 -17.71,-87.22 -74.5,-88.13 -101.76,0 -122.2,64.51 -143.55,151.28l-9.99 48.61c-19.54,90.85 -26.81,157.18 77.68,157.18 70.86,0 101.76,-47.7 118.56,-109.94 1.82,-6.36 3.64,-13.17 5.46,-19.53l-64.06 0zm117.66 -27.71c-19.53,90.85 -26.8,157.18 77.68,157.18 104.49,0 125.38,-66.33 144.92,-157.18l9.99 -48.61c15.9,-86.77 22.72,-151.28 -79.04,-151.28 -101.76,0 -122.2,64.51 -143.56,151.28l-9.99 48.61zm78.59 -62.69c5.45,-26.35 14.08,-85.86 64.05,-85.86 47.25,0 33.17,60.42 27.26,87.67l-18.62 87.22c-6.82,32.71 -17.27,79.5 -62.69,79.5 -43.62,0 -35.89,-45.88 -29.99,-74.04l19.99 -94.49zm256.22 104.48c14.54,-67.69 27.71,-135.38 37.71,-203.06l2.27 0 0.91 310.27 38.61 0 134.01 -310.27 0.91 0c-18.17,67.68 -34.07,135.37 -48.61,203.06l-22.71 107.21 63.6 0 72.23 -340.71 -100.85 0 -67.69 158.09c-9.09,22.26 -16.35,44.97 -26.35,78.59l-0.91 0c2.73,-26.35 4.55,-52.7 4.55,-78.59l-0.46 -158.09 -101.3 0 -72.23 340.71 63.6 0 22.71 -107.21zm342.53 107.21l12.72 -59.96 -59.97 0 -12.72 59.96 59.97 0zm275.75 -107.21c14.54,-67.69 27.71,-135.38 37.71,-203.06l2.27 0 0.91 310.27 38.61 0 134 -310.27 0.91 0c-18.16,67.68 -34.06,135.37 -48.6,203.06l-22.71 107.21 63.59 0 72.23 -340.71 -100.84 0 -67.69 158.09c-9.09,22.26 -16.35,44.97 -26.35,78.59l-0.91 0c2.73,-26.35 4.55,-52.7 4.55,-78.59l-0.46 -158.09 -101.3 0 -72.23 340.71 63.6 0 22.71 -107.21zm308.98 107.21l34.98 -86.31 74.5 0 -1.37 86.31 68.22 0 -4.99 -340.71 -85.94 0 -153.55 340.71 68.15 0zm95.4 -233.05c6.35,-15.9 11.35,-31.34 16.35,-47.24 2.27,-7.72 4.54,-15.45 7.27,-22.71l0.91 0c-0.91,7.26 -1.37,14.99 -2.73,22.71 -1.36,15.9 -3.63,31.34 -3.63,47.24l-3.18 96.77 -54.52 0 39.53 -96.77zm179.36 233.05l20.9 -97.67 29.98 -36.8 31.34 134.47 71.78 0 -46.79 -194.43 114.93 -146.28 -71.77 0 -51.79 69.5c-19.08,24.99 -41.79,54.97 -57.24,81.78l-0.91 0 31.8 -151.28 -63.6 0 -72.23 340.71 63.6 0zm263.94 0l12.72 -59.96 -59.97 0 -12.72 59.96 59.97 0zm218.51 -149c-19.53,90.85 -26.8,157.18 77.68,157.18 104.49,0 125.38,-66.33 144.92,-157.18l9.99 -48.61c15.9,-86.77 22.72,-151.28 -79.04,-151.28 -101.76,0 -122.2,64.51 -143.56,151.28l-9.99 48.61zm78.59 -62.69c5.45,-26.35 14.08,-85.86 64.05,-85.86 47.25,0 33.17,60.42 27.26,87.67l-18.62 87.22c-6.82,32.71 -17.27,79.5 -62.69,79.5 -43.62,0 -35.89,-45.88 -29.99,-74.04l19.99 -94.49zm380.69 -62.24c-6.36,30.44 -11.81,63.14 -17.26,95.85 -5,32.71 -9.54,65.87 -14.08,96.76l-0.91 0c-3.64,-55.42 -8.63,-95.85 -16.81,-135.37l-23.17 -124.02 -65.87 0 -72.23 340.71 63.6 0 13.63 -64.05c5.9,-27.26 11.81,-61.33 17.26,-95.4 5.45,-34.53 10,-69.05 13.63,-97.22l0.91 0c3.63,53.61 8.63,94.95 16.81,135.38l23.62 121.29 66.32 0 72.23 -340.71 -63.59 0 -14.09 66.78zm248.95 273.93l10.45 -49.97 -118.11 0 61.78 -290.74 -63.6 0 -72.23 340.71 181.71 0zm109.48 0l72.24 -340.71 -63.6 0 -72.23 340.71 63.59 0zm272.56 -273.93c-6.36,30.44 -11.81,63.14 -17.26,95.85 -5,32.71 -9.54,65.87 -14.08,96.76l-0.91 0c-3.64,-55.42 -8.63,-95.85 -16.81,-135.37l-23.17 -124.02 -65.87 0 -72.22 340.71 63.59 0 13.63 -64.05c5.9,-27.26 11.81,-61.33 17.26,-95.4 5.45,-34.53 10,-69.05 13.63,-97.22l0.91 0c3.63,53.61 8.63,94.95 16.81,135.38l23.62 121.29 66.32 0 72.23 -340.71 -63.59 0 -14.09 66.78zm244.41 273.93l10.45 -49.97 -115.39 0 22.26 -104.94 106.3 0 10.91 -49.97 -106.31 0 18.18 -85.86 115.38 0 10.45 -49.97 -178.99 0 -72.23 340.71 178.99 0zm405.22 -237.13c6.81,-33.62 25.89,-111.76 -75.41,-111.76 -67.24,0 -106.76,31.8 -119.02,89.95 -3.64,18.17 -1.82,36.8 5.45,52.24 18.62,34.07 55.87,52.7 83.59,78.59 14.08,11.36 19.98,24.99 15.89,44.98 -5.45,25.89 -21.35,39.97 -48.15,39.97 -31.34,0 -36.34,-24.07 -27.71,-57.24l4.09 -19.98 -63.6 0 -5 24.98c-13.17,60.87 5,103.58 81.32,103.58 62.23,0 112.21,-33.62 125.83,-98.13 6.36,-29.53 3.64,-49.97 -13.62,-71.32 -13.63,-17.26 -47.25,-42.7 -64.97,-55.88 -17.26,-12.72 -31.8,-22.71 -26.34,-48.6 4.99,-23.17 20.44,-31.8 41.79,-31.8 34.98,0 31.34,29.98 24.53,60.42l61.33 0zm136.28 -53.61l29.08 0c35.88,0 49.97,5.91 41.79,44.97 -8.63,41.34 -29.98,53.16 -57.69,53.16l-34.07 0 20.89 -98.13zm-61.78 290.74l30.44 -142.64 42.7 0c24.53,0.45 52.24,-4.55 75.41,-20.45 28.17,-19.08 43.16,-51.78 49.06,-80.86 10,-47.7 1.82,-96.76 -59.05,-96.76l-129.93 0 -72.23 340.71 63.6 0zm213.59 0l34.98 -86.31 74.5 0 -1.37 86.31 68.22 0 -4.99 -340.71 -85.94 0 -153.55 340.71 68.15 0zm95.4 -233.05c6.35,-15.9 11.35,-31.34 16.35,-47.24 2.27,-7.72 4.54,-15.45 7.27,-22.71l0.91 0c-0.91,7.26 -1.37,14.99 -2.73,22.71 -1.36,15.9 -3.63,31.34 -3.63,47.24l-3.18 96.77 -54.52 0 39.53 -96.77z"/>
  <g id="_2715342510944">
   <path class="fil4" d="M3067.59 3783.12l6.68 -7.52 -13.36 8.36 -16.71 5.84c-1.67,0 -3.62,0.28 -5.84,0.84 -4.46,1.11 -7.8,1.67 -10.03,1.67 -1.67,0.56 -3.06,1.25 -4.17,2.09 -1.12,0.83 -5.29,1.25 -12.53,1.25l2.5 -4.18 -45.94 17.55c-1.67,0.55 -4.31,1.11 -7.93,1.67 -3.62,0.55 -7.1,0.83 -10.44,0.83 5.57,-2.78 9.88,-4.73 12.94,-5.85 3.07,-1.11 6.27,-2.22 9.61,-3.34 3.34,-2.78 6.68,-4.73 10.02,-5.84 3.34,-1.12 5.57,-2.23 6.69,-3.34 -0.56,0 -1.12,0.27 -1.68,0.83 -0.55,0.56 -1.39,0.84 -2.5,0.84 -2.79,0 -6.96,0.55 -12.53,1.67 -0.56,0.55 -1.11,0.83 -1.67,0.83 -8.35,4.46 -17.12,8.08 -26.31,10.86 -9.19,2.78 -17.96,5.85 -26.31,9.19 -1.12,1.11 -2.51,2.23 -4.18,3.34 -1.67,1.11 -3.9,1.67 -6.68,1.67l-16.71 4.18c-2.78,1.11 -5.57,2.08 -8.35,2.92 -2.78,0.84 -7.24,1.81 -13.37,2.92 0,-3.89 0.56,-6.12 1.68,-6.68 -1.12,0 -1.68,0.14 -1.68,0.42 0,0.28 -0.27,0.42 -0.83,0.42 -5.01,2.22 -9.61,4.17 -13.78,5.84 -4.18,1.67 -9.33,1.67 -15.46,0 -3.34,-1.11 -5.01,-2.78 -5.01,-5.01 -1.11,0 -1.81,-0.14 -2.08,-0.42 -0.28,-0.27 -0.98,-0.41 -2.09,-0.41l-12.53 -2.51c-0.56,0.56 -1.26,0.56 -2.09,0 -0.84,-0.56 -1.53,-1.11 -2.09,-1.67l0 -2.51 -3.34 0c0,-1.11 -0.28,-2.92 -0.84,-5.43 -0.55,-2.5 -1.11,-4.59 -1.67,-6.26 -2.22,-7.8 -3.75,-15.87 -4.59,-24.22 -0.84,-8.36 1.53,-16.15 7.1,-23.39 0.56,-0.56 1.25,-1.25 2.09,-2.09 0.83,-0.83 1.81,-2.64 2.92,-5.43 4.46,-1.67 7.52,-3.2 9.19,-4.59 1.67,-1.39 3.9,-3.2 6.68,-5.43l15.04 -5.85c-2.79,-1.11 -5.43,-2.5 -7.94,-4.18 -2.5,-1.67 -4.87,-4.45 -7.1,-8.35 1.12,-11.13 2.65,-20.74 4.6,-28.81 1.95,-8.08 4.03,-16.57 6.26,-25.48l0.84 0 1.67 -1.67c10.58,-34.53 21.85,-64.18 33.83,-88.96 11.97,-24.78 24.08,-50.25 36.33,-76.43 10.58,-19.49 20.46,-38.84 29.65,-58.05 9.19,-19.21 18.52,-40.79 27.98,-64.73 5.57,-11.7 10.58,-22.56 15.04,-32.58 4.45,-10.02 9.19,-21.16 14.2,-33.41 -1.67,-0.56 -3.34,-0.84 -5.01,-0.84 -4.46,0 -7.52,-0.55 -9.19,-1.67 -3.9,-0.55 -6.68,-1.11 -8.35,-1.67 -1.67,-0.55 -3.62,-1.39 -5.85,-2.5 -1.11,-1.12 -2.78,-2.09 -5.01,-2.93 -2.23,-0.83 -3.9,-1.53 -5.01,-2.08 -1.67,-1.67 -3.34,-3.62 -5.02,-5.85 -1.11,-1.67 -2.5,-3.06 -4.17,-4.18 -1.67,-1.11 -3.06,-2.22 -4.18,-3.34 -4.45,-6.12 -8.77,-11.55 -12.95,-16.29 -4.17,-4.73 -7.09,-10.16 -8.77,-16.28 0,-0.56 -1.11,-2.51 -3.34,-5.85l-2.5 -7.52 0.83 0c-1.67,-0.56 -2.5,-2.78 -2.5,-6.68 7.79,-16.15 19.77,-26.73 35.91,-31.74 4.46,0.55 8.5,0 12.12,-1.67 3.62,-1.67 7.37,-3.62 11.27,-5.85l15.04 -5.85c5.01,-0.55 10.3,-1.53 15.87,-2.92 5.57,-1.39 10.58,-4.04 15.03,-7.94l15.87 -4.17 -0.83 0c3.9,-1.12 9.88,-2.65 17.96,-4.6 8.07,-1.94 15.59,-3.89 22.55,-5.84 6.96,-1.95 12.25,-3.62 15.87,-5.01 3.62,-1.4 3.2,-2.09 -1.25,-2.09l3.34 -1.67c20.6,-5.57 42.74,-10.58 66.4,-15.04 23.67,-4.45 47.47,-7.79 71.42,-10.02 9.46,-1.12 19.63,-2.09 30.49,-2.92 10.85,-0.84 20.74,-1.26 29.65,-1.26 11.14,0 22.83,0.56 35.08,1.67 12.25,1.12 24.22,3.07 35.92,5.85 7.24,1.11 14.89,3.2 22.97,6.26 8.07,3.07 15.17,7.24 21.3,12.53 6.12,5.29 11.27,11.28 15.45,17.96 4.18,6.68 6.26,13.65 6.26,20.88 0,2.79 -0.13,6.13 -0.41,10.03 -0.28,3.9 -0.98,6.68 -2.09,8.35l1.67 0c-0.56,5.01 -0.84,8.35 -0.84,10.02 0,1.67 0,3.07 0,4.18 0,4.45 -0.55,8.35 -1.67,11.69 0.56,8.91 -0.41,17.96 -2.92,27.15 -2.51,9.19 -6.26,16.85 -11.28,22.97 -1.11,1.67 -2.64,3.2 -4.59,4.59 -1.95,1.4 -3.48,2.37 -4.59,2.93l-3.35 2.5 0.84 0c-1.11,1.12 -2.51,2.79 -4.18,5.02 -1.67,2.22 -3.89,3.34 -6.68,3.34 -2.78,2.78 -8.07,5.84 -15.87,9.18l-0.83 0 0 1.68 -6.69 5.01c-4.45,3.34 -8.07,6.54 -10.86,9.6 -2.78,3.07 -6.4,7.66 -10.85,13.79l-4.18 0.83c-8.35,5.57 -16.29,10.72 -23.81,15.45 -7.51,4.74 -15.45,8.77 -23.8,12.11 -1.12,1.12 -2.51,2.51 -4.18,4.18 -1.67,1.67 -3.06,3.62 -4.17,5.85 -2.79,2.23 -5.16,4.17 -7.1,5.84 -1.95,1.68 -4.88,2.51 -8.77,2.51 -3.35,0 -6.55,0.98 -9.61,2.92 -3.06,1.95 -5.15,3.76 -6.27,5.43 -5.56,1.12 -10.44,2.65 -14.61,4.6 -4.18,1.95 -7.66,3.76 -10.44,5.43l4.17 0c-2.78,4.45 -5.57,6.96 -8.35,7.51 -2.78,0.56 -4.73,1.12 -5.85,1.67l0 1.68c23.39,9.46 44.55,19.76 63.48,30.9 18.94,11.14 35.64,26.45 50.12,45.94 0.56,2.79 1.25,4.87 2.09,6.27 0.83,1.39 1.81,2.64 2.92,3.75 3.9,6.13 6.82,11.7 8.77,16.71 1.95,5.01 3.48,11.14 4.6,18.38 0.55,2.22 0.97,5.29 1.25,9.18 0.28,3.9 0.42,6.41 0.42,7.52 0.55,2.23 1.39,5.57 2.5,10.03 1.12,4.45 2.23,8.07 3.34,10.85 -1.11,4.46 -1.8,7.94 -2.08,10.45 -0.28,2.5 -0.14,5.42 0.41,8.77 0,3.34 -0.13,6.4 -0.41,9.18 -0.28,2.79 -1.53,5.85 -3.76,9.19 0,0.56 0,1.67 0,3.34 0,1.67 -0.28,3.62 -0.84,5.85 0.56,1.11 0.56,2.64 0,4.59 -0.55,1.95 -0.83,3.48 -0.83,4.6 -1.12,3.34 -2.65,6.26 -4.6,8.77 -1.95,2.5 -4.87,5.15 -8.77,7.93l-12.53 19.21c-17.82,16.15 -36.61,30.35 -56.38,42.6 -19.77,12.25 -42.18,23.11 -67.24,32.58l-5.01 0c-2.78,2.23 -5.29,3.9 -7.52,5.01 -2.22,1.12 -3.89,2.23 -5.01,3.34 -1.11,0.56 -2.5,0.84 -4.18,0.84 -1.67,0 -4.17,1.11 -7.51,3.34 -1.12,-1.11 -3.76,-0.42 -7.94,2.09 -4.17,2.5 -6.82,4.59 -7.93,6.26l-18.38 3.34 -6.68 0.84 4.18 1.67 -9.19 3.34 -10.86 9.19 -0.84 0c-2.78,1.11 -4.87,1.67 -6.26,1.67 -1.39,0 -3.2,0 -5.43,0l-3.34 0c-4.46,2.78 -8.63,4.18 -12.53,4.18l-1.67 0c-0.56,0 -0.84,0.83 -0.84,2.5 -1.11,0.56 -2.78,0.84 -5.01,0.84 -2.23,0 -4.73,0 -7.52,0 -1.11,0 -2.22,0.14 -3.34,0.41 -1.11,0.28 -2.22,1.81 -3.34,4.6 -0.56,-2.79 -0.83,-4.46 -0.83,-5.01 -7.8,2.78 -15.32,5.43 -22.56,7.93 -7.24,2.51 -14.75,5.15 -22.55,7.94l-3.34 -2.51c4.45,-1.67 8.91,-3.34 13.36,-5.01 4.46,-1.67 8.91,-4.18 13.37,-7.52 3.9,-2.23 7.93,-4.04 12.11,-5.43 4.18,-1.39 7.94,-2.64 11.28,-3.76l0 -1.67 -0.84 0 0 -3.34zm167.89 -185.43l5.85 -2.51 6.68 -2.5 5.85 -3.34 0 0.83 5.01 -5.84c2.78,-1.12 4.73,-2.37 5.85,-3.76 1.11,-1.4 2.78,-4.32 5.01,-8.77 1.11,-2.79 2.78,-5.43 5.01,-7.94 2.23,-2.51 3.06,-4.04 2.51,-4.59l0 -5.01c0,-1.12 -0.14,-1.95 -0.42,-2.51 -0.28,-0.56 -1.81,-2.51 -4.59,-5.85 -1.12,-2.78 -3.07,-4.73 -5.85,-5.84 -2.79,-1.12 -5.57,-2.23 -8.35,-3.35l-6.69 -7.51 0 0.83c-2.22,-1.11 -3.89,-2.23 -5.01,-3.34 -1.11,-1.11 -3.06,-1.67 -5.85,-1.67 -3.34,-1.67 -8.07,-3.34 -14.2,-5.01 -6.12,-1.67 -12.52,-3.9 -19.21,-6.68 -2.22,-1.12 -4.45,-1.95 -6.68,-2.51 -2.23,-0.56 -4.45,-1.11 -6.68,-1.67l-5.01 0 -1.67 1.67 -7.52 -4.18c-1.11,0 -2.37,-0.14 -3.76,-0.41 -1.39,-0.28 -2.37,-0.42 -2.92,-0.42 -3.34,0 -5.85,-0.28 -7.52,-0.84l0.83 0c-4.45,-1.11 -8.63,-1.67 -12.52,-1.67l-45.11 -7.51c-10.58,-1.68 -21.58,-3.07 -32.99,-4.18 -11.42,-1.11 -22.7,-2.23 -33.83,-3.34 -2.79,6.68 -5.71,12.94 -8.77,18.79 -3.07,5.85 -6.82,12.67 -11.28,20.47 -1.11,6.12 -3.76,13.78 -7.93,22.97 -4.18,9.18 -7.66,16.28 -10.44,21.3 -7.24,12.25 -13.37,19.21 -18.38,20.88 -2.79,1.11 -5.43,2.78 -7.94,5.01 -2.5,2.23 -5.15,5.57 -7.93,10.02 -2.79,0 -4.73,0.56 -5.85,1.67 0,1.12 -0.28,2.23 -0.83,3.34 -1.67,2.79 -2.79,4.46 -3.34,5.02l-0.84 4.17c-1.11,0 -1.67,0.7 -1.67,2.09 0,1.39 0,2.65 0,3.76 -1.11,0 -1.53,0.56 -1.25,1.67 0.27,1.11 -0.14,2.51 -1.26,4.18 -0.55,1.11 -1.67,2.5 -3.34,4.17 -1.67,1.67 -3.34,2.51 -5.01,2.51l-0.83 -3.34c-1.12,1.67 -1.4,1.67 -0.84,0 0.56,-1.67 1.11,-3.34 1.67,-5.01l-3.34 6.68c-2.23,3.34 -3.06,5.43 -2.51,6.26 0.56,0.84 1.4,1.81 2.51,2.93 -2.23,1.67 -4.04,2.92 -5.43,3.76 -1.39,0.83 -2.37,1.8 -2.92,2.92l-5.01 9.19 -1.68 -2.51c-1.11,0.56 -1.81,1.11 -2.08,1.67 -0.28,0.56 -0.7,1.12 -1.26,1.67 0,1.12 0.42,2.65 1.26,4.6 0.83,1.95 0.41,1.81 -1.26,-0.42l-4.17 10.02 -4.18 11.7 -3.34 7.51c-0.56,1.67 -1.39,3.07 -2.51,4.18 -1.11,1.11 -4.45,2.78 -10.02,5.01 2.78,-7.24 5.01,-12.67 6.68,-16.29 1.67,-3.62 3.07,-7.37 4.18,-11.27 -2.79,1.11 -4.6,2.78 -5.43,5.01 -0.84,2.23 -1.25,4.45 -1.25,6.68l-8.36 14.2 -0.83 0c-1.12,1.67 -2.09,3.2 -2.92,4.59 -0.84,1.4 -1.81,2.65 -2.93,3.76l-6.68 7.52 -1.67 0c1.11,1.11 0.83,1.67 -0.84,1.67l-4.17 2.51c-1.12,1.11 -1.81,1.67 -2.09,1.67 -0.28,0 -0.14,0.83 0.42,2.5 23.38,-9.46 46.91,-17.82 70.58,-25.05 23.66,-7.24 47.19,-14.48 70.58,-21.72 36.19,-11.14 71.83,-22.69 106.91,-34.67 35.09,-11.97 69.05,-26.31 101.91,-43.01l11.69 -7.52zm-94.38 -243.07c25.05,-13.92 49.97,-27.7 74.75,-41.34 24.78,-13.65 48.87,-27.15 72.26,-40.51 1.67,-2.23 4.59,-4.88 8.77,-7.94 4.17,-3.06 7.1,-5.15 8.77,-6.26 7.79,-6.69 15.17,-12.67 22.13,-17.96 6.96,-5.29 12.67,-10.44 17.12,-15.46 -4.45,-0.55 -9.32,-1.11 -14.61,-1.67 -5.29,-0.55 -10.44,-0.83 -15.46,-0.83 -14.47,0 -28.53,0.97 -42.18,2.92 -13.64,1.95 -27.14,4.32 -40.51,7.1l0.84 1.67 -3.34 0c0,-2.22 -0.56,-3.06 -1.67,-2.5 -1.12,0.55 -1.95,0.83 -2.51,0.83 -1.11,0 -2.09,0.42 -2.92,1.26 -0.84,0.83 -1.81,1.25 -2.93,1.25 -1.11,0 -1.95,0.28 -2.5,0.83 -0.56,0.56 -1.4,0.84 -2.51,0.84l-0.83 0c-0.56,0 -1.12,0.14 -1.67,0.42 -0.56,0.27 -1.12,0.41 -1.68,0.41l-38.42 8.36c-1.11,0.55 -3.2,1.81 -6.26,3.76 -3.07,1.94 -5.15,2.92 -6.27,2.92 -2.23,1.11 -5.29,2.37 -9.19,3.76 -3.89,1.39 -6.68,2.64 -8.35,3.76l0 -0.84 -6.68 5.01c0,1.12 0,2.23 0,3.34 0,1.12 0.28,1.95 0.83,2.51 1.68,1.11 2.65,1.95 2.93,2.51 0.28,0.55 0.69,1.39 1.25,2.5 -1.67,5.57 -3.2,10.16 -4.59,13.78 -1.4,3.62 -2.65,6.83 -3.76,9.61l-3.34 10.02c-16.71,21.72 -31.19,47.06 -43.44,76.01 6.13,-2.78 11.7,-5.57 16.71,-8.35 5.01,-2.78 10.58,-5.57 16.7,-8.35l22.56 -13.37zm84.36 45.94c-3.34,1.67 -7.52,3.9 -12.53,6.69 -5.01,2.78 -10.02,5.29 -15.03,7.51 2.78,0 5.01,-0.55 6.68,-1.67l-0.84 0c1.12,0 2.79,-0.55 5.01,-1.67l3.35 -1.67c1.67,0 3.34,-0.83 5.01,-2.5l-1.67 0c7.79,-5.02 16.98,-10.86 27.56,-17.55 10.58,-6.68 19.77,-12.8 27.56,-18.37 2.23,-1.11 4.74,-2.23 7.52,-3.34 2.79,-1.12 5.29,-2.51 7.52,-4.18 0,0 -1.11,-0.56 -3.34,-1.67l-0.84 0c0,1.11 -1.11,1.81 -3.34,2.09 -2.23,0.28 -4.17,0.69 -5.84,1.25l-10.86 6.68c-3.9,4.46 -7.52,7.24 -10.86,8.36 -2.79,1.67 -5.43,3.06 -7.94,4.17 -2.5,1.12 -4.87,2.23 -7.1,3.34l-8.35 5.85c1.11,-0.56 2.65,-0.83 4.59,-0.83 1.95,0 3.48,0 4.6,0l-10.86 7.51zm-189.61 384.23c-2.78,1.12 -5.01,1.95 -6.68,2.51 -1.67,0.56 -3.9,1.11 -6.68,1.67l2.5 0c0.56,0 0.98,-0.14 1.26,-0.42 0.27,-0.28 0.69,-0.42 1.25,-0.42l10.86 -2.5 10.86 -6.68 16.7 -5.02 6.68 -2.5 10.03 -1.67c2.78,-0.56 5.84,-1.39 9.18,-2.51 3.35,-1.11 4.46,-1.67 3.35,-1.67 1.11,-1.11 1.94,-1.67 2.5,-1.67 5.57,-2.23 10.58,-3.9 15.04,-5.01 4.45,-1.12 8.35,-3.06 11.69,-5.85l5.01 -0.83c1.67,-1.12 2.93,-2.09 3.76,-2.93 0.84,-0.83 2.65,-1.25 5.43,-1.25 1.11,-0.56 1.67,-0.14 1.67,1.25 0,1.4 0.28,0.7 0.84,-2.09 -3.9,0.56 -7.8,1.4 -11.7,2.51 -3.9,1.11 -8.07,2.51 -12.53,4.18l0.84 1.67c-14.48,5.01 -28.82,9.74 -43.02,14.2 -14.2,4.45 -27.15,9.46 -38.84,15.03zm50.95 -7.52l-2.5 1.68c1.11,0 2.5,1.39 4.17,4.17 1.12,-2.23 2.23,-4.04 3.34,-5.43 1.12,-1.39 1.95,-2.64 2.51,-3.76l-7.52 3.34zm126.13 -387.57c-1.11,0 -1.81,0.42 -2.09,1.26 -0.28,0.83 -0.69,1.25 -1.25,1.25l0.83 0 0.84 0c1.11,0 1.67,-0.83 1.67,-2.51zm-300.7 284l0.83 -2.51 0 -2.5c0,0.56 -0.13,1.25 -0.41,2.09 -0.28,0.83 -0.42,1.81 -0.42,2.92zm172.07 99.4c-0.56,0 -3.07,0.56 -7.52,1.67 0.56,-0.56 1.39,-0.84 2.51,-0.84 2.22,0 3.89,-0.27 5.01,-0.83zm106.08 -371.7c-1.12,0 -1.67,0.28 -1.67,0.83 0.55,-0.55 1.11,-0.83 1.67,-0.83zm-96.89 369.19l-1.68 0 1.68 0zm101.06 -360l-1.67 0 1.67 0zm9.19 -15.04l0.84 -0.83c0,0.55 -0.56,0.83 -1.67,0.83l0.83 0zm-248.08 214.67l0.84 0.83c0,-0.55 -0.28,-0.83 -0.84,-0.83z"/>
   <path class="fil4" d="M3451.82 3264.41c2.79,1.67 4.18,3.9 4.18,6.69 1.67,0 2.51,0 2.51,0 -0.56,2.22 -0.56,3.34 0,3.34 0.55,0 1.39,0.55 2.5,1.67 0,0.55 0.14,0.97 0.42,1.25 0.28,0.28 0.14,0.97 -0.42,2.09 14.48,15.03 26.73,30.21 36.75,45.52 10.03,15.31 20.61,31.32 31.74,48.03 1.12,7.24 3.9,13.36 8.36,18.38 4.45,5.01 7.24,10.58 8.35,16.7 0,2.23 0,4.18 0,5.85 0,1.67 0.84,3.06 2.51,4.17 0,2.23 0.41,3.9 1.25,5.02 0.83,1.11 1.81,2.22 2.92,3.34 0.56,-1.12 0.28,-2.23 -0.83,-3.34 -1.12,-1.12 -1.4,-2.51 -0.84,-4.18 1.12,1.11 1.67,2.09 1.67,2.92 0,0.84 0.28,1.81 0.84,2.93 7.24,-8.91 13.78,-18.1 19.63,-27.57 5.84,-9.46 12.66,-18.65 20.46,-27.56 5.01,-9.47 10.86,-18.38 17.54,-26.73 6.68,-8.35 12.81,-16.98 18.38,-25.89 2.78,-2.79 5.01,-5.71 6.68,-8.77 1.67,-3.07 3.62,-5.99 5.85,-8.78 0.55,-1.67 1.67,-2.5 3.34,-2.5 2.78,-5.01 6.12,-10.02 10.02,-15.04 3.9,-5.01 8.08,-10.02 12.53,-15.03 2.79,-4.46 5.57,-9.47 8.35,-15.04 2.79,-5.56 5.57,-10.58 8.36,-15.03 0,-3.34 0.83,-5.71 2.5,-7.1 1.67,-1.39 2.51,-3.76 2.51,-7.1 1.67,-1.11 3.48,-2.37 5.43,-3.76 1.95,-1.39 4.03,-2.92 6.26,-4.59 3.9,-2.79 7.8,-5.02 11.7,-6.69 3.89,-0.55 6.82,0 8.77,1.67 1.95,1.67 4.31,3.9 7.1,6.69 1.11,2.22 2.5,3.76 4.17,4.59 1.67,0.84 3.07,1.81 4.18,2.92 2.78,3.9 5.71,9.33 8.77,16.29 3.06,6.96 5.71,12.95 7.93,17.96 0,1.67 0.56,4.18 1.68,7.52 0,1.11 0.83,2.78 2.5,5.01 1.11,5.57 2.23,10.3 3.34,14.2 1.12,3.9 1.39,8.07 0.84,12.53 -1.67,6.12 -4.18,11.14 -7.52,15.03 -3.34,3.9 -6.68,7.52 -10.02,10.86 -2.23,3.34 -4.74,6.55 -7.52,9.61 -2.79,3.06 -5.57,6.26 -8.35,9.6 -1.12,1.12 -2.09,2.37 -2.93,3.76 -0.83,1.39 -2.09,2.65 -3.76,3.76 -2.78,4.46 -6.12,8.63 -10.02,12.53 -3.9,3.9 -7.52,8.91 -10.86,15.04 -3.9,2.22 -6.68,5.29 -8.35,9.18 -1.67,3.9 -4.46,7.24 -8.35,10.03 0.55,1.11 0.41,1.67 -0.42,1.67 -0.84,0 -1.25,0.55 -1.25,1.67 -13.37,19.49 -26.32,39.12 -38.84,58.89 -12.53,19.76 -26.04,38.56 -40.52,56.38 0,1.11 -0.27,1.81 -0.83,2.09 -0.56,0.27 -0.56,0.97 0,2.08 -6.13,7.8 -9.75,12.39 -10.86,13.79 -1.11,1.39 -1.81,2.22 -2.09,2.5 -0.28,0.28 -1.11,1.11 -2.5,2.51 -1.4,1.39 -4.88,5.98 -10.44,13.78 -1.68,3.9 -3.76,7.52 -6.27,10.86 -2.51,3.34 -5.15,6.4 -7.93,9.19 -1.12,0 -1.68,0.27 -1.68,0.83 0,0.56 -0.55,0.84 -1.67,0.84 -1.11,1.11 -1.67,1.67 -1.67,1.67 -4.45,0.55 -6.96,2.78 -7.51,6.68 0,3.34 -1.12,5.85 -3.34,7.52 -2.23,1.67 -3.9,3.89 -5.02,6.68 0,1.11 0.28,2.23 0.84,3.34l-5.85 5.01c-2.78,8.35 -6.54,15.73 -11.27,22.14 -4.74,6.4 -9.05,13.22 -12.95,20.46 0,1.67 0.28,2.51 0.83,2.51 -1.11,0.55 -1.67,1.53 -1.67,2.92 0,1.39 -0.27,2.92 -0.83,4.59 -1.12,-0.55 -1.53,-0.55 -1.25,0 0.27,0.56 0.13,0.84 -0.42,0.84 -1.12,0 -1.67,1.11 -1.67,3.34 -4.46,5.57 -7.52,11.97 -9.19,19.21 0,0 -0.84,0.56 -2.51,1.67 -1.67,3.9 -3.48,7.24 -5.43,10.03 -1.95,2.78 -3.48,6.12 -4.59,10.02 -3.9,4.45 -6.68,9.33 -8.35,14.62 -1.67,5.29 -4.74,9.32 -9.19,12.11 -1.11,1.11 -1.39,1.95 -0.84,2.5 -1.11,-1.11 -1.81,-2.08 -2.08,-2.92 -0.28,-0.83 -0.98,-1.53 -2.09,-2.09 -1.12,0.56 -1.95,1.26 -2.51,2.09 -0.56,0.84 -1.39,1.53 -2.5,2.09 2.78,-4.46 5.56,-11.14 8.35,-20.05 -3.34,4.46 -6.27,9.61 -8.77,15.46 -2.51,5.84 -6.55,10.16 -12.11,12.94 0,-1.67 0.41,-2.92 1.25,-3.76 0.83,-0.83 1.25,-2.36 1.25,-4.59 -2.23,2.23 -4.17,5.43 -5.84,9.6 -1.68,4.18 -3.07,8.5 -4.18,12.95 -2.23,0.56 -3.48,1.53 -3.76,2.93 -0.28,1.39 -0.97,2.92 -2.09,4.59 -1.11,-1.67 -1.39,-3.2 -0.83,-4.59 0.55,-1.4 1.11,-3.21 1.67,-5.43 -1.67,0.55 -2.51,2.5 -2.51,5.84 -1.11,0 -1.95,1.12 -2.5,3.34 -0.56,2.23 -1.95,3.62 -4.18,4.18 0,-1.67 0.28,-3.34 0.83,-5.01 0.56,-1.67 0.28,-3.34 -0.83,-5.01 0.56,-1.67 1.39,-2.79 2.5,-3.34 1.12,-0.56 1.12,-1.4 0,-2.51 -0.55,0.56 -1.11,1.53 -1.67,2.92 -0.55,1.4 -1.39,1.53 -2.5,0.42 0.56,3.34 -0.56,6.13 -3.34,8.35 -1.12,0 -1.53,-0.27 -1.26,-0.83 0.28,-0.56 -0.13,-0.56 -1.25,0 -2.23,2.23 -3.76,4.87 -4.59,7.93 -0.84,3.07 -2.65,4.88 -5.43,5.43 -1.12,0.56 -1.53,1.4 -1.25,2.51 0.27,1.11 -0.14,1.67 -1.26,1.67 -1.11,0 -1.67,-0.7 -1.67,-2.09 0,-1.39 -0.56,-2.37 -1.67,-2.92 -3.34,2.23 -6.54,2.64 -9.6,1.25 -3.07,-1.39 -5.99,-2.64 -8.77,-3.76 -3.35,-8.35 -3.49,-16.15 -0.42,-23.39 3.06,-7.23 5.71,-13.92 7.93,-20.04 0.56,-1.12 0.84,-2.23 0.84,-3.34 8.91,-21.16 18.51,-41.21 28.81,-60.14 10.31,-18.94 19.63,-38.15 27.99,-57.64 1.11,0.56 1.67,0.28 1.67,-0.83 0,-1.12 0.55,-1.4 1.67,-0.84 1.11,-3.34 2.23,-5.57 3.34,-6.68 1.11,-3.9 2.64,-7.1 4.59,-9.61 1.95,-2.5 3.76,-5.43 5.43,-8.77 7.24,-12.8 12.39,-22.13 15.46,-27.98 3.06,-5.85 5.7,-11.14 7.93,-15.87 2.23,-4.73 4.87,-9.88 7.94,-15.45 3.06,-5.57 8.49,-14.76 16.28,-27.57 -4.45,-5.56 -9.32,-10.85 -14.61,-15.87 -5.29,-5.01 -10.17,-10.58 -14.62,-16.7 -5.01,-6.13 -9.61,-12.39 -13.78,-18.8 -4.18,-6.4 -8.5,-12.66 -12.95,-18.79 -14.48,-21.72 -29.51,-42.88 -45.11,-63.48 -15.59,-20.6 -28.95,-42.88 -40.09,-66.82 -1.11,-1.12 -1.95,-2.65 -2.5,-4.6 -0.56,-1.95 -1.68,-4.03 -3.35,-6.26 -0.55,-1.12 -1.25,-2.23 -2.08,-3.34 -0.84,-1.12 -1.26,-2.23 -1.26,-3.34 -0.55,-0.56 -0.41,-1.67 0.42,-3.35 0.84,-1.67 1.95,-3.48 3.34,-5.42 1.39,-1.95 2.65,-3.62 3.76,-5.02 1.11,-1.39 1.67,-2.36 1.67,-2.92 0,-1.11 -0.14,-2.09 -0.42,-2.92 -0.27,-0.84 -0.41,-1.81 -0.41,-2.93 0,-2.78 1.11,-5.01 3.34,-6.68 2.22,0.56 5.29,0.42 9.19,-0.42 3.89,-0.83 8.07,-1.95 12.52,-3.34 4.46,-1.39 8.64,-2.5 12.53,-3.34 3.9,-0.83 7.24,-1.25 10.03,-1.25 0,1.11 0.41,1.53 1.25,1.25 0.83,-0.28 0.7,-0.14 -0.42,0.42 4.46,0 9.19,1.25 14.2,3.76 5.01,2.5 8.91,5.15 11.7,7.93 -0.56,1.67 -1.4,2.37 -2.51,2.09 -1.11,-0.28 -2.23,-0.42 -3.34,-0.42l0 2.51c0,-1.67 -0.84,-2.51 -2.51,-2.51 -1.67,2.23 -0.97,3.48 2.09,3.76 3.06,0.28 4.6,1.81 4.6,4.6 1.11,0 1.25,-0.28 0.41,-0.84 -0.83,-0.56 -0.69,-1.11 0.42,-1.67 1.11,0.56 2.09,1.81 2.92,3.76 0.84,1.95 0.7,3.48 -0.41,4.59 0,1.67 1.11,2.51 3.34,2.51l0.83 -0.84c0,1.67 -0.28,2.79 -0.83,3.34 1.11,0 2.09,0.42 2.92,1.26 0.84,0.83 2.09,1.25 3.76,1.25 -0.56,-1.11 -1.11,-2.23 -1.67,-3.34 -0.56,-1.11 -1.39,-2.51 -2.51,-4.18zm-8.35 446.88c0.56,0.55 1.11,0.55 1.67,0 0,-1.12 0,-1.67 0,-1.67 1.67,-0.56 2.37,-1.81 2.09,-3.76 -0.28,-1.95 -0.42,-3.48 -0.42,-4.6 1.12,-1.11 2.09,-2.22 2.93,-3.34 0.83,-1.11 2.08,-1.67 3.75,-1.67 -0.55,-1.11 0.56,-3.06 3.34,-5.84 0,-1.12 -0.13,-2.37 -0.41,-3.76 -0.28,-1.4 0.41,-2.65 2.09,-3.76 0,1.11 -0.28,1.95 -0.84,2.5 -0.56,0.56 -0.28,1.4 0.84,2.51 1.67,-1.11 2.08,-2.65 1.25,-4.59 -0.84,-1.95 -0.42,-3.48 1.25,-4.6 0,1.12 -0.14,1.67 -0.42,1.67 -0.27,0 -0.41,0.56 -0.41,1.67 2.78,-1.11 4.73,-2.78 5.84,-5.01 1.12,-2.23 2.79,-4.18 5.01,-5.85 -2.78,5.02 -5.42,10.17 -7.93,15.46 -2.51,5.29 -5.43,10.16 -8.77,14.61 0,2.23 -1.11,3.35 -3.34,3.35 0,2.22 -0.56,3.89 -1.67,5.01 -1.12,1.11 -1.12,2.78 0,5.01 -0.56,1.11 -1.26,1.95 -2.09,2.5 -0.84,0.56 -0.7,1.4 0.42,2.51 2.22,-1.11 3.62,-2.51 4.17,-4.18 0.56,-1.67 1.12,-3.34 1.67,-5.01 1.12,-2.78 2.23,-5.01 3.34,-6.68 1.12,-1.67 1.95,-3.9 2.51,-6.68 8.35,-10.58 15.31,-23.67 20.88,-39.26 1.12,-0.56 1.67,-1.11 1.67,-1.67 0,-0.56 0.56,-1.11 1.67,-1.67 -0.55,-2.79 0,-4.18 1.67,-4.18 1.12,-4.45 2.93,-7.93 5.43,-10.44 2.51,-2.5 3.21,-6.26 2.09,-11.28 1.12,-0.55 2.09,-1.11 2.93,-1.67 0.83,-0.55 1.53,-1.67 2.08,-3.34 1.67,-1.67 2.23,-3.89 1.67,-6.68 -1.11,0 -2.5,0.7 -4.17,2.09 -1.67,1.39 -3.06,2.37 -4.18,2.92 0,-1.67 0.84,-3.48 2.51,-5.43 1.67,-1.95 1.11,-3.76 -1.67,-5.43 -7.8,16.15 -16.15,32.16 -25.06,48.03 -8.91,15.87 -17.26,32.16 -25.06,48.87 0,1.67 -0.56,3.2 -1.67,4.59 -1.11,1.39 -1.39,2.92 -0.84,4.59 1.12,0 1.95,-0.69 2.51,-2.08 0.56,-1.4 1.11,-2.65 1.67,-3.76zm68.49 -88.54c0.56,1.67 0.56,2.5 0,2.5 1.67,-3.34 3.76,-6.4 6.27,-9.18 2.5,-2.79 4.31,-6.41 5.43,-10.86 1.11,1.11 1.67,1.67 1.67,1.67 3.34,-3.34 5.29,-6.96 5.84,-10.86 -1.11,0 -1.53,-0.28 -1.25,-0.84 0.28,-0.55 -0.14,-0.83 -1.25,-0.83 -2.79,2.78 -5.29,6.4 -7.52,10.86 -2.23,4.45 -4.73,8.35 -7.52,11.69 -0.55,-1.67 -1.11,-2.09 -1.67,-1.25 -0.55,0.83 -1.39,0.42 -2.5,-1.25 -1.67,4.45 -3.9,8.35 -6.68,11.69 -2.79,3.34 -5.57,7.24 -8.36,11.69 -1.67,2.23 -2.5,5.57 -2.5,10.03l-2.51 1.67c-2.23,3.89 -4.31,7.65 -6.26,11.27 -1.95,3.62 -3.21,7.66 -3.76,12.11 5.57,-8.35 10.86,-16.7 15.87,-25.05 5.01,-8.36 10.58,-16.71 16.7,-25.06zm-18.37 45.94c-1.12,1.11 -1.95,2.23 -2.51,3.34 -0.56,1.11 -1.11,2.78 -1.67,5.01 1.11,-0.56 2.65,-1.81 4.59,-3.76 1.95,-1.95 1.81,-4.31 -0.41,-7.1 0.55,0 0.83,-0.28 0.83,-0.83 0,-0.56 0.56,-1.12 1.67,-1.67 1.12,1.11 1.4,1.67 0.84,1.67 1.67,-3.9 3.76,-7.52 6.26,-10.86 2.51,-3.34 4.6,-7.24 6.27,-11.7 -2.79,1.12 -4.6,3.21 -5.43,6.27 -0.84,3.06 -2.93,5.15 -6.27,6.26 0,1.67 0,2.51 0,2.51 -2.22,-1.11 -3.06,-1.67 -2.5,-1.67 -1.67,4.45 -4.04,8.49 -7.1,12.11 -3.06,3.62 -4.6,7.66 -4.6,12.11 2.23,-1.67 3.9,-3.9 5.02,-6.68 1.11,-2.78 2.78,-4.45 5.01,-5.01zm-48.45 13.36c2.23,-3.9 4.04,-7.65 5.43,-11.27 1.39,-3.62 2.92,-7.38 4.59,-11.28 3.9,-7.24 8.08,-14.06 12.53,-20.46 4.46,-6.41 8.08,-13.51 10.86,-21.3 -2.23,1.11 -3.62,2.92 -4.17,5.43 -0.56,2.5 -2.23,4.31 -5.02,5.42 -1.11,5.02 -2.92,9.19 -5.43,12.53 -2.5,3.35 -4.31,7.24 -5.42,11.7 -2.79,2.78 -4.74,5.85 -5.85,9.19 -1.12,3.34 -3.34,6.4 -6.68,9.18 0,2.79 -0.28,4.46 -0.84,5.02 -0.56,0.55 -1.39,1.67 -2.5,3.34 -0.56,-1.12 -0.98,-1.26 -1.26,-0.42 -0.28,0.83 -0.97,1.25 -2.09,1.25 -0.55,0.56 -0.83,0.84 -0.83,0.84 0,0 0,0.83 0,2.5 1.11,-0.55 2.23,-1.25 3.34,-2.08 1.11,-0.84 2.23,-0.7 3.34,0.41zm53.46 -83.53c-1.11,2.23 -2.37,5.02 -3.76,8.36 -1.39,3.34 -0.7,5.57 2.09,6.68 1.11,-1.11 1.67,-4.45 1.67,-10.02 1.67,-2.79 3.34,-5.43 5.01,-7.94 1.67,-2.5 3.06,-5.15 4.18,-7.93 1.11,-1.12 2.09,-1.81 2.92,-2.09 0.84,-0.28 1.25,-1.25 1.25,-2.93 -2.22,2.23 -4.59,4.74 -7.1,7.52 -2.5,2.79 -4.59,5.57 -6.26,8.35zm-23.39 97.73c1.67,-1.11 3.48,-3.48 5.43,-7.1 1.95,-3.62 2.37,-6.54 1.25,-8.77 0,1.12 -0.55,1.95 -1.67,2.51 -1.11,0.56 -1.11,1.67 0,3.34 -1.11,-1.11 -1.67,-0.84 -1.67,0.83 -1.11,4.46 -3.06,8.36 -5.84,11.7 -2.79,3.34 -4.46,7.24 -5.02,11.69 1.12,-2.23 2.37,-4.45 3.76,-6.68 1.39,-2.23 2.65,-4.73 3.76,-7.52zm2.51 -25.89c-1.12,4.45 -2.79,8.35 -5.01,11.69 -2.23,3.34 -3.62,6.69 -4.18,10.03 1.67,-3.34 3.76,-6.55 6.26,-9.61 2.51,-3.06 3.48,-7.1 2.93,-12.11zm-7.52 -57.64c-0.56,-1.11 -0.42,-1.94 0.42,-2.5 0.83,-0.56 1.25,-1.39 1.25,-2.51 -5.01,2.79 -7.52,6.96 -7.52,12.53 1.12,-1.11 1.81,-2.36 2.09,-3.76 0.28,-1.39 1.53,-2.64 3.76,-3.76zm-7.52 88.54c-1.11,2.79 -2.5,5.57 -4.17,8.36 -1.68,2.78 -3.07,5.57 -4.18,8.35 5.01,-5.57 7.8,-11.14 8.35,-16.71zm-17.54 22.56l-6.68 12.53c2.78,-1.67 4.45,-3.48 5.01,-5.43 0.56,-1.95 1.11,-4.32 1.67,-7.1zm28.4 -13.37c-1.11,1.67 -2.23,3.34 -3.34,5.01 -1.11,1.67 -1.39,3.35 -0.84,5.02 1.12,-1.12 2.23,-2.51 3.35,-4.18 1.11,-1.67 1.39,-3.62 0.83,-5.85z"/>
  </g>
  <path class="fil5" d="M269.79 3493.17c-30.97,144.06 -42.49,249.21 123.17,249.21 165.66,0 198.79,-105.15 229.76,-249.21l15.85 -77.06c25.21,-137.57 36.01,-239.85 -125.33,-239.85 -161.34,0 -193.75,102.28 -227.6,239.85l-15.85 77.06zm124.61 -99.39c8.64,-41.78 22.33,-136.13 101.56,-136.13 74.9,0 52.57,95.79 43.21,139.01l-29.53 138.29c-10.8,51.86 -27.37,126.05 -99.4,126.05 -69.14,0 -56.9,-72.75 -47.53,-117.41l31.69 -149.81zm603.58 -98.68c-10.09,48.26 -18.73,100.12 -27.37,151.98 -7.92,51.86 -15.13,104.44 -22.33,153.41l-1.44 0c-5.76,-87.87 -13.69,-151.97 -26.65,-214.63l-36.73 -196.64 -104.44 0 -114.52 540.2 100.83 0 21.61 -101.56c9.37,-43.21 18.73,-97.23 27.37,-151.25 8.64,-54.74 15.85,-109.48 21.61,-154.14l1.44 0c5.76,84.99 13.69,150.54 26.65,214.64l37.45 192.31 105.16 0 114.52 -540.2 -100.83 0 -22.33 105.88zm394.69 434.32l16.57 -79.23 -187.26 0 97.95 -460.97 -100.83 0 -114.52 540.2 288.09 0zm173.58 0l114.53 -540.2 -100.84 0 -114.52 540.2 100.83 0zm432.16 -434.32c-10.09,48.26 -18.73,100.12 -27.37,151.98 -7.92,51.86 -15.13,104.44 -22.33,153.41l-1.44 0c-5.76,-87.87 -13.69,-151.97 -26.65,-214.63l-36.73 -196.64 -104.44 0 -114.52 540.2 100.83 0 21.61 -101.56c9.37,-43.21 18.73,-97.23 27.37,-151.25 8.64,-54.74 15.85,-109.48 21.61,-154.14l1.44 0c5.76,84.99 13.69,150.54 26.65,214.64l37.45 192.31 105.16 0 114.52 -540.2 -100.83 0 -22.33 105.88zm387.5 434.32l16.57 -79.23 -182.95 0 35.29 -166.38 168.54 0 17.29 -79.23 -168.54 0 28.81 -136.13 182.94 0 16.57 -79.23 -283.78 0 -114.52 540.2 283.78 0z"/>
 </g>
</svg>
