<?xml version="1.0" encoding="utf-8"?>
<!-- Generator: Adobe Illustrator 26.5.0, SVG Export Plug-In . SVG Version: 6.00 Build 0)  -->
<svg version="1.1" id="Layer_1" xmlns="http://www.w3.org/2000/svg" xmlns:xlink="http://www.w3.org/1999/xlink" x="0px" y="0px"
	 viewBox="0 0 1398.6 710.8" style="enable-background:new 0 0 1398.6 710.8;" xml:space="preserve">
<style type="text/css">
	.st0{filter:url(#Adobe_OpacityMaskFilter);}
	.st1{fill:#FFFFFF;}
	.st2{mask:url(#SVGID_1_);fill:url(#SVGID_00000148620618097658420040000013793311639484744383_);}
	.st3{fill:#7C807C;}
</style>
<g>
	<defs>
		<filter id="Adobe_OpacityMaskFilter" filterUnits="userSpaceOnUse" x="467.2" y="0" width="464.2" height="464.2">
			<feColorMatrix  type="matrix" values="1 0 0 0 0  0 1 0 0 0  0 0 1 0 0  0 0 0 1 0"/>
		</filter>
	</defs>
	<mask maskUnits="userSpaceOnUse" x="467.2" y="0" width="464.2" height="464.2" id="SVGID_1_">
		<g class="st0">
			<g>
				<g>
					<path class="st1" d="M937,250.1"/>
					<g>
						<g>
							<path class="st1" d="M910.4,257.8c6.3,0.2,12.7,0.5,19.3,0.6c-0.9,7.5-2.3,15-4,22.5c-6.3-0.3-12.5-0.7-18.7-1.1
								C908.5,272.4,909.7,265.1,910.4,257.8"/>
							<path class="st1" d="M890.2,256.8c6.1,0.3,12.2,0.6,18.5,0.9c-0.8,7.3-1.9,14.6-3.3,21.9c-6.1-0.5-12.1-1-17.9-1.7
								C888.6,270.9,889.5,263.9,890.2,256.8"/>
							<path class="st1" d="M870.7,255.5c5.8,0.5,11.7,0.9,17.8,1.2c-0.6,7-1.5,14-2.7,21c-5.9-0.7-11.6-1.4-17.2-2.3
								C869.5,268.8,870.2,262.1,870.7,255.5"/>
							<path class="st1" d="M911.8,233c6.4,0,12.9,0,19.6,0c0,7.5-0.5,15-1.3,22.5c-6.6-0.1-13-0.3-19.3-0.5
								C911.4,247.6,911.8,240.3,911.8,233"/>
							<path class="st1" d="M891.3,233c6.1,0,12.4,0,18.8,0c0,7.3-0.4,14.6-1.1,21.9c-6.3-0.2-12.5-0.5-18.6-0.8
								C891,247,891.3,240,891.3,233"/>
							<path class="st1" d="M871.6,232.9c5.9,0,11.8,0,18,0.1c0,7-0.3,14-0.9,21c-6-0.3-12-0.7-17.8-1.1
								C871.4,246.2,871.6,239.6,871.6,232.9"/>
							<path class="st1" d="M910.7,208.2c6.3-0.2,12.8-0.4,19.3-0.6c0.8,7.5,1.3,15,1.4,22.5c-6.6,0-13.2,0-19.6,0
								C911.8,222.9,911.4,215.5,910.7,208.2"/>
							<path class="st1" d="M890.4,209.1c6.1-0.3,12.2-0.6,18.6-0.8c0.7,7.3,1.1,14.6,1.1,21.9c-6.4,0-12.6,0-18.8,0.1
								C891.3,223.2,890.9,216.2,890.4,209.1"/>
							<path class="st1" d="M870.9,210.3c5.8-0.4,11.7-0.8,17.8-1.1c0.6,7,0.9,14,0.9,21c-6.1,0-12.1,0-18,0.1
								C871.6,223.7,871.4,217,870.9,210.3"/>
							<path class="st1" d="M907,183.4c6.1-0.5,12.3-0.8,18.6-1.1c1.7,7.5,3.1,15,4,22.5c-6.5,0.2-13,0.4-19.3,0.6
								C909.6,198.1,908.5,190.7,907,183.4"/>
							<path class="st1" d="M887.4,185.3c5.9-0.7,11.8-1.2,17.9-1.7c1.4,7.3,2.6,14.6,3.3,21.9c-6.3,0.3-12.4,0.6-18.5,1
								C889.5,199.4,888.6,192.3,887.4,185.3"/>
							<path class="st1" d="M868.5,187.8c5.6-0.9,11.4-1.6,17.2-2.3c1.2,7,2.1,14,2.7,21c-6,0.4-11.9,0.8-17.7,1.3
								C870.2,201.1,869.5,194.4,868.5,187.8"/>
							<path class="st1" d="M851,253.7c5.5,0.6,11.2,1.1,16.9,1.6c-0.5,6.6-1.2,13.2-2.1,19.8c-5.6-0.9-11.1-1.8-16.5-2.9
								C850.1,266,850.6,259.8,851,253.7"/>
							<path class="st1" d="M833.3,251.6c5.3,0.7,10.7,1.3,16.2,1.9c-0.4,6.1-0.9,12.2-1.6,18.3c-5.4-1.1-10.6-2.2-15.8-3.5
								C832.6,262.8,833,257.2,833.3,251.6"/>
							<path class="st1" d="M816.5,249.2c5,0.8,10.1,1.5,15.4,2.2c-0.3,5.5-0.7,11-1.2,16.6c-5.1-1.3-10.1-2.6-15.1-4.1
								C816,259,816.3,254.1,816.5,249.2"/>
							<path class="st1" d="M800.5,246.5c4.8,0.9,9.6,1.7,14.6,2.5c-0.2,4.8-0.5,9.7-0.8,14.5c-4.9-1.5-9.7-3-14.4-4.7
								C800.2,254.8,800.3,250.6,800.5,246.5"/>
							<path class="st1" d="M785.3,243.4c4.5,1,9.1,1.9,13.8,2.8c-0.1,4.1-0.3,8.1-0.5,12.2c-4.6-1.7-9.2-3.4-13.6-5.2
								C785.1,250,785.2,246.7,785.3,243.4"/>
							<path class="st1" d="M851.7,232.8c5.6,0,11.3,0.1,17.1,0.1c0,6.6-0.3,13.2-0.7,19.8c-5.8-0.4-11.4-0.9-17-1.4
								C851.5,245.1,851.7,239,851.7,232.8"/>
							<path class="st1" d="M833.8,232.7c5.3,0,10.8,0.1,16.3,0.1c0,6.1-0.2,12.2-0.5,18.3c-5.5-0.5-10.9-1.1-16.2-1.7
								C833.7,243.9,833.8,238.3,833.8,232.7"/>
							<path class="st1" d="M816.8,232.6c5.1,0,10.2,0.1,15.5,0.1c0,5.5-0.1,11-0.4,16.6c-5.3-0.6-10.4-1.3-15.4-2
								C816.7,242.4,816.8,237.5,816.8,232.6"/>
							<path class="st1" d="M800.7,232.5c4.8,0,9.7,0.1,14.7,0.1c0,4.9-0.1,9.7-0.3,14.5c-5-0.7-9.9-1.5-14.6-2.2
								C800.6,240.8,800.7,236.6,800.7,232.5"/>
							<path class="st1" d="M785.4,232.4c4.5,0,9.2,0.1,13.9,0.1c0,4.1-0.1,8.1-0.2,12.2c-4.7-0.8-9.4-1.6-13.9-2.5
								C785.4,238.9,785.4,235.6,785.4,232.4"/>
							<path class="st1" d="M851.1,212c5.5-0.5,11.2-1,17-1.4c0.4,6.6,0.7,13.2,0.7,19.8c-5.8,0-11.5,0.1-17.1,0.1
								C851.7,224.3,851.5,218.1,851.1,212"/>
							<path class="st1" d="M833.4,213.8c5.3-0.6,10.7-1.2,16.2-1.7c0.3,6.1,0.5,12.2,0.5,18.3c-5.6,0-11,0.1-16.3,0.1
								C833.8,225,833.7,219.4,833.4,213.8"/>
							<path class="st1" d="M816.5,216c5-0.7,10.2-1.4,15.4-2c0.2,5.5,0.4,11,0.4,16.6c-5.3,0-10.5,0.1-15.5,0.1
								C816.8,225.8,816.7,220.9,816.5,216"/>
							<path class="st1" d="M800.5,218.5c4.8-0.8,9.6-1.6,14.6-2.3c0.2,4.8,0.3,9.7,0.3,14.5c-5,0.1-9.9,0.1-14.7,0.2
								C800.7,226.8,800.6,222.6,800.5,218.5"/>
							<path class="st1" d="M785.3,221.3c4.5-0.9,9.1-1.8,13.9-2.6c0.1,4.1,0.2,8.1,0.2,12.2c-4.8,0.1-9.4,0.1-13.9,0.2
								C785.4,227.8,785.4,224.6,785.3,221.3"/>
							<path class="st1" d="M849.3,191.1c5.4-1.1,10.9-2,16.5-2.9c0.9,6.6,1.6,13.2,2.1,19.8c-5.8,0.5-11.4,1-16.9,1.6
								C850.6,203.4,850,197.3,849.3,191.1"/>
							<path class="st1" d="M832.1,194.9c5.2-1.3,10.4-2.4,15.8-3.5c0.7,6.1,1.2,12.2,1.6,18.3c-5.5,0.6-10.9,1.2-16.2,1.9
								C833,206.1,832.6,200.5,832.1,194.9"/>
							<path class="st1" d="M815.6,199.4c4.9-1.5,9.9-2.8,15-4.1c0.5,5.5,0.9,11,1.2,16.6c-5.2,0.7-10.4,1.4-15.4,2.3
								C816.3,209.2,816,204.3,815.6,199.4"/>
							<path class="st1" d="M799.9,204.5c4.7-1.7,9.5-3.2,14.3-4.7c0.4,4.8,0.6,9.7,0.8,14.5c-5,0.8-9.9,1.7-14.6,2.6
								C800.3,212.8,800.1,208.6,799.9,204.5"/>
							<path class="st1" d="M785,210.2c4.4-1.8,9-3.6,13.6-5.3c0.2,4.1,0.4,8.1,0.5,12.2c-4.7,0.9-9.3,1.9-13.8,2.9
								C785.2,216.8,785.1,213.5,785,210.2"/>
							<path class="st1" d="M770.1,239.8c4.2,1.1,8.6,2.2,13,3.2c-0.1,3.1-0.2,6.3-0.3,9.4c-4.4-1.9-8.7-3.8-12.9-5.8
								C770,244.2,770.1,242,770.1,239.8"/>
							<path class="st1" d="M756.7,236c4,1.2,8,2.4,12.3,3.5c0,2.1-0.1,4.3-0.1,6.4c-4.2-2.1-8.2-4.2-12.2-6.4
								C756.7,238.3,756.7,237.2,756.7,236"/>
							<path class="st1" d="M744.1,231.8c3.7,1.3,7.5,2.6,11.5,3.8c0,1.1,0,2.1,0,3.2C751.6,236.6,747.8,234.3,744.1,231.8"/>
							<path class="st1" d="M770.2,232.2c4.2,0.1,8.6,0.1,13.1,0.1c0,3.1,0,6.3-0.1,9.4c-4.5-0.9-8.8-1.8-13-2.8
								C770.1,236.7,770.2,234.4,770.2,232.2"/>
							<path class="st1" d="M756.7,232c4,0.1,8.1,0.1,12.3,0.2c0,2.1,0,4.3,0,6.4c-4.2-1-8.3-2-12.3-3.1
								C756.7,234.4,756.7,233.2,756.7,232"/>
							<path class="st1" d="M744.1,231.8c3.7,0.1,7.5,0.1,11.5,0.2c0,1.1,0,2.1,0,3.2C751.6,234.1,747.8,233,744.1,231.8"/>
							<path class="st1" d="M770.1,224.6c4.2-1,8.6-2,13-2.9c0.1,3.1,0.1,6.3,0.1,9.4c-4.5,0.1-8.8,0.1-13.1,0.2
								C770.2,229.1,770.1,226.9,770.1,224.6"/>
							<path class="st1" d="M756.7,228.1c4-1.1,8.1-2.2,12.3-3.2c0,2.2,0,4.3,0,6.4c-4.2,0.1-8.3,0.2-12.3,0.2
								C756.7,230.4,756.7,229.2,756.7,228.1"/>
							<path class="st1" d="M744.1,231.8c3.7-1.2,7.5-2.3,11.5-3.4c0,1.1,0,2.1,0,3.2C751.6,231.7,747.8,231.8,744.1,231.8"/>
							<path class="st1" d="M770,217.1c4.2-2.1,8.5-4,12.9-5.9c0.1,3.1,0.2,6.3,0.3,9.4c-4.5,1-8.8,2.1-13,3.2
								C770.1,221.5,770,219.3,770,217.1"/>
							<path class="st1" d="M756.7,224.1c3.9-2.3,8-4.4,12.2-6.5c0.1,2.1,0.1,4.3,0.1,6.4c-4.2,1.1-8.3,2.3-12.3,3.6
								C756.7,226.5,756.7,225.3,756.7,224.1"/>
							<path class="st1" d="M744.1,231.8c3.7-2.4,7.5-4.8,11.5-7.1c0,1.1,0,2.1,0,3.2C751.6,229.2,747.8,230.5,744.1,231.8"/>
							<path class="st1" d="M901,159.4c5.7-0.7,11.6-1.3,17.5-1.7c2.6,7.5,4.8,15,6.6,22.5c-6.3,0.3-12.5,0.7-18.6,1.2
								C905,174,903.2,166.7,901,159.4"/>
							<path class="st1" d="M882.5,162.2c5.5-1,11.2-1.9,16.9-2.6c2.2,7.3,4,14.6,5.5,21.9c-6.1,0.5-12,1.1-17.9,1.8
								C885.8,176.2,884.3,169.2,882.5,162.2"/>
							<path class="st1" d="M864.6,165.9c5.3-1.3,10.8-2.4,16.3-3.5c1.8,7,3.2,14,4.4,21c-5.8,0.7-11.5,1.5-17.2,2.4
								C867.3,179.2,866.1,172.6,864.6,165.9"/>
							<path class="st1" d="M892.3,134.6c5.2-0.9,10.5-1.7,15.9-2.3c3.5,7.5,6.6,15,9.3,22.5c-5.9,0.5-11.6,1-17.3,1.8
								C897.8,149.2,895.2,141.9,892.3,134.6"/>
							<path class="st1" d="M875.4,138.3c5.1-1.3,10.2-2.5,15.4-3.5c2.9,7.3,5.5,14.6,7.7,21.9c-5.7,0.8-11.3,1.6-16.8,2.7
								C879.9,152.4,877.8,145.4,875.4,138.3"/>
							<path class="st1" d="M859,143.3c4.9-1.7,9.9-3.3,15-4.6c2.3,7,4.4,14,6.2,21c-5.5,1.1-10.9,2.3-16.2,3.6
								C862.6,156.6,860.9,150,859,143.3"/>
							<path class="st1" d="M881,109.8c4.5-1.2,9.1-2.1,13.7-2.9c4.4,7.5,8.4,15,12,22.5c-5.3,0.6-10.5,1.4-15.6,2.3
								C888.1,124.4,884.7,117.1,881,109.8"/>
							<path class="st1" d="M866.3,114.5c4.5-1.7,8.9-3.1,13.5-4.3c3.6,7.3,6.9,14.6,9.9,21.9c-5.1,1-10.2,2.2-15.2,3.6
								C872,128.5,869.3,121.5,866.3,114.5"/>
							<path class="st1" d="M851.8,120.8c4.4-2.2,8.8-4.1,13.2-5.8c2.9,7,5.6,14,8,21c-5,1.4-9.9,3-14.8,4.8
								C856.3,134.1,854.2,127.4,851.8,120.8"/>
							<g>
								<path class="st1" d="M867.2,85c3.7-1.4,7.4-2.6,11.1-3.4c5.3,7.5,10.2,15,14.7,22.5c-4.5,0.7-9,1.7-13.5,2.9
									C875.8,99.6,871.7,92.3,867.2,85"/>
							</g>
							<path class="st1" d="M855.1,90.6c3.7-2,7.4-3.7,11.1-5.2c4.4,7.3,8.4,14.6,12.1,21.9c-4.4,1.2-8.9,2.7-13.2,4.4
								C862,104.7,858.7,97.7,855.1,90.6"/>
							<path class="st1" d="M842.9,98.2c3.7-2.6,7.4-4.9,11.1-7c3.5,7,6.8,14,9.8,21c-4.4,1.8-8.7,3.7-13,5.9
								C848.4,111.5,845.8,104.8,842.9,98.2"/>
							<path class="st1" d="M846.4,170.9c5.1-1.6,10.4-3.1,15.7-4.4c1.4,6.6,2.5,13.2,3.5,19.8c-5.6,0.9-11,1.9-16.4,3.1
								C848.4,183.2,847.5,177.1,846.4,170.9"/>
							<path class="st1" d="M829.9,176.6c4.9-1.9,9.9-3.7,15.1-5.3c1,6.1,1.9,12.2,2.6,18.3c-5.3,1.1-10.6,2.4-15.7,3.7
								C831.4,187.8,830.7,182.2,829.9,176.6"/>
							<path class="st1" d="M814.1,183.3c4.7-2.2,9.5-4.2,14.5-6.1c0.8,5.5,1.4,11,2,16.6c-5.1,1.3-10.1,2.8-15,4.3
								C815.1,193.1,814.7,188.2,814.1,183.3"/>
							<path class="st1" d="M798.9,190.9c4.5-2.5,9.1-4.8,13.9-7c0.5,4.8,1,9.7,1.3,14.5c-4.9,1.5-9.6,3.2-14.3,4.9
								C799.6,199.2,799.3,195.1,798.9,190.9"/>
							<path class="st1" d="M784.4,199.5c4.3-2.8,8.7-5.4,13.2-7.9c0.3,4.1,0.6,8.1,0.9,12.2c-4.6,1.7-9.2,3.6-13.6,5.5
								C784.8,206.1,784.6,202.8,784.4,199.5"/>
							<path class="st1" d="M842.2,150.1c4.8-2.1,9.6-4.1,14.5-5.9c1.8,6.6,3.4,13.2,4.9,19.8c-5.3,1.4-10.5,2.9-15.6,4.6
								C844.9,162.4,843.6,156.2,842.2,150.1"/>
							<path class="st1" d="M826.8,157.7c4.6-2.5,9.3-4.9,14-7.1c1.4,6.1,2.6,12.2,3.7,18.3c-5.1,1.7-10.1,3.5-15,5.5
								C828.8,168.9,827.9,163.3,826.8,157.7"/>
							<path class="st1" d="M811.9,166.7c4.5-2.9,9-5.7,13.6-8.3c1,5.5,1.9,11,2.7,16.6c-4.9,2-9.7,4.1-14.4,6.4
								C813.3,176.5,812.7,171.6,811.9,166.7"/>
							<path class="st1" d="M797.5,176.9c4.3-3.3,8.7-6.5,13.2-9.4c0.7,4.8,1.3,9.7,1.9,14.5c-4.7,2.3-9.3,4.7-13.8,7.3
								C798.4,185.2,798,181.1,797.5,176.9"/>
							<path class="st1" d="M783.6,188.5c4.2-3.7,8.4-7.3,12.7-10.6c0.5,4.1,0.9,8.1,1.2,12.2c-4.5,2.6-8.9,5.3-13.2,8.2
								C784.1,195,783.9,191.7,783.6,188.5"/>
							<path class="st1" d="M836.7,129.2c4.3-2.7,8.6-5.1,13-7.4c2.3,6.6,4.4,13.2,6.3,19.8c-4.8,1.8-9.6,3.9-14.3,6.1
								C840.1,141.5,838.5,135.4,836.7,129.2"/>
							<path class="st1" d="M822.8,138.8c4.2-3.2,8.5-6.2,12.7-8.9c1.8,6.1,3.3,12.2,4.8,18.3c-4.7,2.2-9.3,4.7-13.9,7.3
								C825.3,150,824.1,144.4,822.8,138.8"/>
							<path class="st1" d="M809.1,150.1c4.1-3.7,8.3-7.1,12.5-10.4c1.3,5.5,2.5,11,3.5,16.6c-4.6,2.6-9,5.5-13.5,8.5
								C810.9,159.9,810,155,809.1,150.1"/>
							<path class="st1" d="M795.7,162.9c4-4.2,8.1-8.1,12.2-11.8c0.9,4.8,1.7,9.7,2.4,14.5c-4.4,3.1-8.8,6.3-13.1,9.7
								C796.9,171.2,796.3,167.1,795.7,162.9"/>
							<path class="st1" d="M782.6,177.4c4-4.7,8-9.1,12-13.3c0.6,4.1,1.1,8.1,1.6,12.2c-4.3,3.5-8.5,7.1-12.6,10.9
								C783.3,184,782.9,180.7,782.6,177.4"/>
							<path class="st1" d="M830,108.3c3.7-3.2,7.4-6.2,11.1-8.9c2.8,6.6,5.3,13.2,7.7,19.8c-4.3,2.3-8.6,4.8-12.8,7.6
								C834.2,120.7,832.2,114.5,830,108.3"/>
							<path class="st1" d="M817.8,119.9c3.7-3.8,7.4-7.4,11.1-10.7c2.1,6.1,4.1,12.2,5.9,18.3c-4.2,2.8-8.4,5.8-12.6,9.1
								C820.9,131.1,819.4,125.5,817.8,119.9"/>
							<path class="st1" d="M805.7,133.5c3.7-4.4,7.4-8.6,11.1-12.5c1.5,5.5,3,11.1,4.3,16.6c-4.2,3.3-8.3,6.8-12.3,10.6
								C807.8,143.3,806.8,138.4,805.7,133.5"/>
							<path class="st1" d="M793.5,148.9c3.7-5,7.4-9.8,11.1-14.2c1.1,4.8,2.1,9.7,3,14.5c-4.1,3.8-8.1,7.8-12.1,12.1
								C794.9,157.2,794.2,153.1,793.5,148.9"/>
							<path class="st1" d="M781.3,166.4c3.7-5.6,7.4-10.9,11.1-16c0.7,4.1,1.3,8.1,1.9,12.2c-4,4.3-8,8.9-11.9,13.6
								C782.1,172.9,781.8,169.6,781.3,166.4"/>
							<path class="st1" d="M769.7,209.7c4.1-3.1,8.3-6,12.6-8.8c0.2,3.1,0.3,6.3,0.5,9.4c-4.4,2-8.7,4-12.9,6.2
								C769.9,214.2,769.8,212,769.7,209.7"/>
							<path class="st1" d="M756.6,220.3c3.9-3.4,7.9-6.6,12-9.7c0.1,2.1,0.1,4.3,0.2,6.4c-4.2,2.2-8.2,4.4-12.2,6.8
								C756.6,222.6,756.6,221.5,756.6,220.3"/>
							<path class="st1" d="M744.1,231.8c3.7-3.7,7.5-7.2,11.4-10.6c0,1.1,0,2.1,0,3.2C751.6,226.8,747.8,229.3,744.1,231.8"/>
							<path class="st1" d="M769.4,202.2c4-4.1,8.1-8.1,12.2-11.9c0.3,3.1,0.5,6.3,0.7,9.4c-4.3,2.9-8.5,6-12.6,9.2
								C769.6,206.6,769.5,204.4,769.4,202.2"/>
							<path class="st1" d="M756.5,216.4c3.9-4.5,7.8-8.9,11.8-13c0.1,2.1,0.2,4.3,0.3,6.4c-4.1,3.2-8.1,6.6-12,10.1
								C756.6,218.7,756.5,217.5,756.5,216.4"/>
							<path class="st1" d="M744.1,231.8c3.7-4.9,7.5-9.7,11.3-14.2c0,1.1,0,2.1,0.1,3.2C751.6,224.4,747.8,228,744.1,231.8"/>
							<path class="st1" d="M769,194.6c3.9-5.2,7.8-10.1,11.7-14.9c0.3,3.1,0.6,6.3,0.8,9.4c-4.1,3.9-8.2,8-12.2,12.2
								C769.2,199,769.1,196.8,769,194.6"/>
							<path class="st1" d="M756.4,212.4c3.8-5.7,7.6-11.1,11.5-16.4c0.1,2.2,0.2,4.3,0.4,6.4c-4,4.3-7.9,8.8-11.8,13.4
								C756.5,214.7,756.4,213.6,756.4,212.4"/>
							<path class="st1" d="M744.1,231.8c3.7-6.2,7.5-12.1,11.2-17.8c0,1.1,0.1,2.1,0.1,3.2C751.6,221.9,747.8,226.8,744.1,231.8"/>
							<path class="st1" d="M768.4,187c3.7-6.2,7.4-12.2,11.1-17.9c0.4,3.1,0.7,6.3,1,9.4c-3.9,4.9-7.8,9.9-11.7,15.2
								C768.8,191.5,768.6,189.3,768.4,187"/>
							<path class="st1" d="M756.3,208.5c3.7-6.8,7.4-13.4,11.1-19.7c0.2,2.1,0.3,4.3,0.4,6.4c-3.8,5.3-7.7,10.9-11.4,16.8
								C756.3,210.8,756.3,209.6,756.3,208.5"/>
							<path class="st1" d="M744.1,231.8c3.7-7.4,7.4-14.6,11.1-21.5c0,1.1,0.1,2.1,0.1,3.2C751.6,219.4,747.8,225.5,744.1,231.8"/>
							<path class="st1" d="M879.6,356.7c4.5,1.2,8.9,2.2,13.5,2.9c-4.5,7.5-9.4,15-14.7,22.5c-3.7-0.9-7.4-2-11.1-3.4
								C871.7,371.4,875.8,364.1,879.6,356.7"/>
							<path class="st1" d="M865.1,352c4.4,1.7,8.8,3.2,13.2,4.4c-3.7,7.3-7.8,14.6-12.1,21.9c-3.7-1.5-7.4-3.2-11.1-5.2
								C858.7,366,862,359,865.1,352"/>
							<path class="st1" d="M850.9,345.5c4.3,2.2,8.6,4.2,13,6c-3,7-6.3,14-9.8,21c-3.7-2-7.4-4.4-11.1-7
								C845.8,358.8,848.4,352.2,850.9,345.5"/>
							<path class="st1" d="M891.1,331.9c5.2,1,10.4,1.7,15.6,2.3c-3.6,7.5-7.6,15-12,22.5c-4.6-0.7-9.2-1.7-13.7-2.9
								C884.7,346.6,888.1,339.3,891.1,331.9"/>
							<path class="st1" d="M874.5,328.1c5,1.4,10.1,2.6,15.2,3.5c-3,7.3-6.3,14.6-9.9,21.9c-4.5-1.2-9-2.7-13.5-4.3
								C869.3,342.2,872,335.2,874.5,328.1"/>
							<path class="st1" d="M858.3,323c4.9,1.8,9.8,3.4,14.8,4.8c-2.4,7-5.1,14-8,21c-4.4-1.7-8.9-3.6-13.2-5.8
								C854.2,336.3,856.3,329.6,858.3,323"/>
							<path class="st1" d="M900.1,307.2c5.7,0.7,11.5,1.3,17.3,1.8c-2.7,7.5-5.8,15-9.3,22.5c-5.4-0.6-10.6-1.3-15.9-2.3
								C895.2,321.8,897.8,314.5,900.1,307.2"/>
							<path class="st1" d="M881.8,304.3c5.5,1,11.1,1.9,16.8,2.7c-2.2,7.3-4.8,14.6-7.7,21.9c-5.2-1-10.3-2.1-15.4-3.5
								C877.8,318.3,879.9,311.3,881.8,304.3"/>
							<path class="st1" d="M864.1,300.4c5.3,1.3,10.7,2.5,16.2,3.6c-1.8,7-3.9,14-6.2,21c-5.1-1.4-10-2.9-15-4.6
								C860.9,313.7,862.6,307.1,864.1,300.4"/>
							<path class="st1" d="M906.6,282.3c6.1,0.5,12.3,0.9,18.6,1.2c-1.8,7.5-4,15-6.6,22.5c-5.9-0.4-11.8-1-17.5-1.7
								C903.2,297,905,289.7,906.6,282.3"/>
							<path class="st1" d="M887,280.4c5.8,0.7,11.8,1.3,17.9,1.8c-1.5,7.3-3.3,14.6-5.5,21.9c-5.7-0.7-11.4-1.6-16.9-2.6
								C884.3,294.5,885.8,287.5,887,280.4"/>
							<path class="st1" d="M868.2,277.8c5.6,0.9,11.3,1.7,17.2,2.4c-1.2,7-2.7,14-4.4,21c-5.5-1-11-2.2-16.3-3.5
								C866.1,291.1,867.3,284.5,868.2,277.8"/>
							<path class="st1" d="M836,336.9c4.2,2.8,8.5,5.3,12.8,7.6c-2.3,6.6-4.9,13.2-7.7,19.8c-3.7-2.7-7.4-5.7-11.1-8.9
								C832.2,349.2,834.2,343,836,336.9"/>
							<path class="st1" d="M822.3,327c4.2,3.2,8.3,6.3,12.6,9.1c-1.8,6.1-3.7,12.2-5.9,18.3c-3.7-3.3-7.4-6.9-11.1-10.7
								C819.4,338.2,820.9,332.6,822.3,327"/>
							<path class="st1" d="M808.8,315.5c4.1,3.8,8.2,7.3,12.3,10.6c-1.3,5.5-2.8,11-4.3,16.6c-3.7-3.9-7.4-8-11.1-12.5
								C806.8,325.3,807.8,320.4,808.8,315.5"/>
							<path class="st1" d="M795.5,302.4c4,4.3,8.1,8.3,12.1,12.1c-0.9,4.8-1.9,9.7-3,14.5c-3.7-4.5-7.4-9.2-11.1-14.2
								C794.2,310.6,794.9,306.5,795.5,302.4"/>
							<path class="st1" d="M782.5,287.5c3.9,4.8,7.9,9.3,11.9,13.6c-0.6,4.1-1.2,8.1-1.9,12.2c-3.7-5.1-7.4-10.4-11.1-16
								C781.8,294.1,782.1,290.8,782.5,287.5"/>
							<path class="st1" d="M841.6,316c4.7,2.2,9.5,4.2,14.3,6.1c-1.9,6.6-4,13.2-6.3,19.8c-4.4-2.2-8.7-4.7-13-7.4
								C838.5,328.3,840.1,322.2,841.6,316"/>
							<path class="st1" d="M826.4,308.1c4.6,2.6,9.2,5,13.9,7.3c-1.4,6.1-3,12.2-4.8,18.3c-4.3-2.7-8.5-5.7-12.7-8.9
								C824.1,319.3,825.3,313.7,826.4,308.1"/>
							<path class="st1" d="M811.6,298.9c4.4,3,8.9,5.8,13.5,8.5c-1,5.5-2.2,11-3.5,16.6c-4.2-3.2-8.4-6.7-12.5-10.3
								C810,308.7,810.9,303.8,811.6,298.9"/>
							<path class="st1" d="M797.4,288.4c4.3,3.4,8.6,6.6,13.1,9.7c-0.7,4.8-1.5,9.7-2.4,14.5c-4.1-3.7-8.2-7.7-12.2-11.8
								C796.3,296.6,796.9,292.5,797.4,288.4"/>
							<path class="st1" d="M783.5,276.5c4.1,3.8,8.4,7.5,12.6,10.9c-0.5,4-1,8.1-1.6,12.2c-4-4.2-8-8.6-12-13.3
								C782.9,283,783.3,279.7,783.5,276.5"/>
							<path class="st1" d="M846,295.2c5.1,1.7,10.3,3.2,15.6,4.6c-1.4,6.6-3,13.2-4.9,19.8c-4.9-1.8-9.7-3.7-14.5-5.9
								C843.6,307.5,844.9,301.3,846,295.2"/>
							<path class="st1" d="M829.6,289.2c4.9,2,9.9,3.8,15,5.5c-1.1,6.1-2.3,12.2-3.7,18.3c-4.7-2.2-9.4-4.5-14-7.1
								C827.9,300.4,828.8,294.8,829.6,289.2"/>
							<path class="st1" d="M813.9,282.3c4.7,2.3,9.5,4.4,14.4,6.4c-0.8,5.5-1.7,11-2.7,16.6c-4.6-2.6-9.1-5.3-13.6-8.2
								C812.7,292.1,813.3,287.2,813.9,282.3"/>
							<path class="st1" d="M798.8,274.4c4.5,2.6,9.1,5,13.8,7.3c-0.5,4.8-1.2,9.7-1.9,14.5c-4.5-3-8.8-6.1-13.2-9.4
								C798,282.6,798.4,278.5,798.8,274.4"/>
							<path class="st1" d="M784.4,265.4c4.3,2.9,8.7,5.6,13.2,8.2c-0.3,4.1-0.7,8.1-1.2,12.2c-4.3-3.4-8.5-6.9-12.7-10.6
								C783.9,272,784.1,268.7,784.4,265.4"/>
							<path class="st1" d="M849.1,274.3c5.4,1.1,10.8,2.1,16.4,3.1c-0.9,6.6-2.1,13.2-3.5,19.8c-5.3-1.3-10.5-2.8-15.7-4.4
								C847.5,286.6,848.4,280.5,849.1,274.3"/>
							<path class="st1" d="M831.9,270.3c5.1,1.3,10.4,2.5,15.7,3.7c-0.7,6.1-1.6,12.2-2.6,18.3c-5.1-1.6-10.1-3.4-15.1-5.3
								C830.7,281.5,831.4,275.9,831.9,270.3"/>
							<path class="st1" d="M815.5,265.7c4.9,1.5,9.9,2.9,15,4.3c-0.5,5.5-1.2,11-2,16.6c-4.9-1.9-9.7-4-14.5-6.1
								C814.7,275.5,815.1,270.6,815.5,265.7"/>
							<path class="st1" d="M799.8,260.4c4.7,1.7,9.4,3.4,14.3,4.9c-0.4,4.8-0.8,9.7-1.3,14.5c-4.7-2.2-9.3-4.5-13.9-7
								C799.3,268.6,799.6,264.5,799.8,260.4"/>
							<path class="st1" d="M784.9,254.4c4.4,1.9,9,3.8,13.6,5.5c-0.2,4.1-0.5,8.1-0.9,12.2c-4.5-2.5-8.9-5.1-13.2-7.9
								C784.6,260.9,784.8,257.6,784.9,254.4"/>
							<path class="st1" d="M768.9,270c3.9,5.3,7.7,10.4,11.7,15.2c-0.3,3.1-0.7,6.3-1,9.4c-3.7-5.7-7.4-11.7-11.1-17.9
								C768.6,274.4,768.8,272.2,768.9,270"/>
							<path class="st1" d="M756.4,251.7c3.8,5.8,7.6,11.4,11.4,16.8c-0.1,2.2-0.3,4.3-0.4,6.4c-3.7-6.3-7.4-12.9-11.1-19.7
								C756.3,254.1,756.3,252.9,756.4,251.7"/>
							<path class="st1" d="M744.1,231.8c3.7,6.3,7.5,12.4,11.2,18.3c0,1.1-0.1,2.1-0.1,3.2C751.5,246.4,747.8,239.3,744.1,231.8"/>
							<path class="st1" d="M769.4,262.4c4,4.3,8,8.3,12.2,12.2c-0.3,3.1-0.5,6.3-0.8,9.4c-3.9-4.7-7.9-9.7-11.7-14.9
								C769.1,266.9,769.2,264.6,769.4,262.4"/>
							<path class="st1" d="M756.5,247.8c3.9,4.7,7.8,9.1,11.8,13.4c-0.1,2.1-0.2,4.3-0.4,6.4c-3.9-5.2-7.7-10.7-11.5-16.4
								C756.4,250.1,756.5,249,756.5,247.8"/>
							<path class="st1" d="M744.1,231.8c3.7,5.1,7.5,10,11.3,14.7c0,1.1,0,2.1-0.1,3.2C751.6,244,747.8,238,744.1,231.8"/>
							<path class="st1" d="M769.7,254.8c4.1,3.2,8.3,6.3,12.6,9.2c-0.2,3.1-0.4,6.2-0.7,9.4c-4.1-3.8-8.2-7.7-12.2-11.9
								C769.5,259.3,769.6,257.1,769.7,254.8"/>
							<path class="st1" d="M756.6,243.8c3.9,3.5,7.9,6.9,12,10.1c-0.1,2.1-0.2,4.3-0.3,6.4c-4-4.2-7.9-8.5-11.8-13
								C756.5,246.2,756.6,245,756.6,243.8"/>
							<path class="st1" d="M744.1,231.8c3.7,3.8,7.5,7.5,11.4,11c0,1.1,0,2.1-0.1,3.2C751.6,241.5,747.8,236.8,744.1,231.8"/>
							<path class="st1" d="M770,247.3c4.2,2.1,8.5,4.2,12.9,6.2c-0.1,3.1-0.3,6.2-0.5,9.4c-4.3-2.8-8.5-5.8-12.6-8.8
								C769.8,251.7,769.9,249.5,770,247.3"/>
							<path class="st1" d="M756.6,239.9c3.9,2.4,8,4.6,12.2,6.8c-0.1,2.1-0.1,4.3-0.2,6.4c-4.1-3.1-8.1-6.3-12-9.7
								C756.6,242.2,756.6,241.1,756.6,239.9"/>
							<path class="st1" d="M744.1,231.8c3.7,2.6,7.5,5,11.4,7.4c0,1.1,0,2.1,0,3.2C751.6,239.1,747.8,235.5,744.1,231.8"/>
						</g>
					</g>
				</g>
				<g>
					<path class="st1" d="M717.3-5.6"/>
					<g>
						<g>
							<path class="st1" d="M725,21c0.2-6.3,0.5-12.7,0.6-19.3c7.5,0.9,15,2.3,22.5,4c-0.3,6.3-0.7,12.5-1.1,18.7
								C739.6,22.9,732.3,21.7,725,21"/>
							<path class="st1" d="M724,41.2c0.3-6.1,0.6-12.2,0.9-18.5c7.3,0.8,14.6,1.9,21.9,3.3c-0.5,6.1-1,12.1-1.7,17.9
								C738.1,42.8,731,41.9,724,41.2"/>
							<path class="st1" d="M722.7,60.7c0.5-5.8,0.9-11.7,1.2-17.8c7,0.6,14,1.5,21,2.7c-0.7,5.9-1.4,11.6-2.3,17.2
								C736,61.9,729.3,61.2,722.7,60.7"/>
							<path class="st1" d="M700.2,19.6c0-6.4,0-12.9,0-19.6c7.5,0,15,0.5,22.5,1.3c-0.1,6.6-0.3,13-0.5,19.3
								C714.8,20,707.5,19.6,700.2,19.6"/>
							<path class="st1" d="M700.1,40.1c0-6.1,0-12.4,0-18.8c7.3,0,14.6,0.4,21.9,1.1c-0.2,6.3-0.5,12.5-0.8,18.6
								C714.2,40.4,707.2,40.1,700.1,40.1"/>
							<path class="st1" d="M700.1,59.8c0-5.9,0-11.8,0.1-18c7,0,14,0.3,21,0.9c-0.3,6-0.7,12-1.1,17.8
								C713.4,60,706.7,59.8,700.1,59.8"/>
							<path class="st1" d="M675.4,20.7c-0.2-6.3-0.4-12.8-0.6-19.3c7.5-0.8,15-1.3,22.5-1.4c0,6.6,0,13.2,0,19.6
								C690,19.6,682.7,20,675.4,20.7"/>
							<path class="st1" d="M676.3,41c-0.3-6.1-0.6-12.2-0.8-18.6c7.3-0.7,14.6-1.1,21.9-1.1c0,6.4,0,12.6,0.1,18.8
								C690.4,40.1,683.3,40.5,676.3,41"/>
							<path class="st1" d="M677.5,60.5c-0.4-5.8-0.8-11.7-1.1-17.8c7-0.6,14-0.9,21-0.9c0,6.1,0,12.1,0.1,18
								C690.8,59.8,684.2,60,677.5,60.5"/>
							<path class="st1" d="M650.6,24.4c-0.5-6.1-0.8-12.3-1.1-18.6c7.5-1.7,15-3.1,22.5-4c0.2,6.5,0.4,13,0.6,19.3
								C665.2,21.8,657.9,22.9,650.6,24.4"/>
							<path class="st1" d="M652.4,44c-0.7-5.9-1.2-11.8-1.7-17.9c7.3-1.4,14.6-2.6,21.9-3.3c0.3,6.3,0.6,12.4,1,18.5
								C666.5,41.9,659.5,42.8,652.4,44"/>
							<path class="st1" d="M654.9,62.9c-0.9-5.6-1.6-11.4-2.3-17.2c7-1.2,14-2.1,21-2.7c0.4,6,0.8,11.9,1.3,17.7
								C668.3,61.2,661.6,61.9,654.9,62.9"/>
							<path class="st1" d="M720.9,80.4c0.6-5.5,1.1-11.2,1.6-16.9c6.6,0.5,13.2,1.2,19.8,2.1c-0.9,5.6-1.8,11.1-2.9,16.5
								C733.2,81.3,727,80.8,720.9,80.4"/>
							<path class="st1" d="M718.8,98.1c0.7-5.3,1.3-10.7,1.9-16.2c6.1,0.4,12.2,0.9,18.3,1.6c-1.1,5.4-2.2,10.6-3.5,15.8
								C730,98.8,724.4,98.4,718.8,98.1"/>
							<path class="st1" d="M716.4,114.9c0.8-5,1.5-10.1,2.2-15.4c5.5,0.3,11,0.7,16.6,1.2c-1.3,5.1-2.6,10.1-4.1,15.1
								C726.2,115.4,721.3,115.1,716.4,114.9"/>
							<path class="st1" d="M713.7,130.9c0.9-4.8,1.7-9.6,2.5-14.6c4.8,0.2,9.7,0.5,14.5,0.8c-1.5,4.9-3,9.7-4.7,14.4
								C721.9,131.2,717.8,131.1,713.7,130.9"/>
							<path class="st1" d="M710.6,146.1c1-4.5,1.9-9.1,2.8-13.8c4.1,0.1,8.1,0.3,12.2,0.5c-1.7,4.6-3.4,9.2-5.2,13.6
								C717.1,146.3,713.9,146.2,710.6,146.1"/>
							<path class="st1" d="M700,79.7c0-5.6,0.1-11.3,0.1-17.1c6.6,0,13.2,0.3,19.8,0.7c-0.4,5.8-0.9,11.4-1.4,17
								C712.3,79.9,706.2,79.7,700,79.7"/>
							<path class="st1" d="M699.9,97.6c0-5.3,0.1-10.8,0.1-16.3c6.1,0,12.2,0.2,18.3,0.5c-0.5,5.5-1.1,10.9-1.7,16.2
								C711.1,97.7,705.5,97.6,699.9,97.6"/>
							<path class="st1" d="M699.8,114.6c0-5.1,0.1-10.2,0.1-15.5c5.5,0,11,0.1,16.6,0.4c-0.6,5.3-1.3,10.4-2,15.4
								C709.6,114.7,704.7,114.6,699.8,114.6"/>
							<path class="st1" d="M699.7,130.7c0-4.8,0.1-9.7,0.1-14.7c4.9,0,9.7,0.1,14.5,0.3c-0.7,5-1.5,9.9-2.2,14.6
								C707.9,130.8,703.8,130.7,699.7,130.7"/>
							<path class="st1" d="M699.5,146c0-4.5,0.1-9.2,0.1-13.9c4.1,0,8.1,0.1,12.2,0.2c-0.8,4.7-1.6,9.4-2.5,13.9
								C706.1,146,702.8,146,699.5,146"/>
							<path class="st1" d="M679.1,80.3c-0.5-5.5-1-11.2-1.4-17c6.6-0.4,13.2-0.7,19.8-0.7c0,5.8,0.1,11.5,0.1,17.1
								C691.5,79.7,685.3,79.9,679.1,80.3"/>
							<path class="st1" d="M681,98c-0.6-5.3-1.2-10.7-1.7-16.2c6.1-0.3,12.2-0.5,18.3-0.5c0,5.6,0.1,11,0.1,16.3
								C692.2,97.6,686.6,97.7,681,98"/>
							<path class="st1" d="M683.2,114.9c-0.7-5-1.4-10.2-2-15.4c5.5-0.2,11-0.4,16.6-0.4c0,5.3,0.1,10.5,0.1,15.5
								C693,114.6,688.1,114.7,683.2,114.9"/>
							<path class="st1" d="M685.7,130.9c-0.8-4.8-1.6-9.6-2.3-14.6c4.8-0.2,9.7-0.3,14.5-0.3c0.1,5,0.1,9.9,0.2,14.7
								C693.9,130.7,689.8,130.8,685.7,130.9"/>
							<path class="st1" d="M688.5,146.1c-0.9-4.5-1.8-9.1-2.6-13.9c4.1-0.1,8.1-0.2,12.2-0.2c0.1,4.8,0.1,9.4,0.2,13.9
								C695,146,691.7,146,688.5,146.1"/>
							<path class="st1" d="M658.3,82.1c-1.1-5.4-2-10.9-2.9-16.5c6.6-0.9,13.2-1.6,19.8-2.1c0.5,5.8,1,11.4,1.6,16.9
								C670.6,80.8,664.4,81.4,658.3,82.1"/>
							<path class="st1" d="M662.1,99.3c-1.3-5.2-2.4-10.4-3.5-15.8c6.1-0.7,12.2-1.2,18.3-1.6c0.6,5.5,1.2,10.9,1.9,16.2
								C673.3,98.4,667.7,98.8,662.1,99.3"/>
							<path class="st1" d="M666.6,115.8c-1.5-4.9-2.8-9.9-4.1-15c5.5-0.5,11-0.9,16.6-1.2c0.7,5.2,1.4,10.4,2.3,15.4
								C676.4,115.1,671.5,115.4,666.6,115.8"/>
							<path class="st1" d="M671.7,131.5c-1.7-4.7-3.2-9.5-4.7-14.3c4.8-0.4,9.7-0.6,14.5-0.8c0.8,5,1.7,9.9,2.6,14.6
								C679.9,131.1,675.8,131.3,671.7,131.5"/>
							<path class="st1" d="M677.4,146.4c-1.8-4.4-3.6-9-5.3-13.6c4.1-0.2,8.1-0.4,12.2-0.5c0.9,4.7,1.9,9.3,2.9,13.8
								C684,146.2,680.7,146.3,677.4,146.4"/>
							<path class="st1" d="M707,161.3c1.1-4.2,2.2-8.6,3.2-13c3.1,0.1,6.3,0.2,9.4,0.3c-1.9,4.4-3.8,8.7-5.8,12.9
								C711.4,161.4,709.2,161.3,707,161.3"/>
							<path class="st1" d="M703.2,174.7c1.2-4,2.4-8,3.5-12.3c2.1,0,4.3,0.1,6.4,0.1c-2.1,4.2-4.2,8.2-6.4,12.2
								C705.5,174.7,704.3,174.7,703.2,174.7"/>
							<path class="st1" d="M699,187.3c1.3-3.7,2.6-7.5,3.8-11.5c1.1,0,2.1,0,3.2,0C703.8,179.8,701.4,183.6,699,187.3"/>
							<path class="st1" d="M699.4,161.2c0.1-4.2,0.1-8.6,0.1-13.1c3.1,0,6.3,0,9.4,0.1c-0.9,4.5-1.8,8.8-2.8,13
								C703.8,161.2,701.6,161.2,699.4,161.2"/>
							<path class="st1" d="M699.2,174.7c0.1-4,0.1-8.1,0.2-12.3c2.1,0,4.3,0,6.4,0c-1,4.2-2,8.3-3.1,12.3
								C701.5,174.7,700.4,174.7,699.2,174.7"/>
							<path class="st1" d="M699,187.3c0.1-3.7,0.1-7.5,0.2-11.5c1.1,0,2.1,0,3.2,0C701.3,179.8,700.2,183.6,699,187.3"/>
							<path class="st1" d="M691.8,161.3c-1-4.2-2-8.6-2.9-13c3.1-0.1,6.3-0.1,9.4-0.1c0.1,4.5,0.1,8.8,0.2,13.1
								C696.3,161.2,694,161.2,691.8,161.3"/>
							<path class="st1" d="M695.3,174.7c-1.1-4-2.2-8.1-3.2-12.3c2.2,0,4.3,0,6.4,0c0.1,4.2,0.2,8.3,0.2,12.3
								C697.6,174.7,696.4,174.7,695.3,174.7"/>
							<path class="st1" d="M699,187.3c-1.2-3.7-2.3-7.5-3.4-11.5c1.1,0,2.1,0,3.2,0C698.9,179.8,698.9,183.6,699,187.3"/>
							<path class="st1" d="M684.2,161.4c-2.1-4.2-4-8.5-5.9-12.9c3.1-0.1,6.3-0.2,9.4-0.3c1,4.5,2.1,8.8,3.2,13
								C688.7,161.3,686.5,161.4,684.2,161.4"/>
							<path class="st1" d="M691.3,174.7c-2.3-3.9-4.4-8-6.5-12.2c2.1-0.1,4.3-0.1,6.4-0.1c1.1,4.2,2.3,8.3,3.6,12.3
								C693.6,174.7,692.5,174.7,691.3,174.7"/>
							<path class="st1" d="M699,187.3c-2.4-3.7-4.8-7.5-7.1-11.5c1.1,0,2.1,0,3.2,0C696.4,179.8,697.7,183.6,699,187.3"/>
							<path class="st1" d="M626.6,30.4c-0.7-5.7-1.3-11.6-1.7-17.5c7.5-2.6,15-4.8,22.5-6.6c0.3,6.3,0.7,12.5,1.2,18.6
								C641.2,26.4,633.9,28.2,626.6,30.4"/>
							<path class="st1" d="M629.3,48.9c-1-5.5-1.9-11.2-2.6-16.9c7.3-2.2,14.6-4,21.9-5.5c0.5,6.1,1.1,12,1.8,17.9
								C643.4,45.6,636.4,47.1,629.3,48.9"/>
							<path class="st1" d="M633.1,66.8c-1.3-5.3-2.4-10.8-3.5-16.3c7-1.8,14-3.2,21-4.4c0.7,5.8,1.5,11.5,2.4,17.2
								C646.4,64.1,639.7,65.3,633.1,66.8"/>
							<path class="st1" d="M601.8,39.1c-0.9-5.2-1.7-10.5-2.3-15.9c7.5-3.5,15-6.6,22.5-9.3c0.5,5.9,1,11.6,1.8,17.3
								C616.4,33.6,609.1,36.2,601.8,39.1"/>
							<path class="st1" d="M605.5,56c-1.3-5.1-2.5-10.2-3.5-15.4c7.3-2.9,14.6-5.5,21.9-7.7c0.8,5.7,1.6,11.3,2.7,16.8
								C619.6,51.5,612.5,53.6,605.5,56"/>
							<path class="st1" d="M610.5,72.4c-1.7-4.9-3.3-9.9-4.6-15c7-2.3,14-4.4,21-6.2c1.1,5.5,2.3,10.9,3.6,16.2
								C623.8,68.8,617.1,70.5,610.5,72.4"/>
							<path class="st1" d="M577,50.4c-1.2-4.5-2.1-9.1-2.9-13.7c7.5-4.4,15-8.4,22.5-12c0.6,5.3,1.4,10.5,2.3,15.6
								C591.6,43.3,584.3,46.7,577,50.4"/>
							<path class="st1" d="M581.6,65.1c-1.7-4.5-3.1-8.9-4.3-13.5c7.3-3.6,14.6-6.9,21.9-9.9c1,5.1,2.2,10.2,3.6,15.2
								C595.7,59.4,588.7,62.1,581.6,65.1"/>
							<path class="st1" d="M587.9,79.6c-2.2-4.4-4.1-8.8-5.8-13.2c7-2.9,14-5.6,21-8c1.4,5,3,9.9,4.8,14.8
								C601.2,75.1,594.6,77.2,587.9,79.6"/>
							<g>
								<path class="st1" d="M552.2,64.2c-1.4-3.7-2.6-7.4-3.4-11.1c7.5-5.3,15-10.2,22.5-14.7c0.7,4.5,1.7,9,2.9,13.5
									C566.8,55.6,559.5,59.7,552.2,64.2"/>
							</g>
							<path class="st1" d="M557.8,76.3c-2-3.7-3.7-7.4-5.2-11.1c7.3-4.4,14.6-8.4,21.9-12.1c1.2,4.4,2.7,8.9,4.4,13.2
								C571.9,69.4,564.8,72.7,557.8,76.3"/>
							<path class="st1" d="M565.4,88.5c-2.6-3.7-4.9-7.4-7-11.1c7-3.5,14-6.8,21-9.8c1.8,4.4,3.7,8.7,5.9,13
								C578.7,83,572,85.6,565.4,88.5"/>
							<path class="st1" d="M638.1,85c-1.6-5.1-3.1-10.4-4.4-15.7c6.6-1.4,13.2-2.5,19.8-3.5c0.9,5.6,1.9,11,3.1,16.4
								C650.4,83,644.2,83.9,638.1,85"/>
							<path class="st1" d="M643.8,101.5c-1.9-4.9-3.7-9.9-5.3-15.1c6.1-1,12.2-1.9,18.3-2.6c1.1,5.3,2.4,10.6,3.7,15.7
								C654.9,100,649.4,100.7,643.8,101.5"/>
							<path class="st1" d="M650.5,117.3c-2.2-4.7-4.2-9.5-6.1-14.5c5.5-0.8,11-1.4,16.6-2c1.3,5.1,2.8,10.1,4.3,15
								C660.3,116.3,655.4,116.7,650.5,117.3"/>
							<path class="st1" d="M658.1,132.5c-2.5-4.5-4.8-9.1-7-13.9c4.8-0.5,9.7-1,14.5-1.3c1.5,4.9,3.2,9.6,4.9,14.3
								C666.4,131.8,662.2,132.1,658.1,132.5"/>
							<path class="st1" d="M666.7,147c-2.8-4.3-5.4-8.7-7.9-13.2c4.1-0.3,8.1-0.6,12.2-0.9c1.7,4.6,3.6,9.2,5.5,13.6
								C673.2,146.6,670,146.8,666.7,147"/>
							<path class="st1" d="M617.2,89.2c-2.1-4.8-4.1-9.6-5.9-14.5c6.6-1.8,13.2-3.4,19.8-4.9c1.4,5.3,2.9,10.5,4.6,15.6
								C629.5,86.5,623.4,87.8,617.2,89.2"/>
							<path class="st1" d="M624.9,104.6c-2.5-4.6-4.9-9.3-7.1-14c6.1-1.4,12.2-2.6,18.3-3.7c1.7,5.1,3.5,10.1,5.5,15
								C636.1,102.6,630.5,103.5,624.9,104.6"/>
							<path class="st1" d="M633.9,119.5c-2.9-4.5-5.7-9-8.3-13.6c5.5-1,11-1.9,16.6-2.7c2,4.9,4.1,9.7,6.4,14.4
								C643.7,118.1,638.8,118.7,633.9,119.5"/>
							<path class="st1" d="M644.1,133.9c-3.3-4.3-6.5-8.7-9.4-13.2c4.8-0.7,9.7-1.3,14.5-1.9c2.3,4.7,4.7,9.3,7.3,13.8
								C652.4,133,648.2,133.4,644.1,133.9"/>
							<path class="st1" d="M655.6,147.8c-3.7-4.2-7.3-8.4-10.6-12.7c4.1-0.5,8.1-0.9,12.2-1.2c2.6,4.5,5.3,8.9,8.2,13.2
								C662.2,147.2,658.9,147.5,655.6,147.8"/>
							<path class="st1" d="M596.4,94.7c-2.7-4.3-5.1-8.6-7.4-13c6.6-2.3,13.2-4.4,19.8-6.3c1.8,4.8,3.9,9.6,6.1,14.3
								C608.7,91.3,602.5,92.9,596.4,94.7"/>
							<path class="st1" d="M606,108.6c-3.2-4.2-6.2-8.5-8.9-12.7c6.1-1.8,12.2-3.3,18.3-4.8c2.2,4.7,4.7,9.3,7.3,13.9
								C617.2,106.1,611.6,107.3,606,108.6"/>
							<path class="st1" d="M617.3,122.3c-3.7-4.1-7.1-8.3-10.4-12.5c5.5-1.3,11-2.5,16.6-3.5c2.6,4.6,5.5,9,8.5,13.5
								C627,120.5,622.1,121.4,617.3,122.3"/>
							<path class="st1" d="M630.1,135.7c-4.2-4-8.1-8.1-11.8-12.2c4.8-0.9,9.7-1.7,14.5-2.4c3.1,4.4,6.3,8.8,9.7,13.1
								C638.4,134.5,634.2,135.1,630.1,135.7"/>
							<path class="st1" d="M644.6,148.8c-4.7-4-9.1-8-13.3-12c4.1-0.6,8.1-1.1,12.2-1.6c3.5,4.3,7.1,8.5,10.9,12.6
								C651.1,148.1,647.8,148.4,644.6,148.8"/>
							<path class="st1" d="M575.5,101.4c-3.2-3.7-6.2-7.4-8.9-11.1c6.6-2.8,13.2-5.3,19.8-7.7c2.3,4.3,4.8,8.6,7.6,12.8
								C587.8,97.2,581.7,99.2,575.5,101.4"/>
							<path class="st1" d="M587.1,113.6c-3.8-3.7-7.4-7.4-10.7-11.1c6.1-2.1,12.2-4.1,18.3-5.9c2.8,4.2,5.8,8.4,9.1,12.6
								C598.3,110.5,592.7,112,587.1,113.6"/>
							<path class="st1" d="M600.6,125.7c-4.4-3.7-8.6-7.4-12.5-11.1c5.5-1.5,11.1-3,16.6-4.3c3.3,4.2,6.8,8.3,10.6,12.3
								C610.4,123.6,605.5,124.6,600.6,125.7"/>
							<path class="st1" d="M616.1,137.9c-5-3.7-9.8-7.4-14.2-11.1c4.8-1.1,9.7-2.1,14.5-3c3.8,4.1,7.8,8.1,12.1,12.1
								C624.4,136.5,620.2,137.2,616.1,137.9"/>
							<path class="st1" d="M633.5,150.1c-5.6-3.7-10.9-7.4-16-11.1c4.1-0.7,8.1-1.3,12.2-1.9c4.3,4,8.9,8,13.6,11.9
								C640.1,149.3,636.8,149.6,633.5,150.1"/>
							<path class="st1" d="M676.9,161.7c-3.1-4.1-6-8.3-8.8-12.6c3.1-0.2,6.3-0.3,9.4-0.5c2,4.4,4,8.7,6.2,12.9
								C681.4,161.5,679.1,161.6,676.9,161.7"/>
							<path class="st1" d="M687.5,174.8c-3.4-3.9-6.6-7.9-9.7-12c2.1-0.1,4.3-0.1,6.4-0.2c2.2,4.2,4.4,8.2,6.8,12.2
								C689.8,174.8,688.6,174.8,687.5,174.8"/>
							<path class="st1" d="M699,187.3c-3.7-3.7-7.2-7.5-10.6-11.4c1.1,0,2.1,0,3.2,0C694,179.8,696.5,183.6,699,187.3"/>
							<path class="st1" d="M669.3,162c-4.1-4-8.1-8.1-11.9-12.2c3.1-0.3,6.3-0.5,9.4-0.7c2.9,4.3,6,8.5,9.2,12.6
								C673.8,161.8,671.6,161.9,669.3,162"/>
							<path class="st1" d="M683.5,174.9c-4.5-3.9-8.9-7.8-13-11.8c2.1-0.1,4.3-0.2,6.4-0.3c3.2,4.1,6.6,8.1,10.1,12
								C685.9,174.8,684.7,174.9,683.5,174.9"/>
							<path class="st1" d="M699,187.3c-4.9-3.7-9.7-7.5-14.2-11.3c1.1,0,2.1,0,3.2-0.1C691.5,179.8,695.2,183.6,699,187.3"/>
							<path class="st1" d="M661.8,162.4c-5.2-3.9-10.1-7.8-14.9-11.7c3.1-0.3,6.3-0.6,9.4-0.8c3.9,4.1,8,8.2,12.2,12.2
								C666.2,162.2,664,162.3,661.8,162.4"/>
							<path class="st1" d="M679.6,175c-5.7-3.8-11.1-7.6-16.4-11.5c2.2-0.1,4.3-0.2,6.4-0.4c4.3,4,8.8,7.9,13.4,11.8
								C681.9,174.9,680.8,175,679.6,175"/>
							<path class="st1" d="M699,187.3c-6.2-3.7-12.1-7.5-17.8-11.2c1.1,0,2.1-0.1,3.2-0.1C689.1,179.8,694,183.6,699,187.3"/>
							<path class="st1" d="M654.2,163c-6.2-3.7-12.2-7.4-17.9-11.1c3.1-0.4,6.3-0.7,9.4-1c4.9,3.9,9.9,7.8,15.2,11.7
								C658.7,162.6,656.4,162.8,654.2,163"/>
							<path class="st1" d="M675.6,175.1c-6.8-3.7-13.4-7.4-19.7-11.1c2.1-0.2,4.3-0.3,6.4-0.4c5.3,3.8,10.9,7.7,16.8,11.4
								C678,175.1,676.8,175.1,675.6,175.1"/>
							<path class="st1" d="M699,187.3c-7.4-3.7-14.6-7.4-21.5-11.1c1.1,0,2.1-0.1,3.2-0.1C686.6,179.8,692.7,183.6,699,187.3"/>
							<path class="st1" d="M823.9,51.8c1.2-4.5,2.2-8.9,2.9-13.5c7.5,4.5,15,9.4,22.5,14.7c-0.9,3.7-2,7.4-3.4,11.1
								C838.5,59.7,831.2,55.6,823.9,51.8"/>
							<path class="st1" d="M819.1,66.3c1.7-4.4,3.2-8.8,4.4-13.2c7.3,3.7,14.6,7.8,21.9,12.1c-1.5,3.7-3.2,7.4-5.2,11.1
								C833.2,72.7,826.2,69.4,819.1,66.3"/>
							<path class="st1" d="M812.7,80.5c2.2-4.3,4.2-8.6,6-13c7,3,14,6.3,21,9.8c-2,3.7-4.4,7.4-7,11.1
								C826,85.6,819.4,83,812.7,80.5"/>
							<path class="st1" d="M799.1,40.3c1-5.2,1.7-10.4,2.3-15.6c7.5,3.6,15,7.6,22.5,12c-0.7,4.6-1.7,9.2-2.9,13.7
								C813.8,46.7,806.4,43.3,799.1,40.3"/>
							<path class="st1" d="M795.3,56.9c1.4-5,2.6-10.1,3.5-15.2c7.3,3,14.6,6.3,21.9,9.9c-1.2,4.5-2.7,9-4.3,13.5
								C809.4,62.1,802.3,59.4,795.3,56.9"/>
							<path class="st1" d="M790.1,73.1c1.8-4.9,3.4-9.8,4.8-14.8c7,2.4,14,5.1,21,8c-1.7,4.4-3.6,8.9-5.8,13.2
								C803.5,77.2,796.8,75.1,790.1,73.1"/>
							<path class="st1" d="M774.3,31.3c0.7-5.7,1.3-11.5,1.8-17.3c7.5,2.7,15,5.8,22.5,9.3c-0.6,5.4-1.3,10.6-2.3,15.9
								C789,36.2,781.6,33.6,774.3,31.3"/>
							<path class="st1" d="M771.4,49.6c1-5.5,1.9-11.1,2.7-16.8c7.3,2.2,14.6,4.8,21.9,7.7c-1,5.2-2.1,10.3-3.5,15.4
								C785.5,53.6,778.5,51.5,771.4,49.6"/>
							<path class="st1" d="M767.6,67.3c1.3-5.3,2.5-10.7,3.6-16.2c7,1.8,14,3.9,21,6.2c-1.4,5.1-2.9,10-4.6,15
								C780.9,70.5,774.2,68.8,767.6,67.3"/>
							<path class="st1" d="M749.5,24.8c0.5-6.1,0.9-12.3,1.2-18.6c7.5,1.8,15,4,22.5,6.6c-0.4,5.9-1,11.8-1.7,17.5
								C764.2,28.2,756.8,26.4,749.5,24.8"/>
							<path class="st1" d="M747.6,44.4c0.7-5.8,1.3-11.8,1.8-17.9c7.3,1.5,14.6,3.3,21.9,5.5c-0.7,5.7-1.6,11.4-2.6,16.9
								C761.7,47.1,754.6,45.6,747.6,44.4"/>
							<path class="st1" d="M745,63.2c0.9-5.6,1.7-11.3,2.4-17.2c7,1.2,14,2.7,21,4.4c-1,5.5-2.2,11-3.5,16.3
								C758.3,65.3,751.7,64.1,745,63.2"/>
							<path class="st1" d="M804,95.4c2.8-4.2,5.3-8.5,7.6-12.8c6.6,2.3,13.2,4.9,19.8,7.7c-2.7,3.7-5.7,7.4-8.9,11.1
								C816.3,99.2,810.2,97.2,804,95.4"/>
							<path class="st1" d="M794.2,109.1c3.2-4.2,6.3-8.3,9.1-12.6c6.1,1.8,12.2,3.7,18.3,5.9c-3.3,3.7-6.9,7.4-10.7,11.1
								C805.4,112,799.8,110.5,794.2,109.1"/>
							<path class="st1" d="M782.7,122.6c3.8-4.1,7.3-8.2,10.6-12.3c5.5,1.3,11,2.8,16.6,4.3c-3.9,3.7-8,7.4-12.5,11.1
								C792.5,124.6,787.6,123.6,782.7,122.6"/>
							<path class="st1" d="M769.5,135.9c4.3-4,8.3-8.1,12.1-12.1c4.8,0.9,9.7,1.9,14.5,3c-4.5,3.7-9.2,7.4-14.2,11.1
								C777.8,137.2,773.7,136.5,769.5,135.9"/>
							<path class="st1" d="M754.7,148.9c4.8-3.9,9.3-7.9,13.6-11.9c4.1,0.6,8.1,1.2,12.2,1.9c-5.1,3.7-10.4,7.4-16,11.1
								C761.2,149.6,758,149.3,754.7,148.9"/>
							<path class="st1" d="M783.2,89.8c2.2-4.7,4.2-9.5,6.1-14.3c6.6,1.9,13.2,4,19.8,6.3c-2.2,4.4-4.7,8.7-7.4,13
								C795.5,92.9,789.4,91.3,783.2,89.8"/>
							<path class="st1" d="M775.3,105c2.6-4.6,5-9.2,7.3-13.9c6.1,1.4,12.2,3,18.3,4.8c-2.7,4.3-5.7,8.5-8.9,12.7
								C786.4,107.3,780.9,106.1,775.3,105"/>
							<path class="st1" d="M766.1,119.8c3-4.4,5.8-8.9,8.5-13.5c5.5,1,11,2.2,16.6,3.5c-3.2,4.2-6.7,8.4-10.3,12.5
								C775.9,121.4,771,120.5,766.1,119.8"/>
							<path class="st1" d="M755.5,134c3.4-4.3,6.6-8.6,9.7-13.1c4.8,0.7,9.7,1.5,14.5,2.4c-3.7,4.1-7.7,8.2-11.8,12.2
								C763.8,135.1,759.7,134.5,755.5,134"/>
							<path class="st1" d="M743.7,147.9c3.8-4.1,7.5-8.4,10.9-12.6c4,0.5,8.1,1,12.2,1.6c-4.2,4-8.6,8-13.3,12
								C750.2,148.4,746.9,148.1,743.7,147.9"/>
							<path class="st1" d="M762.3,85.4c1.7-5.1,3.2-10.3,4.6-15.6c6.6,1.4,13.2,3,19.8,4.9c-1.8,4.9-3.7,9.7-5.9,14.5
								C774.7,87.8,768.5,86.5,762.3,85.4"/>
							<path class="st1" d="M756.4,101.8c2-4.9,3.8-9.9,5.5-15c6.1,1.1,12.2,2.3,18.3,3.7c-2.2,4.7-4.5,9.4-7.1,14
								C767.6,103.5,762,102.6,756.4,101.8"/>
							<path class="st1" d="M749.5,117.5c2.3-4.7,4.4-9.5,6.4-14.4c5.5,0.8,11,1.7,16.6,2.7c-2.6,4.6-5.3,9.1-8.2,13.6
								C759.3,118.7,754.4,118.1,749.5,117.5"/>
							<path class="st1" d="M741.5,132.6c2.6-4.5,5-9.1,7.3-13.8c4.8,0.5,9.7,1.2,14.5,1.9c-3,4.5-6.1,8.8-9.4,13.2
								C749.8,133.4,745.7,133,741.5,132.6"/>
							<path class="st1" d="M732.6,147c2.9-4.3,5.6-8.7,8.2-13.2c4.1,0.3,8.1,0.7,12.2,1.2c-3.4,4.3-6.9,8.5-10.6,12.7
								C739.1,147.5,735.9,147.2,732.6,147"/>
							<path class="st1" d="M741.5,82.3c1.1-5.4,2.1-10.8,3.1-16.4c6.6,0.9,13.2,2.1,19.8,3.5c-1.3,5.3-2.8,10.5-4.4,15.7
								C753.8,83.9,747.6,83,741.5,82.3"/>
							<path class="st1" d="M737.5,99.5c1.3-5.1,2.5-10.4,3.7-15.7c6.1,0.7,12.2,1.6,18.3,2.6c-1.6,5.1-3.4,10.1-5.3,15.1
								C748.7,100.7,743.1,100,737.5,99.5"/>
							<path class="st1" d="M732.9,115.9c1.5-4.9,2.9-9.9,4.3-15c5.5,0.5,11,1.2,16.6,2c-1.9,4.9-4,9.7-6.1,14.5
								C742.7,116.7,737.8,116.3,732.9,115.9"/>
							<path class="st1" d="M727.5,131.6c1.7-4.7,3.4-9.4,4.9-14.3c4.8,0.4,9.7,0.8,14.5,1.3c-2.2,4.7-4.5,9.3-7,13.9
								C735.8,132.1,731.7,131.8,727.5,131.6"/>
							<path class="st1" d="M721.6,146.5c1.9-4.4,3.8-9,5.5-13.6c4.1,0.2,8.1,0.5,12.2,0.9c-2.5,4.5-5.1,8.9-7.9,13.2
								C728.1,146.8,724.8,146.6,721.6,146.5"/>
							<path class="st1" d="M737.1,162.5c5.3-3.9,10.4-7.7,15.2-11.7c3.1,0.3,6.3,0.7,9.4,1c-5.7,3.7-11.7,7.4-17.9,11.1
								C741.6,162.8,739.4,162.6,737.1,162.5"/>
							<path class="st1" d="M718.9,175c5.8-3.8,11.4-7.6,16.8-11.4c2.2,0.1,4.3,0.3,6.4,0.4c-6.3,3.7-12.9,7.4-19.7,11.1
								C721.2,175.1,720.1,175.1,718.9,175"/>
							<path class="st1" d="M699,187.3c6.3-3.7,12.4-7.5,18.3-11.2c1.1,0,2.1,0.1,3.2,0.1C713.6,179.9,706.5,183.6,699,187.3"/>
							<path class="st1" d="M729.6,162c4.3-4,8.3-8,12.2-12.2c3.1,0.3,6.3,0.5,9.4,0.8c-4.7,3.9-9.7,7.9-14.9,11.7
								C734.1,162.3,731.8,162.2,729.6,162"/>
							<path class="st1" d="M715,174.9c4.7-3.9,9.1-7.8,13.4-11.8c2.1,0.1,4.3,0.2,6.4,0.4c-5.2,3.9-10.7,7.7-16.4,11.5
								C717.3,175,716.1,174.9,715,174.9"/>
							<path class="st1" d="M699,187.3c5.1-3.7,10-7.5,14.7-11.3c1.1,0,2.1,0,3.2,0.1C711.2,179.8,705.2,183.6,699,187.3"/>
							<path class="st1" d="M722,161.7c3.2-4.1,6.3-8.3,9.2-12.6c3.1,0.2,6.2,0.4,9.4,0.7c-3.8,4.1-7.7,8.2-11.9,12.2
								C726.5,161.9,724.2,161.8,722,161.7"/>
							<path class="st1" d="M711,174.8c3.5-3.9,6.9-7.9,10.1-12c2.1,0.1,4.3,0.2,6.4,0.3c-4.2,4-8.5,7.9-13,11.8
								C713.3,174.9,712.2,174.8,711,174.8"/>
							<path class="st1" d="M699,187.3c3.8-3.7,7.5-7.5,11-11.4c1.1,0,2.1,0,3.2,0.1C708.7,179.8,703.9,183.6,699,187.3"/>
							<path class="st1" d="M714.4,161.4c2.1-4.2,4.2-8.5,6.2-12.9c3.1,0.1,6.2,0.3,9.4,0.5c-2.8,4.3-5.8,8.5-8.8,12.6
								C718.9,161.6,716.7,161.5,714.4,161.4"/>
							<path class="st1" d="M707.1,174.8c2.4-3.9,4.6-8,6.8-12.2c2.1,0.1,4.3,0.1,6.4,0.2c-3.1,4.1-6.3,8.1-9.7,12
								C709.4,174.8,708.2,174.8,707.1,174.8"/>
							<path class="st1" d="M699,187.3c2.6-3.7,5-7.5,7.4-11.4c1.1,0,2.1,0,3.2,0C706.2,179.8,702.7,183.6,699,187.3"/>
						</g>
					</g>
				</g>
				<g>
					<path class="st1" d="M461.6,214.1"/>
					<g>
						<g>
							<path class="st1" d="M488.1,206.4c-6.3-0.2-12.7-0.5-19.3-0.6c0.9-7.5,2.3-15,4-22.5c6.3,0.3,12.5,0.7,18.7,1.1
								C490,191.8,488.9,199.1,488.1,206.4"/>
							<path class="st1" d="M508.4,207.4c-6.1-0.3-12.2-0.6-18.5-0.9c0.8-7.3,1.9-14.6,3.3-21.9c6.1,0.5,12.1,1,17.9,1.7
								C509.9,193.3,509,200.4,508.4,207.4"/>
							<path class="st1" d="M527.8,208.7c-5.8-0.5-11.7-0.9-17.8-1.2c0.6-7,1.5-14,2.7-21c5.9,0.7,11.6,1.4,17.2,2.3
								C529,195.4,528.3,202.1,527.8,208.7"/>
							<path class="st1" d="M486.7,231.2c-6.4,0-12.9,0-19.6,0c0-7.5,0.5-15,1.3-22.5c6.6,0.1,13,0.3,19.3,0.5
								C487.1,216.6,486.8,223.9,486.7,231.2"/>
							<path class="st1" d="M507.3,231.3c-6.1,0-12.4,0-18.8,0c0-7.3,0.4-14.6,1.1-21.9c6.3,0.2,12.5,0.5,18.6,0.8
								C507.6,217.2,507.3,224.2,507.3,231.3"/>
							<path class="st1" d="M526.9,231.3c-5.9,0-11.8,0-18-0.1c0-7,0.3-14,0.9-21c6,0.3,12,0.7,17.8,1.1
								C527.2,218,527,224.7,526.9,231.3"/>
							<path class="st1" d="M487.9,256c-6.3,0.2-12.8,0.4-19.3,0.6c-0.8-7.5-1.3-15-1.4-22.5c6.6,0,13.2,0,19.6,0
								C486.8,241.4,487.2,248.7,487.9,256"/>
							<path class="st1" d="M508.2,255.1c-6.1,0.3-12.2,0.6-18.6,0.8c-0.7-7.3-1.1-14.6-1.1-21.9c6.4,0,12.6,0,18.8-0.1
								C507.3,241,507.6,248.1,508.2,255.1"/>
							<path class="st1" d="M527.7,253.9c-5.8,0.4-11.7,0.8-17.8,1.1c-0.6-7-0.9-14-0.9-21c6.1,0,12.1,0,18-0.1
								C527,240.6,527.2,247.2,527.7,253.9"/>
							<path class="st1" d="M491.6,280.8c-6.1,0.5-12.3,0.8-18.6,1.1c-1.7-7.5-3.1-15-4-22.5c6.5-0.2,13-0.4,19.3-0.6
								C489,266.2,490.1,273.5,491.6,280.8"/>
							<path class="st1" d="M511.2,279c-5.9,0.7-11.8,1.2-17.9,1.7c-1.4-7.3-2.6-14.6-3.3-21.9c6.3-0.3,12.4-0.6,18.5-1
								C509.1,264.9,510,271.9,511.2,279"/>
							<path class="st1" d="M530.1,276.5c-5.6,0.9-11.4,1.6-17.2,2.3c-1.2-7-2.1-14-2.7-21c6-0.4,11.9-0.8,17.7-1.3
								C528.4,263.1,529.1,269.8,530.1,276.5"/>
							<path class="st1" d="M547.6,210.5c-5.5-0.6-11.2-1.1-16.9-1.6c0.5-6.6,1.2-13.2,2.1-19.8c5.6,0.9,11.1,1.8,16.5,2.9
								C548.5,198.2,547.9,204.4,547.6,210.5"/>
							<path class="st1" d="M565.3,212.6c-5.3-0.7-10.7-1.3-16.2-1.9c0.4-6.1,0.9-12.2,1.6-18.3c5.4,1.1,10.6,2.2,15.8,3.5
								C565.9,201.4,565.5,207,565.3,212.6"/>
							<path class="st1" d="M582.1,215c-5-0.8-10.1-1.5-15.4-2.2c0.3-5.5,0.7-11,1.2-16.6c5.1,1.3,10.1,2.6,15.1,4.1
								C582.6,205.2,582.3,210.1,582.1,215"/>
							<path class="st1" d="M598.1,217.7c-4.8-0.9-9.6-1.7-14.6-2.5c0.2-4.8,0.5-9.7,0.8-14.5c4.9,1.5,9.7,3,14.4,4.7
								C598.4,209.5,598.2,213.6,598.1,217.7"/>
							<path class="st1" d="M613.3,220.8c-4.5-1-9.1-1.9-13.8-2.8c0.1-4.1,0.3-8.1,0.5-12.2c4.6,1.7,9.2,3.4,13.6,5.2
								C613.4,214.3,613.3,217.5,613.3,220.8"/>
							<path class="st1" d="M546.9,231.4c-5.6,0-11.3-0.1-17.1-0.1c0-6.6,0.3-13.2,0.7-19.8c5.8,0.4,11.4,0.9,17,1.4
								C547.1,219.1,546.9,225.2,546.9,231.4"/>
							<path class="st1" d="M564.8,231.5c-5.3,0-10.8-0.1-16.3-0.1c0-6.1,0.2-12.2,0.5-18.3c5.5,0.5,10.9,1.1,16.2,1.7
								C564.9,220.3,564.8,225.9,564.8,231.5"/>
							<path class="st1" d="M581.7,231.6c-5.1,0-10.2-0.1-15.5-0.1c0-5.5,0.1-11,0.4-16.6c5.3,0.6,10.4,1.3,15.4,2
								C581.8,221.8,581.8,226.7,581.7,231.6"/>
							<path class="st1" d="M597.9,231.7c-4.8,0-9.7-0.1-14.7-0.1c0-4.9,0.1-9.7,0.3-14.5c5,0.7,9.9,1.5,14.6,2.2
								C597.9,223.5,597.9,227.6,597.9,231.7"/>
							<path class="st1" d="M613.1,231.9c-4.5,0-9.2-0.1-13.9-0.1c0-4.1,0.1-8.1,0.2-12.2c4.7,0.8,9.4,1.6,13.9,2.5
								C613.2,225.3,613.1,228.6,613.1,231.9"/>
							<path class="st1" d="M547.4,252.3c-5.5,0.5-11.2,1-17,1.4c-0.4-6.6-0.7-13.2-0.7-19.8c5.8,0,11.5-0.1,17.1-0.1
								C546.9,239.9,547.1,246.1,547.4,252.3"/>
							<path class="st1" d="M565.2,250.4c-5.3,0.6-10.7,1.2-16.2,1.7c-0.3-6.1-0.5-12.2-0.5-18.3c5.6,0,11-0.1,16.3-0.1
								C564.8,239.2,564.9,244.8,565.2,250.4"/>
							<path class="st1" d="M582,248.2c-5,0.7-10.2,1.4-15.4,2c-0.2-5.5-0.4-11-0.4-16.6c5.3,0,10.5-0.1,15.5-0.1
								C581.8,238.4,581.9,243.3,582,248.2"/>
							<path class="st1" d="M598.1,245.7c-4.8,0.8-9.6,1.6-14.6,2.3c-0.2-4.8-0.3-9.7-0.3-14.5c5-0.1,9.9-0.1,14.7-0.2
								C597.9,237.5,597.9,241.6,598.1,245.7"/>
							<path class="st1" d="M613.2,242.9c-4.5,0.9-9.1,1.8-13.9,2.6c-0.1-4.1-0.2-8.1-0.2-12.2c4.8-0.1,9.4-0.1,13.9-0.2
								C613.1,236.4,613.2,239.7,613.2,242.9"/>
							<path class="st1" d="M549.2,273.1c-5.4,1.1-10.9,2-16.5,2.9c-0.9-6.6-1.6-13.2-2.1-19.8c5.8-0.5,11.4-1,16.9-1.6
								C548,260.8,548.5,267,549.2,273.1"/>
							<path class="st1" d="M566.5,269.3c-5.2,1.3-10.4,2.4-15.8,3.5c-0.7-6.1-1.2-12.2-1.6-18.3c5.5-0.6,10.9-1.2,16.2-1.9
								C565.6,258.1,566,263.7,566.5,269.3"/>
							<path class="st1" d="M583,264.8c-4.9,1.5-9.9,2.8-15,4.1c-0.5-5.5-0.9-11-1.2-16.6c5.2-0.7,10.4-1.4,15.4-2.3
								C582.3,255,582.6,259.9,583,264.8"/>
							<path class="st1" d="M598.7,259.7c-4.7,1.7-9.5,3.2-14.3,4.7c-0.4-4.8-0.6-9.7-0.8-14.5c5-0.8,9.9-1.7,14.6-2.6
								C598.2,251.5,598.4,255.6,598.7,259.7"/>
							<path class="st1" d="M613.6,254c-4.4,1.8-9,3.6-13.6,5.3c-0.2-4.1-0.4-8.1-0.5-12.2c4.7-0.9,9.3-1.9,13.8-2.9
								C613.3,247.4,613.4,250.7,613.6,254"/>
							<path class="st1" d="M628.5,224.4c-4.2-1.1-8.6-2.2-13-3.2c0.1-3.1,0.2-6.3,0.3-9.4c4.4,1.9,8.7,3.8,12.9,5.8
								C628.5,220,628.5,222.2,628.5,224.4"/>
							<path class="st1" d="M641.9,228.2c-4-1.2-8-2.4-12.3-3.5c0-2.1,0.1-4.3,0.1-6.4c4.2,2.1,8.2,4.2,12.2,6.4
								C641.9,225.9,641.9,227.1,641.9,228.2"/>
							<path class="st1" d="M654.5,232.4c-3.7-1.3-7.5-2.6-11.5-3.8c0-1.1,0-2.1,0-3.2C646.9,227.6,650.8,230,654.5,232.4"/>
							<path class="st1" d="M628.4,232c-4.2-0.1-8.6-0.1-13.1-0.1c0-3.1,0-6.3,0.1-9.4c4.5,0.9,8.8,1.8,13,2.8
								C628.4,227.6,628.4,229.8,628.4,232"/>
							<path class="st1" d="M641.9,232.2c-4-0.1-8.1-0.1-12.3-0.2c0-2.1,0-4.3,0-6.4c4.2,1,8.3,2,12.3,3.1
								C641.9,229.9,641.9,231,641.9,232.2"/>
							<path class="st1" d="M654.5,232.4c-3.7-0.1-7.5-0.1-11.5-0.2c0-1.1,0-2.1,0-3.2C646.9,230.1,650.8,231.2,654.5,232.4"/>
							<path class="st1" d="M628.4,239.6c-4.2,1-8.6,2-13,2.9c-0.1-3.1-0.1-6.3-0.1-9.4c4.5-0.1,8.8-0.1,13.1-0.2
								C628.4,235.1,628.4,237.4,628.4,239.6"/>
							<path class="st1" d="M641.9,236.1c-4,1.1-8.1,2.2-12.3,3.2c0-2.2,0-4.3,0-6.4c4.2-0.1,8.3-0.2,12.3-0.2
								C641.9,233.8,641.9,235,641.9,236.1"/>
							<path class="st1" d="M654.5,232.4c-3.7,1.2-7.5,2.3-11.5,3.4c0-1.1,0-2.1,0-3.2C646.9,232.5,650.8,232.5,654.5,232.4"/>
							<path class="st1" d="M628.6,247.2c-4.2,2.1-8.5,4-12.9,5.9c-0.1-3.1-0.2-6.3-0.3-9.4c4.5-1,8.8-2.1,13-3.2
								C628.5,242.7,628.5,244.9,628.6,247.2"/>
							<path class="st1" d="M641.9,240.1c-3.9,2.3-8,4.4-12.2,6.5c-0.1-2.1-0.1-4.3-0.1-6.4c4.2-1.1,8.3-2.3,12.3-3.6
								C641.9,237.8,641.9,238.9,641.9,240.1"/>
							<path class="st1" d="M654.5,232.4c-3.7,2.4-7.5,4.8-11.5,7.1c0-1.1,0-2.1,0-3.2C646.9,235,650.8,233.7,654.5,232.4"/>
							<path class="st1" d="M497.6,304.8c-5.7,0.7-11.6,1.3-17.5,1.7c-2.6-7.5-4.8-15-6.6-22.5c6.3-0.3,12.5-0.7,18.6-1.2
								C493.5,290.2,495.4,297.5,497.6,304.8"/>
							<path class="st1" d="M516.1,302.1c-5.5,1-11.2,1.9-16.9,2.6c-2.2-7.3-4-14.6-5.5-21.9c6.1-0.5,12-1.1,17.9-1.8
								C512.8,288,514.3,295,516.1,302.1"/>
							<path class="st1" d="M533.9,298.3c-5.3,1.3-10.8,2.4-16.3,3.5c-1.8-7-3.2-14-4.4-21c5.8-0.7,11.5-1.5,17.2-2.4
								C531.3,285,532.5,291.7,533.9,298.3"/>
							<path class="st1" d="M506.3,329.6c-5.2,0.9-10.5,1.7-15.9,2.3c-3.5-7.5-6.6-15-9.3-22.5c5.9-0.5,11.6-1,17.3-1.8
								C500.7,315,503.4,322.3,506.3,329.6"/>
							<path class="st1" d="M523.1,325.9c-5.1,1.3-10.2,2.5-15.4,3.5c-2.9-7.3-5.5-14.6-7.7-21.9c5.7-0.8,11.3-1.6,16.8-2.7
								C518.6,311.8,520.8,318.9,523.1,325.9"/>
							<path class="st1" d="M539.5,320.9c-4.9,1.7-9.9,3.3-15,4.6c-2.3-7-4.4-14-6.2-21c5.5-1.1,10.9-2.3,16.2-3.6
								C535.9,307.6,537.6,314.3,539.5,320.9"/>
							<path class="st1" d="M517.5,354.4c-4.5,1.2-9.1,2.1-13.7,2.9c-4.4-7.5-8.4-15-12-22.5c5.3-0.6,10.5-1.4,15.6-2.3
								C510.5,339.8,513.8,347.1,517.5,354.4"/>
							<path class="st1" d="M532.3,349.8c-4.5,1.7-8.9,3.1-13.5,4.3c-3.6-7.3-6.9-14.6-9.9-21.9c5.1-1,10.2-2.2,15.2-3.6
								C526.6,335.7,529.3,342.7,532.3,349.8"/>
							<path class="st1" d="M546.8,343.5c-4.4,2.2-8.8,4.1-13.2,5.8c-2.9-7-5.6-14-8-21c5-1.4,9.9-3,14.8-4.8
								C542.2,330.2,544.4,336.8,546.8,343.5"/>
							<g>
								<path class="st1" d="M531.3,379.2c-3.7,1.4-7.4,2.6-11.1,3.4c-5.3-7.5-10.2-15-14.7-22.5c4.5-0.7,9-1.7,13.5-2.9
									C522.8,364.6,526.9,371.9,531.3,379.2"/>
							</g>
							<path class="st1" d="M543.5,373.6c-3.7,2-7.4,3.7-11.1,5.2c-4.4-7.3-8.4-14.6-12.1-21.9c4.4-1.2,8.9-2.7,13.2-4.4
								C536.5,359.5,539.9,366.6,543.5,373.6"/>
							<path class="st1" d="M555.7,366c-3.7,2.6-7.4,4.9-11.1,7c-3.5-7-6.8-14-9.8-21c4.4-1.8,8.7-3.7,13-5.9
								C550.1,352.7,552.8,359.4,555.7,366"/>
							<path class="st1" d="M552.2,293.3c-5.1,1.6-10.4,3.1-15.7,4.4c-1.4-6.6-2.5-13.2-3.5-19.8c5.6-0.9,11-1.9,16.4-3.1
								C550.2,281,551.1,287.2,552.2,293.3"/>
							<path class="st1" d="M568.6,287.6c-4.9,1.9-9.9,3.7-15.1,5.3c-1-6.1-1.9-12.2-2.6-18.3c5.3-1.1,10.6-2.4,15.7-3.7
								C567.2,276.5,567.9,282,568.6,287.6"/>
							<path class="st1" d="M584.5,280.9c-4.7,2.2-9.5,4.2-14.5,6.1c-0.8-5.5-1.4-11-2-16.6c5.1-1.3,10.1-2.8,15-4.3
								C583.4,271.1,583.9,276,584.5,280.9"/>
							<path class="st1" d="M599.6,273.3c-4.5,2.5-9.1,4.8-13.9,7c-0.5-4.8-1-9.7-1.3-14.5c4.9-1.5,9.6-3.2,14.3-4.9
								C599,265,599.3,269.2,599.6,273.3"/>
							<path class="st1" d="M614.1,264.7c-4.3,2.8-8.7,5.4-13.2,7.9c-0.3-4.1-0.6-8.1-0.9-12.2c4.6-1.7,9.2-3.6,13.6-5.5
								C613.8,258.2,613.9,261.4,614.1,264.7"/>
							<path class="st1" d="M556.4,314.2c-4.8,2.1-9.6,4.1-14.5,5.9c-1.8-6.6-3.4-13.2-4.9-19.8c5.3-1.4,10.5-2.9,15.6-4.6
								C553.7,301.9,555,308,556.4,314.2"/>
							<path class="st1" d="M571.8,306.5c-4.6,2.5-9.3,4.9-14,7.1c-1.4-6.1-2.6-12.2-3.7-18.3c5.1-1.7,10.1-3.5,15-5.5
								C569.8,295.3,570.7,300.9,571.8,306.5"/>
							<path class="st1" d="M586.6,297.5c-4.5,2.9-9,5.7-13.6,8.3c-1-5.5-1.9-11-2.7-16.6c4.9-2,9.7-4.1,14.4-6.4
								C585.2,287.7,585.9,292.6,586.6,297.5"/>
							<path class="st1" d="M601,287.3c-4.3,3.3-8.7,6.5-13.2,9.4c-0.7-4.8-1.3-9.7-1.9-14.5c4.7-2.3,9.3-4.7,13.8-7.3
								C600.1,279,600.6,283.2,601,287.3"/>
							<path class="st1" d="M614.9,275.8c-4.2,3.7-8.4,7.3-12.7,10.6c-0.5-4.1-0.9-8.1-1.2-12.2c4.5-2.6,8.9-5.3,13.2-8.2
								C614.4,269.2,614.7,272.5,614.9,275.8"/>
							<path class="st1" d="M561.9,335c-4.3,2.7-8.6,5.1-13,7.4c-2.3-6.6-4.4-13.2-6.3-19.8c4.8-1.8,9.6-3.9,14.3-6.1
								C558.4,322.7,560.1,328.9,561.9,335"/>
							<path class="st1" d="M575.8,325.4c-4.2,3.2-8.5,6.2-12.7,8.9c-1.8-6.1-3.3-12.2-4.8-18.3c4.7-2.2,9.3-4.7,13.9-7.3
								C573.3,314.2,574.5,319.8,575.8,325.4"/>
							<path class="st1" d="M589.4,314.1c-4.1,3.7-8.3,7.1-12.5,10.4c-1.3-5.5-2.5-11-3.5-16.6c4.6-2.6,9-5.5,13.5-8.5
								C587.7,304.3,588.5,309.3,589.4,314.1"/>
							<path class="st1" d="M602.8,301.3c-4,4.2-8.1,8.1-12.2,11.8c-0.9-4.8-1.7-9.7-2.4-14.5c4.4-3.1,8.8-6.3,13.1-9.7
								C601.7,293,602.2,297.2,602.8,301.3"/>
							<path class="st1" d="M616,286.8c-4,4.7-8,9.1-12,13.3c-0.6-4.1-1.1-8.1-1.6-12.2c4.3-3.5,8.5-7.1,12.6-10.9
								C615.3,280.3,615.6,283.5,616,286.8"/>
							<path class="st1" d="M568.6,355.9c-3.7,3.2-7.4,6.2-11.1,8.9c-2.8-6.6-5.3-13.2-7.7-19.8c4.3-2.3,8.6-4.8,12.8-7.6
								C564.4,343.6,566.4,349.7,568.6,355.9"/>
							<path class="st1" d="M580.7,344.3c-3.7,3.8-7.4,7.4-11.1,10.7c-2.1-6.1-4.1-12.2-5.9-18.3c4.2-2.8,8.4-5.8,12.6-9.1
								C577.7,333.1,579.1,338.7,580.7,344.3"/>
							<path class="st1" d="M592.9,330.8c-3.7,4.4-7.4,8.6-11.1,12.5c-1.5-5.5-3-11.1-4.3-16.6c4.2-3.3,8.3-6.8,12.3-10.6
								C590.8,321,591.8,325.9,592.9,330.8"/>
							<path class="st1" d="M605.1,315.3c-3.7,5-7.4,9.8-11.1,14.2c-1.1-4.8-2.1-9.7-3-14.5c4.1-3.8,8.1-7.8,12.1-12.1
								C603.7,307,604.3,311.2,605.1,315.3"/>
							<path class="st1" d="M617.2,297.9c-3.7,5.6-7.4,10.9-11.1,16c-0.7-4.1-1.3-8.1-1.9-12.2c4-4.3,8-8.9,11.9-13.6
								C616.4,291.3,616.8,294.6,617.2,297.9"/>
							<path class="st1" d="M628.8,254.5c-4.1,3.1-8.3,6-12.6,8.8c-0.2-3.1-0.3-6.3-0.5-9.4c4.4-2,8.7-4,12.9-6.2
								C628.7,250,628.7,252.3,628.8,254.5"/>
							<path class="st1" d="M642,243.9c-3.9,3.4-7.9,6.6-12,9.7c-0.1-2.1-0.1-4.3-0.2-6.4c4.2-2.2,8.2-4.4,12.2-6.8
								C641.9,241.6,642,242.7,642,243.9"/>
							<path class="st1" d="M654.5,232.4c-3.7,3.7-7.5,7.2-11.4,10.6c0-1.1,0-2.1,0-3.2C646.9,237.4,650.8,234.9,654.5,232.4"/>
							<path class="st1" d="M629.2,262.1c-4,4.1-8.1,8.1-12.2,11.9c-0.3-3.1-0.5-6.3-0.7-9.4c4.3-2.9,8.5-6,12.6-9.2
								C628.9,257.6,629,259.8,629.2,262.1"/>
							<path class="st1" d="M642.1,247.9c-3.9,4.5-7.8,8.9-11.8,13c-0.1-2.1-0.2-4.3-0.3-6.4c4.1-3.2,8.1-6.6,12-10.1
								C642,245.5,642,246.7,642.1,247.9"/>
							<path class="st1" d="M654.5,232.4c-3.7,4.9-7.5,9.7-11.3,14.2c0-1.1,0-2.1-0.1-3.2C647,239.9,650.8,236.2,654.5,232.4"/>
							<path class="st1" d="M629.6,269.6c-3.9,5.2-7.8,10.1-11.7,14.9c-0.3-3.1-0.6-6.3-0.8-9.4c4.1-3.9,8.2-8,12.2-12.2
								C629.3,265.2,629.5,267.4,629.6,269.6"/>
							<path class="st1" d="M642.2,251.8c-3.8,5.7-7.6,11.1-11.5,16.4c-0.1-2.2-0.2-4.3-0.4-6.4c4-4.3,7.9-8.8,11.8-13.4
								C642.1,249.5,642.1,250.6,642.2,251.8"/>
							<path class="st1" d="M654.5,232.4c-3.7,6.2-7.5,12.1-11.2,17.8c0-1.1-0.1-2.1-0.1-3.2C647,242.3,650.8,237.4,654.5,232.4"/>
							<path class="st1" d="M630.1,277.2c-3.7,6.2-7.4,12.2-11.1,17.9c-0.4-3.1-0.7-6.3-1-9.4c3.9-4.9,7.8-9.9,11.7-15.2
								C629.8,272.7,630,275,630.1,277.2"/>
							<path class="st1" d="M642.3,255.8c-3.7,6.8-7.4,13.4-11.1,19.7c-0.2-2.1-0.3-4.3-0.4-6.4c3.8-5.3,7.7-10.9,11.4-16.8
								C642.2,253.4,642.3,254.6,642.3,255.8"/>
							<path class="st1" d="M654.5,232.4c-3.7,7.4-7.4,14.6-11.1,21.5c0-1.1-0.1-2.1-0.1-3.2C647,244.8,650.8,238.7,654.5,232.4"/>
							<path class="st1" d="M519,107.5c-4.5-1.2-8.9-2.2-13.5-2.9c4.5-7.5,9.4-15,14.7-22.5c3.7,0.9,7.4,2,11.1,3.4
								C526.9,92.9,522.8,100.2,519,107.5"/>
							<path class="st1" d="M533.5,112.3c-4.4-1.7-8.8-3.2-13.2-4.4c3.7-7.3,7.8-14.6,12.1-21.9c3.7,1.5,7.4,3.2,11.1,5.2
								C539.9,98.2,536.5,105.2,533.5,112.3"/>
							<path class="st1" d="M547.7,118.7c-4.3-2.2-8.6-4.2-13-6c3-7,6.3-14,9.8-21c3.7,2,7.4,4.4,11.1,7
								C552.8,105.4,550.1,112,547.7,118.7"/>
							<path class="st1" d="M507.5,132.3c-5.2-1-10.4-1.7-15.6-2.3c3.6-7.5,7.6-15,12-22.5c4.6,0.7,9.2,1.7,13.7,2.9
								C513.8,117.6,510.5,125,507.5,132.3"/>
							<path class="st1" d="M524.1,136.1c-5-1.4-10.1-2.6-15.2-3.5c3-7.3,6.3-14.6,9.9-21.9c4.5,1.2,9,2.7,13.5,4.3
								C529.3,122,526.6,129.1,524.1,136.1"/>
							<path class="st1" d="M540.3,141.3c-4.9-1.8-9.8-3.4-14.8-4.8c2.4-7,5.1-14,8-21c4.4,1.7,8.9,3.6,13.2,5.8
								C544.4,127.9,542.2,134.6,540.3,141.3"/>
							<path class="st1" d="M498.5,157.1c-5.7-0.7-11.5-1.3-17.3-1.8c2.7-7.5,5.8-15,9.3-22.5c5.4,0.6,10.6,1.3,15.9,2.3
								C503.4,142.4,500.7,149.8,498.5,157.1"/>
							<path class="st1" d="M516.8,160c-5.5-1-11.1-1.9-16.8-2.7c2.2-7.3,4.8-14.6,7.7-21.9c5.2,1,10.3,2.1,15.4,3.5
								C520.8,145.9,518.6,152.9,516.8,160"/>
							<path class="st1" d="M534.5,163.8c-5.3-1.3-10.7-2.5-16.2-3.6c1.8-7,3.9-14,6.2-21c5.1,1.4,10,2.9,15,4.6
								C537.6,150.5,535.9,157.2,534.5,163.8"/>
							<path class="st1" d="M492,181.9c-6.1-0.5-12.3-0.9-18.6-1.2c1.8-7.5,4-15,6.6-22.5c5.9,0.4,11.8,1,17.5,1.7
								C495.4,167.2,493.5,174.6,492,181.9"/>
							<path class="st1" d="M511.6,183.8c-5.8-0.7-11.8-1.3-17.9-1.8c1.5-7.3,3.3-14.6,5.5-21.9c5.7,0.7,11.4,1.6,16.9,2.6
								C514.3,169.7,512.8,176.8,511.6,183.8"/>
							<path class="st1" d="M530.3,186.4c-5.6-0.9-11.3-1.7-17.2-2.4c1.2-7,2.7-14,4.4-21c5.5,1,11,2.2,16.3,3.5
								C532.5,173.1,531.3,179.7,530.3,186.4"/>
							<path class="st1" d="M562.6,127.4c-4.2-2.8-8.5-5.3-12.8-7.6c2.3-6.6,4.9-13.2,7.7-19.8c3.7,2.7,7.4,5.7,11.1,8.9
								C566.4,115.1,564.4,121.2,562.6,127.4"/>
							<path class="st1" d="M576.3,137.2c-4.2-3.2-8.3-6.3-12.6-9.1c1.8-6.1,3.7-12.2,5.9-18.3c3.7,3.3,7.4,6.9,11.1,10.7
								C579.1,126,577.7,131.6,576.3,137.2"/>
							<path class="st1" d="M589.8,148.7c-4.1-3.8-8.2-7.3-12.3-10.6c1.3-5.5,2.8-11,4.3-16.6c3.7,3.9,7.4,8,11.1,12.5
								C591.8,138.9,590.8,143.8,589.8,148.7"/>
							<path class="st1" d="M603.1,161.9c-4-4.3-8.1-8.3-12.1-12.1c0.9-4.8,1.9-9.7,3-14.5c3.7,4.5,7.4,9.2,11.1,14.2
								C604.3,153.6,603.7,157.7,603.1,161.9"/>
							<path class="st1" d="M616.1,176.7c-3.9-4.8-7.9-9.3-11.9-13.6c0.6-4.1,1.2-8.1,1.9-12.2c3.7,5.1,7.4,10.4,11.1,16
								C616.8,170.1,616.4,173.4,616.1,176.7"/>
							<path class="st1" d="M557,148.2c-4.7-2.2-9.5-4.2-14.3-6.1c1.9-6.6,4-13.2,6.3-19.8c4.4,2.2,8.7,4.7,13,7.4
								C560.1,135.9,558.4,142,557,148.2"/>
							<path class="st1" d="M572.2,156.1c-4.6-2.6-9.2-5-13.9-7.3c1.4-6.1,3-12.2,4.8-18.3c4.3,2.7,8.5,5.7,12.7,8.9
								C574.5,144.9,573.3,150.5,572.2,156.1"/>
							<path class="st1" d="M586.9,165.3c-4.4-3-8.9-5.8-13.5-8.5c1-5.5,2.2-11,3.5-16.6c4.2,3.2,8.4,6.7,12.5,10.3
								C588.5,155.5,587.7,160.4,586.9,165.3"/>
							<path class="st1" d="M601.2,175.9c-4.3-3.4-8.6-6.6-13.1-9.7c0.7-4.8,1.5-9.7,2.4-14.5c4.1,3.7,8.2,7.7,12.2,11.8
								C602.2,167.6,601.7,171.7,601.2,175.9"/>
							<path class="st1" d="M615,187.7c-4.1-3.8-8.4-7.5-12.6-10.9c0.5-4,1-8.1,1.6-12.2c4,4.2,8,8.6,12,13.3
								C615.6,181.2,615.3,184.5,615,187.7"/>
							<path class="st1" d="M552.6,169.1c-5.1-1.7-10.3-3.2-15.6-4.6c1.4-6.6,3-13.2,4.9-19.8c4.9,1.8,9.7,3.7,14.5,5.9
								C555,156.7,553.7,162.9,552.6,169.1"/>
							<path class="st1" d="M569,175c-4.9-2-9.9-3.8-15-5.5c1.1-6.1,2.3-12.2,3.7-18.3c4.7,2.2,9.4,4.5,14,7.1
								C570.7,163.8,569.8,169.4,569,175"/>
							<path class="st1" d="M584.7,181.9c-4.7-2.3-9.5-4.4-14.4-6.4c0.8-5.5,1.7-11,2.7-16.6c4.6,2.6,9.1,5.3,13.6,8.2
								C585.9,172.1,585.2,177,584.7,181.9"/>
							<path class="st1" d="M599.8,189.9c-4.5-2.6-9.1-5-13.8-7.3c0.5-4.8,1.2-9.7,1.9-14.5c4.5,3,8.8,6.1,13.2,9.4
								C600.6,181.6,600.1,185.7,599.8,189.9"/>
							<path class="st1" d="M614.2,198.8c-4.3-2.9-8.7-5.6-13.2-8.2c0.3-4.1,0.7-8.1,1.2-12.2c4.3,3.4,8.5,6.9,12.7,10.6
								C614.7,192.3,614.4,195.5,614.2,198.8"/>
							<path class="st1" d="M549.4,189.9c-5.4-1.1-10.8-2.1-16.4-3.1c0.9-6.6,2.1-13.2,3.5-19.8c5.3,1.3,10.5,2.8,15.7,4.4
								C551.1,177.6,550.2,183.8,549.4,189.9"/>
							<path class="st1" d="M566.6,193.9c-5.1-1.3-10.4-2.5-15.7-3.7c0.7-6.1,1.6-12.2,2.6-18.3c5.1,1.6,10.1,3.4,15.1,5.3
								C567.9,182.7,567.2,188.3,566.6,193.9"/>
							<path class="st1" d="M583.1,198.5c-4.9-1.5-9.9-2.9-15-4.3c0.5-5.5,1.2-11,2-16.6c4.9,1.9,9.7,4,14.5,6.1
								C583.9,188.7,583.4,193.6,583.1,198.5"/>
							<path class="st1" d="M598.7,203.9c-4.7-1.7-9.4-3.4-14.3-4.9c0.4-4.8,0.8-9.7,1.3-14.5c4.7,2.2,9.3,4.5,13.9,7
								C599.3,195.6,599,199.7,598.7,203.9"/>
							<path class="st1" d="M613.6,209.8c-4.4-1.9-9-3.8-13.6-5.5c0.2-4.1,0.5-8.1,0.9-12.2c4.5,2.5,8.9,5.1,13.2,7.9
								C613.9,203.3,613.8,206.6,613.6,209.8"/>
							<path class="st1" d="M629.7,194.2c-3.9-5.3-7.7-10.4-11.7-15.2c0.3-3.1,0.7-6.3,1-9.4c3.7,5.7,7.4,11.7,11.1,17.9
								C630,189.8,629.8,192,629.7,194.2"/>
							<path class="st1" d="M642.2,212.5c-3.8-5.8-7.6-11.4-11.4-16.8c0.1-2.2,0.3-4.3,0.4-6.4c3.7,6.3,7.4,12.9,11.1,19.7
								C642.3,210.1,642.2,211.3,642.2,212.5"/>
							<path class="st1" d="M654.5,232.4c-3.7-6.3-7.5-12.4-11.2-18.3c0-1.1,0.1-2.1,0.1-3.2C647,217.8,650.8,224.9,654.5,232.4"/>
							<path class="st1" d="M629.2,201.8c-4-4.3-8-8.3-12.2-12.2c0.3-3.1,0.5-6.3,0.8-9.4c3.9,4.7,7.9,9.7,11.7,14.9
								C629.5,197.3,629.3,199.6,629.2,201.8"/>
							<path class="st1" d="M642.1,216.4c-3.9-4.7-7.8-9.1-11.8-13.4c0.1-2.1,0.2-4.3,0.4-6.4c3.9,5.2,7.7,10.7,11.5,16.4
								C642.1,214.1,642.1,215.3,642.1,216.4"/>
							<path class="st1" d="M654.5,232.4c-3.7-5.1-7.5-10-11.3-14.7c0-1.1,0-2.1,0.1-3.2C647,220.2,650.8,226.2,654.5,232.4"/>
							<path class="st1" d="M628.9,209.4c-4.1-3.2-8.3-6.3-12.6-9.2c0.2-3.1,0.4-6.2,0.7-9.4c4.1,3.8,8.2,7.7,12.2,11.9
								C629,204.9,628.9,207.2,628.9,209.4"/>
							<path class="st1" d="M642,220.4c-3.9-3.5-7.9-6.9-12-10.1c0.1-2.1,0.2-4.3,0.3-6.4c4,4.2,7.9,8.5,11.8,13
								C642,218.1,642,219.2,642,220.4"/>
							<path class="st1" d="M654.5,232.4c-3.7-3.8-7.5-7.5-11.4-11c0-1.1,0-2.1,0.1-3.2C647,222.7,650.8,227.5,654.5,232.4"/>
							<path class="st1" d="M628.6,217c-4.2-2.1-8.5-4.2-12.9-6.2c0.1-3.1,0.3-6.2,0.5-9.4c4.3,2.8,8.5,5.8,12.6,8.8
								C628.7,212.5,628.7,214.7,628.6,217"/>
							<path class="st1" d="M641.9,224.3c-3.9-2.4-8-4.6-12.2-6.8c0.1-2.1,0.1-4.3,0.2-6.4c4.1,3.1,8.1,6.3,12,9.7
								C642,222,641.9,223.2,641.9,224.3"/>
							<path class="st1" d="M654.5,232.4c-3.7-2.6-7.5-5-11.4-7.4c0-1.1,0-2.1,0-3.2C646.9,225.2,650.8,228.7,654.5,232.4"/>
						</g>
					</g>
				</g>
				<g>
					<path class="st1" d="M681.3,469.8"/>
					<g>
						<g>
							<path class="st1" d="M673.6,443.3c-0.2,6.3-0.5,12.7-0.6,19.3c-7.5-0.9-15-2.3-22.5-4c0.3-6.3,0.7-12.5,1.1-18.7
								C658.9,441.4,666.3,442.5,673.6,443.3"/>
							<path class="st1" d="M674.6,423c-0.3,6.1-0.6,12.2-0.9,18.5c-7.3-0.8-14.6-1.9-21.9-3.3c0.5-6.1,1-12.1,1.7-17.9
								C660.5,421.5,667.5,422.4,674.6,423"/>
							<path class="st1" d="M675.9,403.6c-0.5,5.8-0.9,11.7-1.2,17.8c-7-0.6-14-1.5-21-2.7c0.7-5.9,1.4-11.6,2.3-17.2
								C662.6,402.3,669.3,403.1,675.9,403.6"/>
							<path class="st1" d="M698.4,444.7c0,6.4,0,12.9,0,19.6c-7.5,0-15-0.5-22.5-1.3c0.1-6.6,0.3-13,0.5-19.3
								C683.8,444.3,691.1,444.6,698.4,444.7"/>
							<path class="st1" d="M698.4,424.1c0,6.1,0,12.4,0,18.8c-7.3,0-14.6-0.4-21.9-1.1c0.2-6.3,0.5-12.5,0.8-18.6
								C684.4,423.8,691.4,424.1,698.4,424.1"/>
							<path class="st1" d="M698.5,404.5c0,5.9,0,11.8-0.1,18c-7,0-14-0.3-21-0.9c0.3-6,0.7-12,1.1-17.8
								C685.2,404.2,691.8,404.4,698.5,404.5"/>
							<path class="st1" d="M723.2,443.5c0.2,6.3,0.4,12.8,0.6,19.3c-7.5,0.8-15,1.3-22.5,1.4c0-6.6,0-13.2,0-19.6
								C708.5,444.6,715.9,444.2,723.2,443.5"/>
							<path class="st1" d="M722.3,423.2c0.3,6.1,0.6,12.2,0.8,18.6c-7.3,0.7-14.6,1.1-21.9,1.1c0-6.4,0-12.6-0.1-18.8
								C708.2,424.1,715.2,423.8,722.3,423.2"/>
							<path class="st1" d="M721.1,403.7c0.4,5.8,0.8,11.7,1.1,17.8c-7,0.6-14,0.9-21,0.9c0-6.1,0-12.1-0.1-18
								C707.7,404.4,714.4,404.2,721.1,403.7"/>
							<path class="st1" d="M748,439.8c0.5,6.1,0.8,12.3,1.1,18.6c-7.5,1.7-15,3.1-22.5,4c-0.2-6.5-0.4-13-0.6-19.3
								C733.3,442.4,740.7,441.3,748,439.8"/>
							<path class="st1" d="M746.1,420.2c0.7,5.9,1.2,11.8,1.7,17.9c-7.3,1.4-14.6,2.6-21.9,3.3c-0.3-6.3-0.6-12.4-1-18.5
								C732,422.3,739.1,421.4,746.1,420.2"/>
							<path class="st1" d="M743.6,401.3c0.9,5.6,1.6,11.4,2.3,17.2c-7,1.2-14,2.1-21,2.7c-0.4-6-0.8-11.9-1.3-17.7
								C730.3,403,737,402.3,743.6,401.3"/>
							<path class="st1" d="M677.7,383.8c-0.6,5.5-1.1,11.2-1.6,16.9c-6.6-0.5-13.2-1.2-19.8-2.1c0.9-5.6,1.8-11.1,2.9-16.5
								C665.4,382.9,671.6,383.5,677.7,383.8"/>
							<path class="st1" d="M679.8,366.1c-0.7,5.3-1.3,10.7-1.9,16.2c-6.1-0.4-12.2-0.9-18.3-1.6c1.1-5.4,2.2-10.6,3.5-15.8
								C668.6,365.5,674.2,365.9,679.8,366.1"/>
							<path class="st1" d="M682.2,349.3c-0.8,5-1.5,10.1-2.2,15.4c-5.5-0.3-11-0.7-16.6-1.2c1.3-5.1,2.6-10.1,4.1-15.1
								C672.3,348.8,677.3,349.1,682.2,349.3"/>
							<path class="st1" d="M684.9,333.3c-0.9,4.8-1.7,9.6-2.5,14.6c-4.8-0.2-9.7-0.5-14.5-0.8c1.5-4.9,3-9.7,4.7-14.4
								C676.6,333,680.8,333.2,684.9,333.3"/>
							<path class="st1" d="M688,318.1c-1,4.5-1.9,9.1-2.8,13.8c-4.1-0.1-8.1-0.3-12.2-0.5c1.7-4.6,3.4-9.2,5.2-13.6
								C681.4,318,684.7,318.1,688,318.1"/>
							<path class="st1" d="M698.6,384.5c0,5.6-0.1,11.3-0.1,17.1c-6.6,0-13.2-0.3-19.8-0.7c0.4-5.8,0.9-11.4,1.4-17
								C686.3,384.3,692.4,384.5,698.6,384.5"/>
							<path class="st1" d="M698.7,366.6c0,5.3-0.1,10.8-0.1,16.3c-6.1,0-12.2-0.2-18.3-0.5c0.5-5.5,1.1-10.9,1.7-16.2
								C687.5,366.5,693.1,366.6,698.7,366.6"/>
							<path class="st1" d="M698.8,349.6c0,5.1-0.1,10.2-0.1,15.5c-5.5,0-11-0.1-16.6-0.4c0.6-5.3,1.3-10.4,2-15.4
								C689,349.6,693.9,349.6,698.8,349.6"/>
							<path class="st1" d="M698.9,333.5c0,4.8-0.1,9.7-0.1,14.7c-4.9,0-9.7-0.1-14.5-0.3c0.7-5,1.5-9.9,2.2-14.6
								C690.6,333.5,694.8,333.5,698.9,333.5"/>
							<path class="st1" d="M699,318.3c0,4.5-0.1,9.2-0.1,13.9c-4.1,0-8.1-0.1-12.2-0.2c0.8-4.7,1.6-9.4,2.5-13.9
								C692.5,318.2,695.8,318.3,699,318.3"/>
							<path class="st1" d="M719.4,384c0.5,5.5,1,11.2,1.4,17c-6.6,0.4-13.2,0.7-19.8,0.7c0-5.8-0.1-11.5-0.1-17.1
								C707.1,384.5,713.3,384.3,719.4,384"/>
							<path class="st1" d="M717.6,366.2c0.6,5.3,1.2,10.7,1.7,16.2c-6.1,0.3-12.2,0.5-18.3,0.5c0-5.6-0.1-11-0.1-16.3
								C706.4,366.6,712,366.5,717.6,366.2"/>
							<path class="st1" d="M715.4,349.4c0.7,5,1.4,10.2,2,15.4c-5.5,0.2-11,0.4-16.6,0.4c0-5.3-0.1-10.5-0.1-15.5
								C705.6,349.6,710.5,349.5,715.4,349.4"/>
							<path class="st1" d="M712.9,333.3c0.8,4.8,1.6,9.6,2.3,14.6c-4.8,0.2-9.7,0.3-14.5,0.3c-0.1-5-0.1-9.9-0.2-14.7
								C704.6,333.5,708.8,333.5,712.9,333.3"/>
							<path class="st1" d="M710.1,318.2c0.9,4.5,1.8,9.1,2.6,13.9c-4.1,0.1-8.1,0.2-12.2,0.2c-0.1-4.8-0.1-9.4-0.2-13.9
								C703.6,318.3,706.8,318.2,710.1,318.2"/>
							<path class="st1" d="M740.3,382.2c1.1,5.4,2,10.9,2.9,16.5c-6.6,0.9-13.2,1.6-19.8,2.1c-0.5-5.8-1-11.4-1.6-16.9
								C728,383.4,734.1,382.9,740.3,382.2"/>
							<path class="st1" d="M736.5,364.9c1.3,5.2,2.4,10.4,3.5,15.8c-6.1,0.7-12.2,1.2-18.3,1.6c-0.6-5.5-1.2-10.9-1.9-16.2
								C725.3,365.8,730.9,365.4,736.5,364.9"/>
							<path class="st1" d="M732,348.4c1.5,4.9,2.8,9.9,4.1,15c-5.5,0.5-11,0.9-16.6,1.2c-0.7-5.2-1.4-10.4-2.3-15.4
								C722.2,349.1,727.1,348.8,732,348.4"/>
							<path class="st1" d="M726.9,332.7c1.7,4.7,3.2,9.5,4.7,14.3c-4.8,0.4-9.7,0.6-14.5,0.8c-0.8-5-1.7-9.9-2.6-14.6
								C718.6,333.2,722.8,333,726.9,332.7"/>
							<path class="st1" d="M721.1,317.8c1.8,4.4,3.6,9,5.3,13.6c-4.1,0.2-8.1,0.4-12.2,0.5c-0.9-4.7-1.9-9.3-2.9-13.8
								C714.6,318.1,717.9,318,721.1,317.8"/>
							<path class="st1" d="M691.6,302.9c-1.1,4.2-2.2,8.6-3.2,13c-3.1-0.1-6.3-0.2-9.4-0.3c1.9-4.4,3.8-8.7,5.8-12.9
								C687.2,302.9,689.4,302.9,691.6,302.9"/>
							<path class="st1" d="M695.4,289.5c-1.2,4-2.4,8-3.5,12.3c-2.1,0-4.3-0.1-6.4-0.1c2.1-4.2,4.2-8.2,6.4-12.2
								C693.1,289.5,694.2,289.5,695.4,289.5"/>
							<path class="st1" d="M699.6,276.9c-1.3,3.7-2.6,7.5-3.8,11.5c-1.1,0-2.1,0-3.2,0C694.8,284.5,697.1,280.6,699.6,276.9"/>
							<path class="st1" d="M699.2,303c-0.1,4.2-0.1,8.6-0.1,13.1c-3.1,0-6.3,0-9.4-0.1c0.9-4.5,1.8-8.8,2.8-13
								C694.7,303,697,303,699.2,303"/>
							<path class="st1" d="M699.4,289.5c-0.1,4-0.1,8.1-0.2,12.3c-2.1,0-4.3,0-6.4,0c1-4.2,2-8.3,3.1-12.3
								C697,289.5,698.2,289.5,699.4,289.5"/>
							<path class="st1" d="M699.6,276.9c-0.1,3.7-0.1,7.5-0.2,11.5c-1.1,0-2.1,0-3.2,0C697.2,284.5,698.4,280.6,699.6,276.9"/>
							<path class="st1" d="M706.8,303c1,4.2,2,8.6,2.9,13c-3.1,0.1-6.3,0.1-9.4,0.1c-0.1-4.5-0.1-8.8-0.2-13.1
								C702.3,303,704.5,303,706.8,303"/>
							<path class="st1" d="M703.3,289.5c1.1,4,2.2,8.1,3.2,12.3c-2.2,0-4.3,0-6.4,0c-0.1-4.2-0.2-8.3-0.2-12.3
								C701,289.5,702.2,289.5,703.3,289.5"/>
							<path class="st1" d="M699.6,276.9c1.2,3.7,2.3,7.5,3.4,11.5c-1.1,0-2.1,0-3.2,0C699.7,284.5,699.6,280.6,699.6,276.9"/>
							<path class="st1" d="M714.3,302.8c2.1,4.2,4,8.5,5.9,12.9c-3.1,0.1-6.3,0.2-9.4,0.3c-1-4.5-2.1-8.8-3.2-13
								C709.9,302.9,712.1,302.9,714.3,302.8"/>
							<path class="st1" d="M707.3,289.5c2.3,3.9,4.4,8,6.5,12.2c-2.1,0.1-4.3,0.1-6.4,0.1c-1.1-4.2-2.3-8.3-3.6-12.3
								C704.9,289.5,706.1,289.5,707.3,289.5"/>
							<path class="st1" d="M699.6,276.9c2.4,3.7,4.8,7.5,7.1,11.5c-1.1,0-2.1,0-3.2,0C702.2,284.5,700.9,280.6,699.6,276.9"/>
							<path class="st1" d="M772,433.8c0.7,5.7,1.3,11.6,1.7,17.5c-7.5,2.6-15,4.8-22.5,6.6c-0.3-6.3-0.7-12.5-1.2-18.6
								C757.4,437.9,764.7,436,772,433.8"/>
							<path class="st1" d="M769.2,415.3c1,5.5,1.9,11.2,2.6,16.9c-7.3,2.2-14.6,4-21.9,5.5c-0.5-6.1-1.1-12-1.8-17.9
								C755.2,418.6,762.2,417.1,769.2,415.3"/>
							<path class="st1" d="M765.5,397.5c1.3,5.3,2.4,10.8,3.5,16.3c-7,1.8-14,3.2-21,4.4c-0.7-5.8-1.5-11.5-2.4-17.2
								C752.2,400.1,758.8,398.9,765.5,397.5"/>
							<path class="st1" d="M796.8,425.1c0.9,5.2,1.7,10.5,2.3,15.9c-7.5,3.5-15,6.6-22.5,9.3c-0.5-5.9-1-11.6-1.8-17.3
								C782.2,430.7,789.5,428,796.8,425.1"/>
							<path class="st1" d="M793.1,408.2c1.3,5.1,2.5,10.2,3.5,15.4c-7.3,2.9-14.6,5.5-21.9,7.7c-0.8-5.7-1.6-11.3-2.7-16.8
								C779,412.8,786,410.6,793.1,408.2"/>
							<path class="st1" d="M788.1,391.9c1.7,4.9,3.3,9.9,4.6,15c-7,2.3-14,4.4-21,6.2c-1.1-5.5-2.3-10.9-3.6-16.2
								C774.8,395.4,781.4,393.8,788.1,391.9"/>
							<path class="st1" d="M821.6,413.9c1.2,4.5,2.1,9.1,2.9,13.7c-7.5,4.4-15,8.4-22.5,12c-0.6-5.3-1.4-10.5-2.3-15.6
								C807,420.9,814.3,417.6,821.6,413.9"/>
							<path class="st1" d="M816.9,399.1c1.7,4.5,3.1,8.9,4.3,13.5c-7.3,3.6-14.6,6.9-21.9,9.9c-1-5.1-2.2-10.2-3.6-15.2
								C802.9,404.8,809.9,402.1,816.9,399.1"/>
							<path class="st1" d="M810.6,384.6c2.2,4.4,4.1,8.8,5.8,13.2c-7,2.9-14,5.6-21,8c-1.4-5-3-9.9-4.8-14.8
								C797.3,389.2,804,387,810.6,384.6"/>
							<g>
								<path class="st1" d="M846.4,400.1c1.4,3.7,2.6,7.4,3.4,11.1c-7.5,5.3-15,10.2-22.5,14.7c-0.7-4.5-1.7-9-2.9-13.5
									C831.8,408.6,839.1,404.5,846.4,400.1"/>
							</g>
							<path class="st1" d="M840.8,387.9c2,3.7,3.7,7.4,5.2,11.1c-7.3,4.4-14.6,8.4-21.9,12.1c-1.2-4.4-2.7-8.9-4.4-13.2
								C826.7,394.9,833.7,391.5,840.8,387.9"/>
							<path class="st1" d="M833.2,375.7c2.6,3.7,4.9,7.4,7,11.1c-7,3.5-14,6.8-21,9.8c-1.8-4.4-3.7-8.7-5.9-13
								C819.9,381.3,826.6,378.6,833.2,375.7"/>
							<path class="st1" d="M760.5,379.2c1.6,5.1,3.1,10.4,4.4,15.7c-6.6,1.4-13.2,2.5-19.8,3.5c-0.9-5.6-1.9-11-3.1-16.4
								C748.2,381.2,754.3,380.3,760.5,379.2"/>
							<path class="st1" d="M754.8,362.8c1.9,4.9,3.7,9.9,5.3,15.1c-6.1,1-12.2,1.9-18.3,2.6c-1.1-5.3-2.4-10.6-3.7-15.7
								C743.6,364.2,749.2,363.5,754.8,362.8"/>
							<path class="st1" d="M748.1,346.9c2.2,4.7,4.2,9.5,6.1,14.5c-5.5,0.8-11,1.4-16.6,2c-1.3-5.1-2.8-10.1-4.3-15
								C738.3,348,743.2,347.5,748.1,346.9"/>
							<path class="st1" d="M740.5,331.8c2.5,4.5,4.8,9.1,7,13.9c-4.8,0.5-9.7,1-14.5,1.3c-1.5-4.9-3.2-9.6-4.9-14.3
								C732.2,332.4,736.3,332.1,740.5,331.8"/>
							<path class="st1" d="M731.9,317.3c2.8,4.3,5.4,8.7,7.9,13.2c-4.1,0.3-8.1,0.6-12.2,0.9c-1.7-4.6-3.6-9.2-5.5-13.6
								C725.3,317.6,728.6,317.5,731.9,317.3"/>
							<path class="st1" d="M781.3,375c2.1,4.8,4.1,9.6,5.9,14.5c-6.6,1.8-13.2,3.4-19.8,4.9c-1.4-5.3-2.9-10.5-4.6-15.6
								C769,377.7,775.2,376.4,781.3,375"/>
							<path class="st1" d="M773.7,359.6c2.5,4.6,4.9,9.3,7.1,14c-6.1,1.4-12.2,2.6-18.3,3.7c-1.7-5.1-3.5-10.1-5.5-15
								C762.5,361.6,768.1,360.7,773.7,359.6"/>
							<path class="st1" d="M764.7,344.8c2.9,4.5,5.7,9,8.3,13.6c-5.5,1-11,1.9-16.6,2.7c-2-4.9-4.1-9.7-6.4-14.4
								C754.9,346.2,759.8,345.5,764.7,344.8"/>
							<path class="st1" d="M754.5,330.4c3.3,4.3,6.5,8.7,9.4,13.2c-4.8,0.7-9.7,1.3-14.5,1.9c-2.3-4.7-4.7-9.3-7.3-13.8
								C746.2,331.3,750.3,330.8,754.5,330.4"/>
							<path class="st1" d="M742.9,316.5c3.7,4.2,7.3,8.4,10.6,12.7c-4.1,0.5-8.1,0.9-12.2,1.2c-2.6-4.5-5.3-8.9-8.2-13.2
								C736.4,317,739.7,316.7,742.9,316.5"/>
							<path class="st1" d="M802.2,369.5c2.7,4.3,5.1,8.6,7.4,13c-6.6,2.3-13.2,4.4-19.8,6.3c-1.8-4.8-3.9-9.6-6.1-14.3
								C789.9,373,796,371.3,802.2,369.5"/>
							<path class="st1" d="M792.6,355.6c3.2,4.2,6.2,8.5,8.9,12.7c-6.1,1.8-12.2,3.3-18.3,4.8c-2.2-4.7-4.7-9.3-7.3-13.9
								C781.4,358.1,787,356.9,792.6,355.6"/>
							<path class="st1" d="M781.3,342c3.7,4.1,7.1,8.3,10.4,12.5c-5.5,1.3-11,2.5-16.6,3.5c-2.6-4.6-5.5-9-8.5-13.5
								C771.5,343.7,776.4,342.9,781.3,342"/>
							<path class="st1" d="M768.5,328.6c4.2,4,8.1,8.1,11.8,12.2c-4.8,0.9-9.7,1.7-14.5,2.4c-3.1-4.4-6.3-8.8-9.7-13.1
								C760.2,329.7,764.3,329.2,768.5,328.6"/>
							<path class="st1" d="M754,315.4c4.7,4,9.1,8,13.3,12c-4.1,0.6-8.1,1.1-12.2,1.6c-3.5-4.3-7.1-8.5-10.9-12.6
								C747.4,316.1,750.7,315.8,754,315.4"/>
							<path class="st1" d="M823,362.8c3.2,3.7,6.2,7.4,8.9,11.1c-6.6,2.8-13.2,5.3-19.8,7.7c-2.3-4.3-4.8-8.6-7.6-12.8
								C810.7,367,816.9,365,823,362.8"/>
							<path class="st1" d="M811.5,350.7c3.8,3.7,7.4,7.4,10.7,11.1c-6.1,2.1-12.2,4.1-18.3,5.9c-2.8-4.2-5.8-8.4-9.1-12.6
								C800.3,353.7,805.9,352.3,811.5,350.7"/>
							<path class="st1" d="M797.9,338.5c4.4,3.7,8.6,7.4,12.5,11.1c-5.5,1.5-11.1,3-16.6,4.3c-3.3-4.2-6.8-8.3-10.6-12.3
								C788.1,340.6,793,339.6,797.9,338.5"/>
							<path class="st1" d="M782.5,326.3c5,3.7,9.8,7.4,14.2,11.1c-4.8,1.1-9.7,2.1-14.5,3c-3.8-4.1-7.8-8.1-12.1-12.1
								C774.2,327.7,778.3,327.1,782.5,326.3"/>
							<path class="st1" d="M765,314.2c5.6,3.7,10.9,7.4,16,11.1c-4.1,0.7-8.1,1.3-12.2,1.9c-4.3-4-8.9-8-13.6-11.9
								C758.5,315,761.8,314.6,765,314.2"/>
							<path class="st1" d="M721.7,302.6c3.1,4.1,6,8.3,8.8,12.6c-3.1,0.2-6.3,0.3-9.4,0.5c-2-4.4-4-8.7-6.2-12.9
								C717.2,302.7,719.4,302.7,721.7,302.6"/>
							<path class="st1" d="M711.1,289.4c3.4,3.9,6.6,7.9,9.7,12c-2.1,0.1-4.3,0.1-6.4,0.2c-2.2-4.2-4.4-8.2-6.8-12.2
								C708.8,289.5,709.9,289.4,711.1,289.4"/>
							<path class="st1" d="M699.6,276.9c3.7,3.7,7.2,7.5,10.6,11.4c-1.1,0-2.1,0-3.2,0C704.6,284.5,702.1,280.6,699.6,276.9"/>
							<path class="st1" d="M729.2,302.2c4.1,4,8.1,8.1,11.9,12.2c-3.1,0.3-6.3,0.5-9.4,0.7c-2.9-4.3-6-8.5-9.2-12.6
								C724.8,302.4,727,302.4,729.2,302.2"/>
							<path class="st1" d="M715,289.3c4.5,3.9,8.9,7.8,13,11.8c-2.1,0.1-4.3,0.2-6.4,0.3c-3.2-4.1-6.6-8.1-10.1-12
								C712.7,289.4,713.9,289.4,715,289.3"/>
							<path class="st1" d="M699.6,276.9c4.9,3.7,9.7,7.5,14.2,11.3c-1.1,0-2.1,0-3.2,0.1C707,284.4,703.4,280.6,699.6,276.9"/>
							<path class="st1" d="M736.8,301.8c5.2,3.9,10.1,7.8,14.9,11.7c-3.1,0.3-6.3,0.6-9.4,0.8c-3.9-4.1-8-8.2-12.2-12.2
								C732.4,302.1,734.6,301.9,736.8,301.8"/>
							<path class="st1" d="M719,289.2c5.7,3.8,11.1,7.6,16.4,11.5c-2.2,0.1-4.3,0.2-6.4,0.4c-4.3-4-8.8-7.9-13.4-11.8
								C716.7,289.3,717.8,289.3,719,289.2"/>
							<path class="st1" d="M699.6,276.9c6.2,3.7,12.1,7.5,17.8,11.2c-1.1,0-2.1,0.1-3.2,0.1C709.5,284.4,704.6,280.6,699.6,276.9"
								/>
							<path class="st1" d="M744.4,301.3c6.2,3.7,12.2,7.4,17.9,11.1c-3.1,0.4-6.3,0.7-9.4,1c-4.9-3.9-9.9-7.8-15.2-11.7
								C739.9,301.6,742.1,301.4,744.4,301.3"/>
							<path class="st1" d="M722.9,289.1c6.8,3.7,13.4,7.4,19.7,11.1c-2.1,0.2-4.3,0.3-6.4,0.4c-5.3-3.8-10.9-7.7-16.8-11.4
								C720.6,289.2,721.8,289.1,722.9,289.1"/>
							<path class="st1" d="M699.6,276.9c7.4,3.7,14.6,7.4,21.5,11.1c-1.1,0-2.1,0.1-3.2,0.1C712,284.4,705.9,280.6,699.6,276.9"/>
							<path class="st1" d="M574.7,412.4c-1.2,4.5-2.2,8.9-2.9,13.5c-7.5-4.5-15-9.4-22.5-14.7c0.9-3.7,2-7.4,3.4-11.1
								C560,404.5,567.3,408.6,574.7,412.4"/>
							<path class="st1" d="M579.4,397.9c-1.7,4.4-3.2,8.8-4.4,13.2c-7.3-3.7-14.6-7.8-21.9-12.1c1.5-3.7,3.2-7.4,5.2-11.1
								C565.4,391.5,572.4,394.9,579.4,397.9"/>
							<path class="st1" d="M585.9,383.7c-2.2,4.3-4.2,8.6-6,13c-7-3-14-6.3-21-9.8c2-3.7,4.4-7.4,7-11.1
								C572.6,378.6,579.2,381.3,585.9,383.7"/>
							<path class="st1" d="M599.5,423.9c-1,5.2-1.7,10.4-2.3,15.6c-7.5-3.6-15-7.6-22.5-12c0.7-4.6,1.7-9.2,2.9-13.7
								C584.8,417.6,592.1,420.9,599.5,423.9"/>
							<path class="st1" d="M603.3,407.3c-1.4,5-2.6,10.1-3.5,15.2c-7.3-3-14.6-6.3-21.9-9.9c1.2-4.5,2.7-9,4.3-13.5
								C589.2,402.1,596.2,404.8,603.3,407.3"/>
							<path class="st1" d="M608.4,391.1c-1.8,4.9-3.4,9.8-4.8,14.8c-7-2.4-14-5.1-21-8c1.7-4.4,3.6-8.9,5.8-13.2
								C595.1,387,601.8,389.2,608.4,391.1"/>
							<path class="st1" d="M624.2,432.9c-0.7,5.7-1.3,11.5-1.8,17.3c-7.5-2.7-15-5.8-22.5-9.3c0.6-5.4,1.3-10.6,2.3-15.9
								C609.6,428,616.9,430.7,624.2,432.9"/>
							<path class="st1" d="M627.1,414.6c-1,5.5-1.9,11.1-2.7,16.8c-7.3-2.2-14.6-4.8-21.9-7.7c1-5.2,2.1-10.3,3.5-15.4
								C613.1,410.6,620.1,412.8,627.1,414.6"/>
							<path class="st1" d="M631,396.9c-1.3,5.3-2.5,10.7-3.6,16.2c-7-1.8-14-3.9-21-6.2c1.4-5.1,2.9-10,4.6-15
								C617.7,393.8,624.3,395.4,631,396.9"/>
							<path class="st1" d="M649.1,439.4c-0.5,6.1-0.9,12.3-1.2,18.6c-7.5-1.8-15-4-22.5-6.6c0.4-5.9,1-11.8,1.7-17.5
								C634.4,436,641.7,437.9,649.1,439.4"/>
							<path class="st1" d="M651,419.8c-0.7,5.8-1.3,11.8-1.8,17.9c-7.3-1.5-14.6-3.3-21.9-5.5c0.7-5.7,1.6-11.4,2.6-16.9
								C636.9,417.1,643.9,418.6,651,419.8"/>
							<path class="st1" d="M653.6,401.1c-0.9,5.6-1.7,11.3-2.4,17.2c-7-1.2-14-2.7-21-4.4c1-5.5,2.2-11,3.5-16.3
								C640.3,398.9,646.9,400.1,653.6,401.1"/>
							<path class="st1" d="M594.5,368.8c-2.8,4.2-5.3,8.5-7.6,12.8c-6.6-2.3-13.2-4.9-19.8-7.7c2.7-3.7,5.7-7.4,8.9-11.1
								C582.2,365,588.4,367,594.5,368.8"/>
							<path class="st1" d="M604.4,355.1c-3.2,4.2-6.3,8.3-9.1,12.6c-6.1-1.8-12.2-3.7-18.3-5.9c3.3-3.7,6.9-7.4,10.7-11.1
								C593.2,352.3,598.8,353.7,604.4,355.1"/>
							<path class="st1" d="M615.9,341.6c-3.8,4.1-7.3,8.2-10.6,12.3c-5.5-1.3-11-2.8-16.6-4.3c3.9-3.7,8-7.4,12.5-11.1
								C606.1,339.6,611,340.6,615.9,341.6"/>
							<path class="st1" d="M629,328.3c-4.3,4-8.3,8.1-12.1,12.1c-4.8-0.9-9.7-1.9-14.5-3c4.5-3.7,9.2-7.4,14.2-11.1
								C620.8,327.1,624.9,327.7,629,328.3"/>
							<path class="st1" d="M643.9,315.3c-4.8,3.9-9.3,7.9-13.6,11.9c-4.1-0.6-8.1-1.2-12.2-1.9c5.1-3.7,10.4-7.4,16-11.1
								C637.3,314.6,640.6,315,643.9,315.3"/>
							<path class="st1" d="M615.4,374.4c-2.2,4.7-4.2,9.5-6.1,14.3c-6.6-1.9-13.2-4-19.8-6.3c2.2-4.4,4.7-8.7,7.4-13
								C603.1,371.3,609.2,373,615.4,374.4"/>
							<path class="st1" d="M623.3,359.2c-2.6,4.6-5,9.2-7.3,13.9c-6.1-1.4-12.2-3-18.3-4.8c2.7-4.3,5.7-8.5,8.9-12.7
								C612.1,356.9,617.7,358.1,623.3,359.2"/>
							<path class="st1" d="M632.5,344.5c-3,4.4-5.8,8.9-8.5,13.5c-5.5-1-11-2.2-16.6-3.5c3.2-4.2,6.7-8.4,10.3-12.5
								C622.7,342.9,627.6,343.7,632.5,344.5"/>
							<path class="st1" d="M643,330.2c-3.4,4.3-6.6,8.6-9.7,13.1c-4.8-0.7-9.7-1.5-14.5-2.4c3.7-4.1,7.7-8.2,11.8-12.2
								C634.8,329.2,638.9,329.7,643,330.2"/>
							<path class="st1" d="M654.9,316.4c-3.8,4.1-7.5,8.4-10.9,12.6c-4-0.5-8.1-1-12.2-1.6c4.2-4,8.6-8,13.3-12
								C648.4,315.8,651.7,316.1,654.9,316.4"/>
							<path class="st1" d="M636.2,378.8c-1.7,5.1-3.2,10.3-4.6,15.6c-6.6-1.4-13.2-3-19.8-4.9c1.8-4.9,3.7-9.7,5.9-14.5
								C623.9,376.4,630.1,377.7,636.2,378.8"/>
							<path class="st1" d="M642.2,362.4c-2,4.9-3.8,9.9-5.5,15c-6.1-1.1-12.2-2.3-18.3-3.7c2.2-4.7,4.5-9.4,7.1-14
								C631,360.7,636.6,361.6,642.2,362.4"/>
							<path class="st1" d="M649.1,346.7c-2.3,4.7-4.4,9.5-6.4,14.4c-5.5-0.8-11-1.7-16.6-2.7c2.6-4.6,5.3-9.1,8.2-13.6
								C639.3,345.5,644.2,346.2,649.1,346.7"/>
							<path class="st1" d="M657,331.6c-2.6,4.5-5,9.1-7.3,13.8c-4.8-0.5-9.7-1.2-14.5-1.9c3-4.5,6.1-8.8,9.4-13.2
								C648.8,330.8,652.9,331.3,657,331.6"/>
							<path class="st1" d="M666,317.2c-2.9,4.3-5.6,8.7-8.2,13.2c-4.1-0.3-8.1-0.7-12.2-1.2c3.4-4.3,6.9-8.5,10.6-12.7
								C659.4,316.7,662.7,317,666,317.2"/>
							<path class="st1" d="M657.1,382c-1.1,5.4-2.1,10.8-3.1,16.4c-6.6-0.9-13.2-2.1-19.8-3.5c1.3-5.3,2.8-10.5,4.4-15.7
								C644.8,380.3,650.9,381.2,657.1,382"/>
							<path class="st1" d="M661.1,364.8c-1.3,5.1-2.5,10.4-3.7,15.7c-6.1-0.7-12.2-1.6-18.3-2.6c1.6-5.1,3.4-10.1,5.3-15.1
								C649.9,363.5,655.5,364.2,661.1,364.8"/>
							<path class="st1" d="M665.7,348.3c-1.5,4.9-2.9,9.9-4.3,15c-5.5-0.5-11-1.2-16.6-2c1.9-4.9,4-9.7,6.1-14.5
								C655.9,347.5,660.8,348,665.7,348.3"/>
							<path class="st1" d="M671,332.7c-1.7,4.7-3.4,9.4-4.9,14.3c-4.8-0.4-9.7-0.8-14.5-1.3c2.2-4.7,4.5-9.3,7-13.9
								C662.8,332.1,666.9,332.4,671,332.7"/>
							<path class="st1" d="M677,317.8c-1.9,4.4-3.8,9-5.5,13.6c-4.1-0.2-8.1-0.5-12.2-0.9c2.5-4.5,5.1-8.9,7.9-13.2
								C670.5,317.5,673.8,317.6,677,317.8"/>
							<path class="st1" d="M661.4,301.7c-5.3,3.9-10.4,7.7-15.2,11.7c-3.1-0.3-6.3-0.7-9.4-1c5.7-3.7,11.7-7.4,17.9-11.1
								C656.9,301.4,659.2,301.6,661.4,301.7"/>
							<path class="st1" d="M679.7,289.2c-5.8,3.8-11.4,7.6-16.8,11.4c-2.2-0.1-4.3-0.3-6.4-0.4c6.3-3.7,12.9-7.4,19.7-11.1
								C677.3,289.1,678.5,289.2,679.7,289.2"/>
							<path class="st1" d="M699.6,276.9c-6.3,3.7-12.4,7.5-18.3,11.2c-1.1,0-2.1-0.1-3.2-0.1C685,284.4,692.1,280.6,699.6,276.9"/>
							<path class="st1" d="M669,302.2c-4.3,4-8.3,8-12.2,12.2c-3.1-0.3-6.3-0.5-9.4-0.8c4.7-3.9,9.7-7.9,14.9-11.7
								C664.5,301.9,666.8,302.1,669,302.2"/>
							<path class="st1" d="M683.6,289.3c-4.7,3.9-9.1,7.8-13.4,11.8c-2.1-0.1-4.3-0.2-6.4-0.4c5.2-3.9,10.7-7.7,16.4-11.5
								C681.3,289.3,682.4,289.3,683.6,289.3"/>
							<path class="st1" d="M699.6,276.9c-5.1,3.7-10,7.5-14.7,11.3c-1.1,0-2.1,0-3.2-0.1C687.4,284.4,693.4,280.6,699.6,276.9"/>
							<path class="st1" d="M676.6,302.5c-3.2,4.1-6.3,8.3-9.2,12.6c-3.1-0.2-6.2-0.4-9.4-0.7c3.8-4.1,7.7-8.2,11.9-12.2
								C672.1,302.4,674.3,302.4,676.6,302.5"/>
							<path class="st1" d="M687.6,289.4c-3.5,3.9-6.9,7.9-10.1,12c-2.1-0.1-4.3-0.2-6.4-0.3c4.2-4,8.5-7.9,13-11.8
								C685.2,289.4,686.4,289.4,687.6,289.4"/>
							<path class="st1" d="M699.6,276.9c-3.8,3.7-7.5,7.5-11,11.4c-1.1,0-2.1,0-3.2-0.1C689.9,284.4,694.6,280.6,699.6,276.9"/>
							<path class="st1" d="M684.1,302.8c-2.1,4.2-4.2,8.5-6.2,12.9c-3.1-0.1-6.2-0.3-9.4-0.5c2.8-4.3,5.8-8.5,8.8-12.6
								C679.7,302.7,681.9,302.7,684.1,302.8"/>
							<path class="st1" d="M691.5,289.5c-2.4,3.9-4.6,8-6.8,12.2c-2.1-0.1-4.3-0.1-6.4-0.2c3.1-4.1,6.3-8.1,9.7-12
								C689.2,289.4,690.3,289.5,691.5,289.5"/>
							<path class="st1" d="M699.6,276.9c-2.6,3.7-5,7.5-7.4,11.4c-1.1,0-2.1,0-3.2,0C692.3,284.5,695.9,280.6,699.6,276.9"/>
						</g>
					</g>
				</g>
			</g>
		</g>
	</mask>
	
		<radialGradient id="SVGID_00000107547145879850449230000009237046497797569166_" cx="699.2836" cy="232.1146" r="232.1146" gradientUnits="userSpaceOnUse">
		<stop  offset="0" style="stop-color:#FFD7AB"/>
		<stop  offset="0.2312" style="stop-color:#F9B055"/>
		<stop  offset="0.3299" style="stop-color:#F8A74C"/>
		<stop  offset="0.4918" style="stop-color:#F58E35"/>
		<stop  offset="0.6043" style="stop-color:#F27921"/>
		<stop  offset="0.8671" style="stop-color:#B82E29"/>
		<stop  offset="0.9189" style="stop-color:#AC1F2B"/>
		<stop  offset="0.942" style="stop-color:#A71E29"/>
		<stop  offset="0.9698" style="stop-color:#981A24"/>
		<stop  offset="0.9998" style="stop-color:#80141B"/>
		<stop  offset="1" style="stop-color:#80141B"/>
	</radialGradient>
	
		<circle style="mask:url(#SVGID_1_);fill:url(#SVGID_00000107547145879850449230000009237046497797569166_);" cx="699.3" cy="232.1" r="232.1"/>
	<g>
		<path class="st3" d="M2.2,676.2c-1,0-1.8,0.9-1.6,1.8c2.5,19.9,15.1,32.8,39.1,32.8c19.4,0,74.2-0.2,82.3-0.2
			c58.2,0,55.7-77.6,7.8-77.6c-2.7,0-75.1,0-84.1,0c-28.5,0-27.5-37.4-0.6-37.4c25.7,0,73.1,0,77.7,0c9.2,0,13.7,6.2,15.7,12.1
			c0.5,1.4,1.8,2.3,3.3,2.3h20.3c1.7,0,3.1-1.6,2.8-3.3c-3.6-19-18.6-31.3-42.1-31.3c-19.4,0-72.9,0.2-81,0.2
			c-54.9,0-56.4,77.2-0.4,77.2c2.7,0,67.7,0,76.8,0c31,0,30.1,38.2,0.9,38.2c-25.7,0-71.5,0-76,0c-9.5,0-13.9-6.8-15.9-12.9
			c-0.4-1.2-1.4-2-2.6-2H2.2z"/>
		<path class="st3" d="M1185,710.8c-1.5,0-2.3-0.7-2.3-2.2l0.1-130c0-1.5,0.8-2.2,2.3-2.2l20.1,0c1.3,0,2,0.7,2,2.2l-0.1,130
			c0,1.5-0.7,2.2-2,2.2L1185,710.8z M1185.1,547.3c-1.5,0-2.3-0.8-2.3-2.5l0-18.7c0-1.5,0.8-2.2,2.3-2.2l20.1,0c1.3,0,2,0.7,2,2.2
			l0,18.7c0,1.7-0.7,2.5-2,2.5L1185.1,547.3z"/>
		<path class="st3" d="M360.8,630c0-17.6-5.1-30.9-15.2-39.9c-5.5-4.1-11.8-7.2-18.8-9.5c-7-2.2-15.2-3.3-24.4-3.3h-50
			c-9.2,0-17.4,1.1-24.4,3.3c-7,2.2-13.3,5.4-18.8,9.5c-10.1,9-15.2,22.3-15.2,39.9l0,28.3c0,35,19.4,52.5,58.3,52.5h50.2
			c38.9,0,58.3-17.5,58.3-52.5L360.8,630z M300.6,690.9h-46.2c-23.7,0-35.6-10.9-35.6-32.5l0-28.3c0-21.7,11.9-32.5,35.6-32.5h46.1
			c23.7,0,35.6,10.8,35.6,32.5l0,28.3C336.1,680,324.3,690.9,300.6,690.9z"/>
		<path class="st3" d="M413.9,629.4c0-21.7,11.9-32.5,35.6-32.5l23,0l23,0c23.7,0,35.6,10.8,35.6,32.5l0,81.5h24.7l0-81.5
			c0-17.6-5.1-30.9-15.2-39.9c-5.5-4.1-11.8-7.2-18.8-9.5c-7-2.2-15.2-3.3-24.4-3.3l-25,0l-25,0c-9.2,0-17.4,1.1-24.4,3.3
			c-7,2.2-13.3,5.4-18.8,9.5c-10.1,9-15.2,22.3-15.2,39.9l0,81.5h24.7L413.9,629.4z"/>
		<path class="st3" d="M609,629.4c0-21.7,11.9-32.5,35.6-32.5l23,0l23,0c23.7,0,35.6,10.8,35.6,32.5l0,81.5H751l0-81.5
			c0-17.6-5.1-30.9-15.2-39.9c-5.5-4.1-11.8-7.2-18.8-9.5c-7-2.2-15.2-3.3-24.4-3.3l-25,0l-25,0c-9.2,0-17.4,1.1-24.4,3.3
			c-7,2.2-13.3,5.4-18.8,9.5c-10.1,9-15.2,22.3-15.2,39.9l0,81.5H609L609,629.4z"/>
		<path class="st3" d="M885.8,690.9h-46.2c-23.7,0-35.6-10.9-35.6-32.5l0-12h101.3h16h15.8c4.9,0,8.9-4,8.9-8.9V630
			c0-1.4-0.1-2.8-0.1-4.1c-0.8-15.5-5.7-27.5-15-35.7c-5.5-4.1-11.7-7.2-18.8-9.5c-7-2.2-15.2-3.3-24.4-3.3h-50
			c-9.2,0-17.4,1.1-24.4,3.3c-7,2.2-13.3,5.4-18.8,9.5c-9.3,8.3-14.3,20.2-15,35.7c-0.1,1.4-0.2,2.7-0.2,4.1l0,28.3
			c0,35,19.4,52.5,58.3,52.5h50.2c34,0,53.1-13.5,57.4-40.2c0.4-2.5-1.4-4.7-3.9-4.7h-15.8c-2.5,0-4.8,1.6-5.4,4.1
			C916.2,683.9,904.9,690.9,885.8,690.9z M839.7,597.5h46.1c22.1,0,33.8,9.5,35.3,28.3H804.4C805.9,607,817.6,597.5,839.7,597.5z"/>
		<path class="st3" d="M1141,527.1c0-1.5-0.7-2.2-2-2.2l-20.1,0c-1.5,0-2.3,0.7-2.3,2.2l0,57.3c-2.9-1.4-6-2.7-9.3-3.7
			c-7-2.2-15.2-3.3-24.4-3.3h-50c-9.2,0-17.4,1.1-24.4,3.3c-7,2.2-13.3,5.4-18.8,9.5c-10.1,9-15.2,22.3-15.2,39.9l0,28.3
			c0,35,19.4,52.5,58.3,52.5h50.2c38.9,0,58.3-17.5,58.3-52.5L1141,527.1z M1080.9,690.9h-46.2c-23.7,0-35.6-10.9-35.6-32.5l0-28.3
			c0-21.7,11.9-32.5,35.6-32.5h46.1c23.7,0,35.6,10.8,35.6,32.5l0,28.3C1116.5,680,1104.7,690.9,1080.9,690.9z"/>
		<path class="st3" d="M1369.2,710.8l-129.8-129.3c-1-1-1.2-3.2,1-3.2l26.9-0.6L1398,707.9c1,1.1,0.4,3-1.3,3H1369.2z"/>
		<path class="st3" d="M1240.1,710.7c-1.7,0-1.8-1.8-0.8-2.9l130.6-130.1l26.6,0.6c2.7,0,2.4,2.1,1.3,3.2L1268,710.8L1240.1,710.7z"
			/>
	</g>
</g>
</svg>
