<?xml version="1.0" encoding="utf-8"?>
<!-- Generator: Adobe Illustrator 25.2.1, SVG Export Plug-In . SVG Version: 6.00 Build 0)  -->
<svg version="1.1" id="Layer_1" xmlns="http://www.w3.org/2000/svg" xmlns:xlink="http://www.w3.org/1999/xlink" x="0px" y="0px"
	 viewBox="0 0 1200 373.24" style="enable-background:new 0 0 1200 373.24;" xml:space="preserve">
<style type="text/css">
	.st0{fill:#414042;}
</style>
<g>
	<g>
		<path class="st0" d="M371.25,205.04c-0.54,0-0.98,0.47-0.91,1.01c1.37,11,8.34,18.18,21.69,18.18c10.74-0.03,41.13-0.1,45.63-0.1
			c32.23,0,30.85-42.99,4.33-42.99c-1.48,0-41.59,0-46.62,0c-15.78,0-15.25-20.72-0.35-20.72c14.24,0,40.51,0,43.04,0
			c5.09,0,7.58,3.46,8.71,6.7c0.27,0.78,1,1.29,1.82,1.29h11.26c0.96,0,1.71-0.87,1.54-1.82c-1.98-10.54-10.32-17.36-23.33-17.36
			c-10.74,0.03-40.39,0.1-44.89,0.1c-30.4,0-31.27,42.76-0.2,42.76c1.48,0,37.52,0,42.55,0c17.18,0,16.66,21.16,0.52,21.16
			c-14.24,0-39.6,0-42.14,0c-5.24,0-7.72-3.75-8.8-7.13c-0.21-0.64-0.79-1.09-1.46-1.09H371.25z"/>
		<path class="st0" d="M1026.74,224.23c-0.85,0-1.28-0.41-1.28-1.23l0.05-72.06c0-0.82,0.43-1.23,1.28-1.22l11.14,0
			c0.73,0,1.1,0.41,1.1,1.24l-0.05,72.06c0,0.82-0.37,1.22-1.1,1.22L1026.74,224.23z M1026.8,133.62c-0.85,0-1.28-0.46-1.28-1.37
			l0.01-10.37c0-0.82,0.43-1.23,1.29-1.23l11.13,0.01c0.73,0,1.1,0.41,1.1,1.23l-0.01,10.37c0,0.92-0.37,1.36-1.1,1.36
			L1026.8,133.62z"/>
		<path class="st0" d="M569.98,179.44c0-9.74-2.81-17.1-8.41-22.1c-3.04-2.27-6.52-4.02-10.41-5.25c-3.89-1.22-8.4-1.83-13.51-1.83
			h-27.71c-5.11,0-9.62,0.61-13.51,1.83c-3.9,1.23-7.37,2.98-10.41,5.25c-5.61,5-8.41,12.36-8.41,22.1l-0.01,15.69
			c-0.01,19.38,10.75,29.08,32.31,29.1h27.8c21.55-0.02,32.32-9.72,32.31-29.1L569.98,179.44z M536.58,213.19h-25.6
			c-13.15-0.02-19.72-6.02-19.71-18.03l0.01-15.69c0-12.01,6.59-18.01,19.73-18h25.53c13.15-0.02,19.73,5.98,19.74,18l0.01,15.69
			C556.31,207.17,549.73,213.17,536.58,213.19z"/>
		<path class="st0" d="M599.4,179.09c0.01-12.01,6.59-18.01,19.74-18l12.77,0.01l12.77-0.01c13.15-0.02,19.73,5.98,19.73,18
			l0.01,45.15h13.69l-0.01-45.17c0-9.74-2.81-17.1-8.41-22.1c-3.04-2.27-6.52-4.02-10.41-5.25c-3.89-1.22-8.4-1.83-13.51-1.83
			l-13.86,0.02l-13.85-0.02c-5.11,0-9.62,0.61-13.51,1.83c-3.9,1.23-7.37,2.98-10.42,5.25c-5.6,5-8.41,12.36-8.41,22.1l-0.01,45.17
			h13.7L599.4,179.09z"/>
		<path class="st0" d="M707.52,179.09c0.01-12.01,6.59-18.01,19.74-18l12.77,0.01l12.77-0.01c13.15-0.02,19.73,5.98,19.73,18
			l0.01,45.15h13.69l0-45.17c-0.01-9.74-2.81-17.1-8.41-22.1c-3.04-2.27-6.52-4.02-10.41-5.25c-3.89-1.22-8.4-1.83-13.51-1.83
			l-13.86,0.02l-13.86-0.02c-5.11,0-9.62,0.61-13.51,1.83c-3.9,1.23-7.38,2.98-10.42,5.25c-5.6,5-8.41,12.36-8.41,22.1l-0.01,45.17
			h13.69L707.52,179.09z"/>
		<path class="st0" d="M860.94,213.19h-25.59c-13.15-0.02-19.72-6.02-19.72-18.04l0-6.66h56.14h8.87h8.75
			c2.73,0,4.94-2.21,4.94-4.94l0-4.1c0-0.79-0.05-1.54-0.08-2.29c-0.43-8.6-3.18-15.21-8.33-19.81c-3.04-2.27-6.51-4.02-10.41-5.24
			c-3.89-1.23-8.4-1.84-13.52-1.83h-27.71c-5.11-0.01-9.62,0.6-13.51,1.83c-3.9,1.22-7.37,2.97-10.41,5.24
			c-5.15,4.6-7.9,11.21-8.33,19.81c-0.04,0.76-0.09,1.5-0.09,2.29l-0.01,15.69c-0.02,19.38,10.75,29.08,32.3,29.1h27.8
			c18.85-0.02,29.43-7.46,31.78-22.3c0.21-1.36-0.79-2.6-2.16-2.6h-8.78c-1.39,0-2.65,0.91-3.01,2.26
			C877.78,209.31,871.48,213.18,860.94,213.19z M835.37,161.46h25.54c12.25-0.02,18.72,5.26,19.56,15.69h-64.66
			C816.65,166.72,823.12,161.45,835.37,161.46z"/>
		<path class="st0" d="M1002.32,122.41c0-0.82-0.37-1.23-1.1-1.23l-11.14-0.01c-0.85,0-1.28,0.41-1.28,1.23l-0.02,31.77
			c-1.63-0.8-3.35-1.5-5.16-2.07c-3.9-1.22-8.4-1.83-13.51-1.83H942.4c-5.12,0-9.62,0.61-13.52,1.83c-3.9,1.23-7.37,2.98-10.41,5.25
			c-5.6,5-8.41,12.36-8.41,22.1l-0.01,15.69c-0.01,19.38,10.76,29.08,32.3,29.1h27.8c21.55-0.02,32.32-9.72,32.31-29.1
			L1002.32,122.41z M969.05,213.19h-25.6c-13.15-0.02-19.72-6.02-19.72-18.03l0.01-15.69c0.01-12.01,6.59-18.01,19.73-18h25.54
			c13.15-0.02,19.73,5.98,19.73,18l0.01,15.69C988.77,207.17,982.2,213.17,969.05,213.19z"/>
		<path class="st0" d="M1128.82,224.24l-71.93-71.65c-0.57-0.58-0.67-1.77,0.57-1.77l14.92-0.32l72.38,72.09
			c0.57,0.58,0.24,1.64-0.72,1.64H1128.82z"/>
		<path class="st0" d="M1057.24,224.2c-0.94,0-1.01-1.02-0.44-1.6l72.37-72.09l14.76,0.32c1.48,0,1.3,1.19,0.73,1.77l-71.93,71.65
			L1057.24,224.2z"/>
	</g>
	<g>
		<g>
			<path class="st0" d="M138.64,95.52c1.08,2.08,2.19,4.14,3.34,6.19c1.34,2.4,2.71,4.78,4.12,7.15c3.76-0.72,7.53-1.31,11.32-1.79
				c-1.76-4.83-3.41-9.7-4.91-14.62C147.85,93.27,143.22,94.3,138.64,95.52z"/>
			<path class="st0" d="M123.07,100.51c2.59,4.04,5.37,7.97,8.32,11.77c4.28-1.18,8.6-2.2,12.94-3.07
				c-1.35-2.17-2.69-4.35-3.98-6.56c-1.28-2.17-2.53-4.36-3.74-6.58C132.04,97.35,127.53,98.84,123.07,100.51z"/>
			<path class="st0" d="M142.36,125.16c3.76-0.69,7.53-1.28,11.32-1.77c-1.51-2.19-3.01-4.39-4.48-6.61c-1.32-1.98-2.6-3.98-3.87-6
				c-4.28,0.84-8.54,1.84-12.77,2.98c2.51,3.17,5.12,6.25,7.83,9.26C141.04,123.74,141.7,124.44,142.36,125.16z"/>
			<path class="st0" d="M164.65,122.24c3.2-0.25,6.4-0.43,9.61-0.53c-0.78-4.72-1.52-9.46-2.21-14.2c-4.18,0.2-8.34,0.55-12.49,1.04
				C161.15,113.15,162.86,117.71,164.65,122.24z"/>
			<path class="st0" d="M181.32,89.88c-0.05,0-0.11,0-0.16,0c-3.24,0-6.49,0.1-9.73,0.3c0.24,2.52,0.47,5.04,0.78,7.56
				c0.29,2.67,0.6,5.33,0.92,7.99c2.67-0.11,5.34-0.18,8.03-0.18c0.02,0,0.04,0,0.06,0c2.71,0,5.4,0.07,8.1,0.19
				c0.32-2.66,0.63-5.33,0.92-8c0.31-2.51,0.54-5.03,0.78-7.55C187.79,89.99,184.55,89.88,181.32,89.88z"/>
			<path class="st0" d="M155.15,137.92c2.78-0.36,5.56-0.66,8.35-0.91c-2.99-4-5.91-8.04-8.76-12.13c-3.7,0.47-7.39,1.03-11.06,1.69
				C147.36,130.49,151.19,134.26,155.15,137.92z"/>
			<path class="st0" d="M188.2,121.71c3.2,0.11,6.41,0.29,9.6,0.54c1.79-4.53,3.5-9.09,5.09-13.69c-4.14-0.49-8.3-0.84-12.48-1.04
				C189.72,112.26,188.98,116.99,188.2,121.71z"/>
			<path class="st0" d="M158.03,108.74c-3.67,0.46-7.32,1.03-10.96,1.71c1.11,1.85,2.23,3.69,3.39,5.51
				c1.53,2.43,3.09,4.84,4.68,7.24c2.76-0.34,5.53-0.63,8.3-0.86c-1.88-4.48-3.69-8.98-5.39-13.54
				C158.04,108.78,158.04,108.76,158.03,108.74z"/>
			<path class="st0" d="M182.59,150.63c-0.46,0-0.91-0.01-1.37-0.01c-0.02,0-0.05,0-0.07,0c-0.43,0-0.86,0.01-1.29,0.01
				c0.44,2.51,0.9,5.01,1.37,7.52C181.69,155.65,182.15,153.14,182.59,150.63z"/>
			<path class="st0" d="M182.98,150.64c-0.51,2.58-1.04,5.16-1.57,7.73c1.32-2.55,2.6-5.12,3.86-7.71
				C184.5,150.64,183.74,150.64,182.98,150.64z"/>
			<path class="st0" d="M185.75,150.67c-1.37,2.66-2.77,5.3-4.2,7.93c2.06-2.61,4.1-5.23,6.12-7.87
				C187.03,150.71,186.39,150.69,185.75,150.67z"/>
			<path class="st0" d="M179.48,150.64c-0.76,0.01-1.52,0.01-2.29,0.02c1.26,2.58,2.54,5.15,3.86,7.71
				C180.51,155.79,179.99,153.22,179.48,150.64z"/>
			<path class="st0" d="M174.11,150.75c-1.28,0.04-2.57,0.1-3.85,0.17c3.46,2.77,6.98,5.47,10.57,8.08
				C178.56,156.27,176.32,153.52,174.11,150.75z"/>
			<path class="st0" d="M176.7,150.67c-0.64,0.01-1.28,0.04-1.92,0.06c2.01,2.64,4.06,5.27,6.12,7.87
				C179.47,155.98,178.07,153.33,176.7,150.67z"/>
			<path class="st0" d="M168.51,149.51c1.48-0.09,2.96-0.17,4.44-0.23c-1.44-1.82-2.88-3.64-4.3-5.48c-1.36-1.77-2.7-3.54-4.04-5.32
				c-2.66,0.22-5.31,0.5-7.95,0.83c3.08,2.81,6.22,5.55,9.42,8.22C166.88,148.2,167.69,148.86,168.51,149.51z"/>
			<path class="st0" d="M179.19,149.14c-0.74-3.77-1.44-7.54-2.14-11.31c-1.92,0.04-3.85,0.1-5.77,0.2
				c0.06,0.13,0.11,0.26,0.17,0.38c1.62,3.61,3.31,7.2,5.03,10.77C177.38,149.16,178.28,149.15,179.19,149.14z"/>
			<path class="st0" d="M181.22,107.29c-0.02,0-0.04,0-0.06,0c-2.61,0-5.21,0.06-7.81,0.17c0.59,4.75,1.23,9.49,1.91,14.22
				c1.97-0.05,3.93-0.09,5.9-0.09c0.02,0,0.04,0,0.06,0c1.99,0,3.98,0.04,5.97,0.09c0.68-4.74,1.32-9.47,1.91-14.22
				C186.49,107.36,183.86,107.29,181.22,107.29z"/>
			<path class="st0" d="M181.22,123.22c-0.02,0-0.04,0-0.06,0c-1.89,0-3.78,0.03-5.67,0.08c0.48,3.29,0.97,6.58,1.48,9.87
				c0.16,1.03,0.33,2.06,0.5,3.09c1.23-0.02,2.47-0.05,3.7-0.05c0.02,0,0.04,0,0.06,0c1.26,0,2.51,0.03,3.77,0.05
				c0.16-1.03,0.34-2.06,0.5-3.09c0.51-3.29,1-6.58,1.48-9.87C185.05,123.25,183.14,123.22,181.22,123.22z"/>
			<path class="st0" d="M204.4,108.8c-1.7,4.56-3.51,9.07-5.39,13.55c2.77,0.23,5.54,0.53,8.3,0.87c1.59-2.4,3.15-4.82,4.69-7.25
				c1.15-1.81,2.26-3.65,3.37-5.49c-3.63-0.68-7.28-1.25-10.95-1.72C204.41,108.77,204.41,108.78,204.4,108.8z"/>
			<path class="st0" d="M197.18,123.84c-3.08-0.23-6.16-0.41-9.25-0.5c-0.55,3.33-1.12,6.65-1.71,9.97
				c-0.18,0.99-0.36,1.98-0.54,2.97c2.05,0.05,4.1,0.12,6.15,0.23C193.69,132.31,195.48,128.09,197.18,123.84z"/>
			<path class="st0" d="M111.89,78.65c0.88,2.33,1.88,4.61,2.93,6.87c4.12-2.14,8.7-4.27,13.72-6.26c-0.92-2.24-1.78-4.51-2.55-6.83
				c-0.58-1.79-1.1-3.6-1.57-5.43c-5.16,2.39-9.82,4.93-13.99,7.46C110.89,75.87,111.37,77.27,111.89,78.65z"/>
			<path class="st0" d="M230.04,87.94c-1.06,2.19-2.17,4.35-3.32,6.5c4.6,1.31,9.16,2.83,13.65,4.52c0.91-1.46,1.79-2.92,2.65-4.41
				c1.32-2.36,2.58-4.75,3.76-7.18c-4.09-2.13-8.64-4.25-13.63-6.23C232.16,83.43,231.12,85.7,230.04,87.94z"/>
			<path class="st0" d="M247.62,85.58c1.06-2.28,2.06-4.58,2.95-6.93c0.51-1.39,1-2.78,1.45-4.18c-4.17-2.54-8.83-5.08-13.99-7.46
				c-0.46,1.83-0.99,3.64-1.57,5.43c-0.77,2.33-1.64,4.61-2.57,6.87C238.92,81.3,243.5,83.43,247.62,85.58z"/>
			<path class="st0" d="M193.21,143.35c1.21-1.64,2.4-3.3,3.59-4.96c-1.6-0.13-3.21-0.23-4.81-0.32c-0.1,0.21-0.2,0.43-0.3,0.65
				c-1.68,3.52-3.42,7-5.18,10.47c0.76,0.02,1.52,0.04,2.28,0.07C190.27,147.3,191.75,145.33,193.21,143.35z"/>
			<path class="st0" d="M191.01,138.41c0.06-0.13,0.11-0.25,0.17-0.38c-1.92-0.1-3.85-0.16-5.77-0.2c-0.69,3.78-1.4,7.55-2.14,11.31
				c0.9,0.01,1.81,0.02,2.71,0.04C187.7,145.61,189.38,142.02,191.01,138.41z"/>
			<path class="st0" d="M170.61,136.5c2.05-0.11,4.1-0.18,6.15-0.23c-0.18-0.99-0.37-1.98-0.54-2.97c-0.59-3.32-1.15-6.64-1.71-9.97
				c-3.09,0.1-6.17,0.27-9.25,0.5C166.97,128.08,168.76,132.3,170.61,136.5z"/>
			<path class="st0" d="M181.16,149.12c0.02,0,0.05,0,0.07,0c0.54,0,1.08,0.01,1.62,0.02c0.66-3.77,1.28-7.54,1.89-11.32
				c-1.17-0.02-2.35-0.05-3.52-0.05c-0.02,0-0.04,0-0.06,0c-1.15,0-2.3,0.02-3.45,0.04c0.61,3.78,1.24,7.55,1.89,11.32
				C180.12,149.13,180.64,149.12,181.16,149.12z"/>
			<path class="st0" d="M206.29,124.72c-2.64-0.32-5.28-0.58-7.93-0.8c-1.81,4.25-3.71,8.46-5.67,12.64
				c1.73,0.1,3.45,0.22,5.17,0.37C200.74,132.9,203.55,128.83,206.29,124.72z"/>
			<path class="st0" d="M188.35,150.75c-2.21,2.77-4.45,5.52-6.71,8.25c3.58-2.61,7.1-5.3,10.56-8.07
				C190.91,150.86,189.63,150.8,188.35,150.75z"/>
			<path class="st0" d="M156.15,124.71c2.75,4.11,5.55,8.18,8.43,12.21c1.72-0.14,3.45-0.27,5.18-0.37
				c-1.96-4.18-3.86-8.39-5.67-12.64C161.44,124.13,158.79,124.39,156.15,124.71z"/>
			<path class="st0" d="M173.67,149.26c0.76-0.03,1.52-0.05,2.28-0.07c-1.77-3.47-3.5-6.96-5.18-10.47c-0.1-0.22-0.2-0.44-0.3-0.65
				c-1.61,0.09-3.21,0.19-4.82,0.32c1.19,1.66,2.39,3.32,3.6,4.97C170.71,145.33,172.18,147.3,173.67,149.26z"/>
			<path class="st0" d="M220.48,101.71c1.14-2.03,2.25-4.09,3.32-6.15c-4.58-1.23-9.2-2.26-13.86-3.1
				c-1.5,4.92-3.15,9.79-4.91,14.62c3.79,0.49,7.56,1.08,11.32,1.8C217.76,106.51,219.14,104.12,220.48,101.71z"/>
			<path class="st0" d="M207.14,139.49c-3.36,2.96-6.8,5.83-10.29,8.62c-0.63,0.5-1.27,0.99-1.9,1.48c1.54,0.1,3.08,0.23,4.63,0.37
				c5.98-3.36,11.1-6.53,15.34-9.28C212.33,140.23,209.74,139.84,207.14,139.49z"/>
			<path class="st0" d="M231.72,114.32c-2.74,3.34-5.6,6.58-8.55,9.72c-0.46,0.5-0.94,0.98-1.41,1.47
				c3.89,0.75,7.77,1.61,11.62,2.58c4.05-3.05,7.78-6.16,11.24-9.6C240.35,116.94,236.05,115.54,231.72,114.32z"/>
			<path class="st0" d="M196.38,147.53c3.19-2.67,6.33-5.41,9.41-8.21c-2.64-0.33-5.29-0.61-7.95-0.83
				c-1.34,1.78-2.68,3.55-4.03,5.31c-1.42,1.84-2.86,3.66-4.31,5.49c1.48,0.06,2.96,0.14,4.43,0.23
				C194.75,148.86,195.57,148.2,196.38,147.53z"/>
			<path class="st0" d="M193.18,150.98c-3.53,2.72-7.13,5.35-10.78,7.91c5.38-2.57,10.33-5.14,14.83-7.62
				C195.88,151.16,194.53,151.06,193.18,150.98z"/>
			<path class="st0" d="M153.78,138.12c-4.05-3.61-7.98-7.35-11.77-11.24c-3.77,0.71-7.53,1.53-11.27,2.44
				c4.51,3.3,9.44,6.57,14.86,10.11C148.32,138.93,151.05,138.5,153.78,138.12z"/>
			<path class="st0" d="M167.49,149.59c-0.63-0.49-1.26-0.98-1.89-1.48c-3.5-2.8-6.94-5.67-10.3-8.64c-2.6,0.34-5.2,0.74-7.79,1.18
				c4.24,2.75,9.37,5.92,15.35,9.29C164.4,149.81,165.94,149.69,167.49,149.59z"/>
			<path class="st0" d="M169.27,150.97c-1.35,0.08-2.7,0.18-4.05,0.29c4.51,2.48,9.46,5.05,14.85,7.62
				C176.4,156.33,172.8,153.69,169.27,150.97z"/>
			<path class="st0" d="M220.42,126.9c-3.79,3.89-7.72,7.63-11.77,11.24c2.73,0.38,5.45,0.82,8.16,1.3
				c5.42-3.54,10.34-6.81,14.86-10.1C227.94,128.42,224.19,127.61,220.42,126.9z"/>
			<path class="st0" d="M169.43,62.13l0.36,7.45c3.69-0.3,7.48-0.46,11.37-0.46c0.02,0,0.04,0,0.07,0c3.92,0,7.73,0.17,11.44,0.48
				l0.36-7.47c0.09-2.44,0.15-4.88,0.2-7.32c-4.48-0.44-8.52-0.63-12-0.67c-3.48,0.05-7.52,0.23-12,0.67
				C169.28,57.26,169.34,59.7,169.43,62.13z"/>
			<path class="st0" d="M241.37,101.31c-2.65,3.97-5.48,7.82-8.46,11.53c4.38,1.26,8.73,2.68,13.04,4.26
				c2.93-3.05,5.68-6.38,8.29-10.14C250.02,104.9,245.73,103.01,241.37,101.31z"/>
			<path class="st0" d="M112.63,86.67c-1.14-2.32-2.22-4.66-3.19-7.07c-0.48-1.21-0.93-2.44-1.37-3.67
				c-4.38,2.79-8.17,5.53-11.34,8.02c0.9,2.72,2.17,6.12,3.95,9.93C103.99,91.67,107.98,89.19,112.63,86.67z"/>
			<path class="st0" d="M128.49,71.64c0.69,2.27,1.49,4.51,2.34,6.73c5.15-1.94,10.73-3.72,16.71-5.18
				c-0.8-3.84-1.51-7.71-2.02-11.61c-0.1-0.75-0.18-1.5-0.27-2.25c-3.9,1.09-7.94,2.39-12.07,3.97c-2.14,0.82-4.21,1.67-6.21,2.55
				C127.4,67.8,127.92,69.73,128.49,71.64z"/>
			<path class="st0" d="M248.91,88.5c-1.25,2.43-2.57,4.83-3.95,7.18c-0.82,1.37-1.67,2.72-2.54,4.07
				c4.36,1.71,8.66,3.61,12.88,5.69c2.23-3.36,4.06-6.63,5.57-9.67C257.59,93.54,253.59,91.04,248.91,88.5z"/>
			<path class="st0" d="M254.38,75.93c-0.44,1.23-0.89,2.46-1.37,3.67c-0.98,2.42-2.07,4.79-3.22,7.12
				c4.65,2.52,8.65,5.01,11.94,7.23c1.8-3.84,3.08-7.26,3.99-10C262.55,81.47,258.76,78.72,254.38,75.93z"/>
			<path class="st0" d="M216.92,61.58c-0.51,3.91-1.22,7.79-2.02,11.64c5.98,1.47,11.55,3.25,16.7,5.2
				c0.86-2.24,1.66-4.49,2.36-6.77c0.57-1.91,1.09-3.84,1.51-5.79c-2-0.88-4.07-1.73-6.21-2.55c-4.14-1.58-8.17-2.88-12.07-3.97
				C217.1,60.08,217.02,60.83,216.92,61.58z"/>
			<path class="st0" d="M140.67,125.48c-0.46-0.48-0.93-0.96-1.39-1.45c-2.96-3.15-5.83-6.4-8.58-9.75
				c-4.34,1.22-8.64,2.62-12.91,4.16c3.46,3.44,7.18,6.57,11.24,9.61C132.9,127.09,136.78,126.23,140.67,125.48z"/>
			<path class="st0" d="M195.62,55.08c-0.1,2.39-0.21,4.78-0.35,7.17l-0.52,7.54c6.27,0.61,12.24,1.61,17.86,2.89
				c0.7-3.79,1.3-7.6,1.71-11.42c0.09-0.88,0.17-1.76,0.25-2.64C207.73,56.85,201.35,55.75,195.62,55.08z"/>
			<path class="st0" d="M208.55,90.35c1.19-4.37,2.27-8.76,3.19-13.19c0.17-0.85,0.33-1.69,0.5-2.54
				c-5.56-1.27-11.44-2.26-17.64-2.87l-0.79,8.36c-0.24,2.79-0.59,5.57-0.91,8.35C198.13,88.85,203.36,89.48,208.55,90.35z"/>
			<path class="st0" d="M213.94,77.65c-1.02,4.38-2.19,8.73-3.47,13.03c4.77,0.86,9.51,1.93,14.19,3.2c1.16-2.28,2.28-4.58,3.34-6.9
				c1.01-2.22,1.97-4.46,2.88-6.72c-5.06-1.91-10.53-3.66-16.4-5.1C214.31,75.99,214.13,76.82,213.94,77.65z"/>
			<path class="st0" d="M239.36,100.55c-4.45-1.67-8.97-3.16-13.53-4.45c-1.2,2.2-2.44,4.38-3.72,6.54c-1.3,2.22-2.64,4.41-4,6.59
				c4.34,0.87,8.65,1.9,12.93,3.08C233.99,108.51,236.77,104.59,239.36,100.55z"/>
			<path class="st0" d="M129.52,112.81c-2.99-3.72-5.82-7.56-8.46-11.54c-4.36,1.7-8.66,3.59-12.87,5.65
				c2.6,3.76,5.35,7.09,8.29,10.15C120.78,115.49,125.13,114.07,129.52,112.81z"/>
			<path class="st0" d="M191.73,97.92c-0.34,2.63-0.7,5.25-1.07,7.88c4.29,0.22,8.56,0.58,12.81,1.09c1.66-4.87,3.2-9.79,4.59-14.74
				c-5.1-0.85-10.23-1.47-15.38-1.83C192.38,92.84,192.09,95.38,191.73,97.92z"/>
			<path class="st0" d="M222.07,123.02c2.7-2.99,5.3-6.07,7.8-9.22c-4.22-1.15-8.48-2.14-12.76-2.99c-1.27,2-2.55,4-3.86,5.97
				c-1.47,2.23-2.97,4.43-4.49,6.62c3.78,0.49,7.55,1.08,11.31,1.78C220.74,124.46,221.41,123.74,222.07,123.02z"/>
			<path class="st0" d="M218.77,126.59c-3.67-0.66-7.36-1.22-11.05-1.69c-2.86,4.09-5.78,8.13-8.76,12.13
				c2.78,0.25,5.57,0.55,8.34,0.91C211.24,134.28,215.08,130.51,218.77,126.59z"/>
			<path class="st0" d="M181.16,71.1c-3.85,0-7.61,0.17-11.26,0.46l0.62,8.39c0.18,2.8,0.48,5.59,0.74,8.39
				c3.3-0.2,6.6-0.31,9.9-0.31c0.06,0,0.11,0,0.16,0c3.29,0,6.59,0.11,9.87,0.31c0.26-2.8,0.56-5.59,0.74-8.4l0.62-8.37
				c-3.67-0.3-7.45-0.47-11.33-0.47C181.2,71.1,181.18,71.1,181.16,71.1z"/>
			<path class="st0" d="M107.13,105.38c4.22-2.07,8.52-3.97,12.89-5.68c-0.86-1.33-1.7-2.67-2.51-4.02
				c-1.4-2.37-2.73-4.78-3.98-7.24c-4.67,2.53-8.68,5.02-11.96,7.25C103.07,98.74,104.9,102.01,107.13,105.38z"/>
			<path class="st0" d="M134.45,86.98c1.05,2.31,2.17,4.6,3.32,6.87c4.69-1.27,9.43-2.33,14.2-3.19c-1.27-4.3-2.44-8.63-3.46-13.01
				c-0.19-0.84-0.37-1.69-0.55-2.53c-5.87,1.44-11.35,3.18-16.41,5.09C132.46,82.49,133.43,84.74,134.45,86.98z"/>
			<path class="st0" d="M115.66,87.31c1.19,2.45,2.45,4.86,3.79,7.24c0.84,1.47,1.72,2.93,2.62,4.37c4.49-1.7,9.05-3.21,13.65-4.52
				c-1.14-2.13-2.25-4.28-3.3-6.46c-1.09-2.26-2.13-4.54-3.12-6.85C124.3,83.06,119.75,85.18,115.66,87.31z"/>
			<path class="st0" d="M154.39,92.11c1.39,4.95,2.93,9.87,4.59,14.75c4.25-0.51,8.53-0.87,12.82-1.08
				c-0.37-2.62-0.74-5.24-1.07-7.87c-0.36-2.53-0.65-5.08-0.95-7.62C164.63,90.66,159.49,91.27,154.39,92.11z"/>
			<path class="st0" d="M148.14,61.26c0.41,3.81,1.01,7.61,1.71,11.39c5.63-1.28,11.59-2.27,17.87-2.88l-0.52-7.53
				c-0.14-2.39-0.25-4.78-0.35-7.17c-5.73,0.67-12.11,1.77-18.95,3.54C147.97,59.5,148.04,60.38,148.14,61.26z"/>
			<path class="st0" d="M167.86,71.75c-6.2,0.6-12.09,1.58-17.65,2.85c0.17,0.86,0.33,1.72,0.5,2.57c0.92,4.42,2,8.8,3.19,13.16
				c5.19-0.87,10.42-1.49,15.67-1.87c-0.32-2.78-0.68-5.56-0.91-8.34L167.86,71.75z"/>
		</g>
		<g>
			<path class="st0" d="M272.32,144.03c-2.08,1.08-4.14,2.19-6.19,3.34c-2.4,1.34-4.78,2.71-7.15,4.12
				c0.72,3.76,1.31,7.53,1.79,11.32c4.83-1.76,9.7-3.41,14.62-4.91C274.58,153.24,273.55,148.61,272.32,144.03z"/>
			<path class="st0" d="M267.34,128.46c-4.04,2.59-7.97,5.37-11.77,8.32c1.18,4.28,2.2,8.6,3.07,12.94
				c2.17-1.35,4.35-2.69,6.56-3.98c2.17-1.28,4.36-2.53,6.58-3.74C270.5,137.43,269.01,132.92,267.34,128.46z"/>
			<path class="st0" d="M242.69,147.75c0.69,3.76,1.28,7.53,1.77,11.32c2.19-1.51,4.39-3.01,6.61-4.48c1.98-1.32,3.98-2.6,6-3.87
				c-0.84-4.28-1.84-8.54-2.98-12.77c-3.17,2.51-6.25,5.12-9.26,7.83C244.11,146.43,243.4,147.09,242.69,147.75z"/>
			<path class="st0" d="M245.6,170.04c0.25,3.2,0.43,6.4,0.53,9.61c4.72-0.78,9.46-1.52,14.2-2.21c-0.2-4.18-0.55-8.34-1.04-12.49
				C254.69,166.54,250.13,168.25,245.6,170.04z"/>
			<path class="st0" d="M277.97,186.71c0-0.05,0-0.11,0-0.16c0-3.24-0.1-6.49-0.3-9.73c-2.52,0.24-5.04,0.47-7.56,0.78
				c-2.67,0.29-5.33,0.6-7.99,0.92c0.11,2.67,0.18,5.34,0.18,8.03c0,0.02,0,0.04,0,0.06c0,2.71-0.07,5.4-0.19,8.1
				c2.66,0.32,5.33,0.63,8,0.92c2.51,0.31,5.03,0.54,7.55,0.78C277.86,193.18,277.96,189.94,277.97,186.71z"/>
			<path class="st0" d="M229.92,160.54c0.36,2.78,0.66,5.56,0.91,8.35c4-2.99,8.04-5.91,12.13-8.76c-0.47-3.7-1.03-7.39-1.69-11.06
				C237.36,152.75,233.58,156.58,229.92,160.54z"/>
			<path class="st0" d="M246.13,193.59c-0.11,3.2-0.29,6.41-0.54,9.6c4.53,1.79,9.09,3.5,13.69,5.09c0.49-4.14,0.84-8.3,1.04-12.48
				C255.58,195.11,250.86,194.37,246.13,193.59z"/>
			<path class="st0" d="M259.11,163.42c-0.46-3.67-1.03-7.32-1.71-10.96c-1.85,1.11-3.69,2.23-5.51,3.39
				c-2.43,1.53-4.84,3.09-7.24,4.68c0.34,2.76,0.63,5.53,0.86,8.3c4.48-1.88,8.98-3.69,13.54-5.39
				C259.07,163.43,259.09,163.43,259.11,163.42z"/>
			<path class="st0" d="M217.21,187.98c0-0.46,0.01-0.91,0.01-1.37c0-0.02,0-0.05,0-0.07c0-0.43-0.01-0.86-0.01-1.29
				c-2.51,0.44-5.01,0.9-7.52,1.37C212.2,187.08,214.71,187.54,217.21,187.98z"/>
			<path class="st0" d="M217.21,188.37c-2.58-0.51-5.16-1.04-7.73-1.57c2.55,1.32,5.12,2.6,7.71,3.86
				C217.2,189.89,217.2,189.13,217.21,188.37z"/>
			<path class="st0" d="M217.17,191.14c-2.66-1.37-5.3-2.77-7.93-4.2c2.61,2.06,5.23,4.1,7.87,6.12
				C217.13,192.42,217.16,191.78,217.17,191.14z"/>
			<path class="st0" d="M217.21,184.87c-0.01-0.76-0.01-1.52-0.02-2.29c-2.58,1.26-5.15,2.54-7.71,3.86
				C212.05,185.9,214.63,185.38,217.21,184.87z"/>
			<path class="st0" d="M217.1,179.5c-0.04-1.28-0.1-2.57-0.17-3.85c-2.77,3.46-5.47,6.98-8.08,10.57
				C211.58,183.95,214.32,181.71,217.1,179.5z"/>
			<path class="st0" d="M217.17,182.1c-0.01-0.64-0.04-1.28-0.06-1.92c-2.64,2.01-5.27,4.06-7.87,6.12
				C211.87,184.86,214.51,183.46,217.17,182.1z"/>
			<path class="st0" d="M218.33,173.9c0.09,1.48,0.17,2.96,0.23,4.44c1.82-1.44,3.64-2.88,5.48-4.3c1.77-1.36,3.54-2.7,5.32-4.04
				c-0.22-2.66-0.5-5.31-0.83-7.95c-2.81,3.08-5.55,6.22-8.22,9.42C219.65,172.27,218.99,173.08,218.33,173.9z"/>
			<path class="st0" d="M218.71,184.58c3.77-0.74,7.54-1.44,11.31-2.14c-0.04-1.92-0.1-3.85-0.2-5.77
				c-0.13,0.06-0.26,0.11-0.38,0.17c-3.61,1.62-7.2,3.31-10.77,5.03C218.69,182.77,218.7,183.67,218.71,184.58z"/>
			<path class="st0" d="M260.56,186.61c0-0.02,0-0.04,0-0.06c0-2.61-0.06-5.21-0.17-7.81c-4.75,0.59-9.49,1.23-14.22,1.91
				c0.05,1.97,0.09,3.93,0.09,5.9c0,0.02,0,0.04,0,0.06c0,1.99-0.04,3.98-0.09,5.97c4.74,0.68,9.47,1.32,14.22,1.91
				C260.49,191.88,260.55,189.25,260.56,186.61z"/>
			<path class="st0" d="M244.63,186.61c0-0.02,0-0.04,0-0.06c0-1.89-0.03-3.78-0.08-5.67c-3.29,0.48-6.58,0.97-9.87,1.48
				c-1.03,0.16-2.06,0.33-3.09,0.5c0.02,1.23,0.05,2.47,0.05,3.7c0,0.02,0,0.04,0,0.06c0,1.26-0.03,2.51-0.05,3.77
				c1.03,0.16,2.06,0.34,3.09,0.5c3.29,0.51,6.58,1,9.87,1.48C244.59,190.44,244.63,188.53,244.63,186.61z"/>
			<path class="st0" d="M259.05,209.79c-4.56-1.7-9.07-3.51-13.55-5.39c-0.23,2.77-0.53,5.54-0.87,8.3c2.4,1.59,4.82,3.15,7.25,4.69
				c1.81,1.15,3.65,2.26,5.49,3.37c0.68-3.63,1.25-7.28,1.72-10.95C259.08,209.8,259.06,209.8,259.05,209.79z"/>
			<path class="st0" d="M244.01,202.57c0.23-3.08,0.41-6.16,0.5-9.25c-3.33-0.55-6.65-1.12-9.97-1.71
				c-0.99-0.18-1.98-0.36-2.97-0.54c-0.05,2.05-0.12,4.1-0.23,6.15C235.54,199.08,239.76,200.87,244.01,202.57z"/>
			<path class="st0" d="M289.2,117.28c-2.33,0.88-4.61,1.88-6.87,2.93c2.14,4.12,4.27,8.7,6.26,13.72c2.24-0.92,4.51-1.78,6.83-2.55
				c1.79-0.58,3.6-1.1,5.43-1.57c-2.39-5.16-4.93-9.82-7.46-13.99C291.98,116.28,290.58,116.76,289.2,117.28z"/>
			<path class="st0" d="M279.91,235.43c-2.19-1.06-4.35-2.17-6.5-3.32c-1.31,4.6-2.83,9.16-4.52,13.65
				c1.46,0.91,2.92,1.79,4.41,2.65c2.36,1.32,4.75,2.58,7.18,3.76c2.13-4.09,4.25-8.64,6.23-13.63
				C284.42,237.55,282.15,236.51,279.91,235.43z"/>
			<path class="st0" d="M282.27,253.01c2.28,1.06,4.58,2.06,6.93,2.95c1.39,0.51,2.78,1,4.18,1.45c2.54-4.17,5.08-8.83,7.46-13.99
				c-1.83-0.46-3.64-0.99-5.43-1.57c-2.33-0.77-4.61-1.64-6.87-2.57C286.55,244.31,284.41,248.89,282.27,253.01z"/>
			<path class="st0" d="M224.49,198.6c1.64,1.21,3.3,2.4,4.96,3.59c0.13-1.6,0.23-3.21,0.32-4.81c-0.21-0.1-0.43-0.2-0.65-0.3
				c-3.52-1.68-7-3.42-10.47-5.18c-0.02,0.76-0.04,1.52-0.07,2.28C220.54,195.66,222.51,197.14,224.49,198.6z"/>
			<path class="st0" d="M229.44,196.4c0.13,0.06,0.25,0.11,0.38,0.17c0.1-1.92,0.16-3.85,0.2-5.77c-3.78-0.69-7.55-1.4-11.31-2.14
				c-0.01,0.9-0.02,1.81-0.04,2.71C222.24,193.09,225.82,194.77,229.44,196.4z"/>
			<path class="st0" d="M231.35,176.01c0.11,2.05,0.18,4.1,0.23,6.15c0.99-0.18,1.98-0.37,2.97-0.54c3.32-0.59,6.64-1.15,9.97-1.71
				c-0.1-3.09-0.27-6.17-0.5-9.25C239.76,172.36,235.54,174.15,231.35,176.01z"/>
			<path class="st0" d="M218.73,186.55c0,0.02,0,0.05,0,0.07c0,0.54-0.01,1.08-0.02,1.62c3.77,0.66,7.54,1.28,11.32,1.89
				c0.02-1.17,0.05-2.35,0.05-3.52c0-0.02,0-0.04,0-0.06c0-1.15-0.02-2.3-0.04-3.45c-3.78,0.61-7.55,1.24-11.32,1.89
				C218.72,185.51,218.73,186.03,218.73,186.55z"/>
			<path class="st0" d="M243.12,211.68c0.32-2.64,0.58-5.28,0.8-7.93c-4.25-1.81-8.46-3.71-12.64-5.67
				c-0.1,1.73-0.22,3.45-0.37,5.17C234.94,206.13,239.01,208.94,243.12,211.68z"/>
			<path class="st0" d="M217.09,193.74c-2.77-2.21-5.52-4.45-8.25-6.71c2.61,3.58,5.3,7.1,8.07,10.56
				C216.99,196.3,217.05,195.02,217.09,193.74z"/>
			<path class="st0" d="M243.14,161.54c-4.11,2.75-8.18,5.55-12.21,8.43c0.14,1.72,0.27,3.45,0.37,5.18
				c4.18-1.96,8.39-3.86,12.64-5.67C243.72,166.83,243.45,164.18,243.14,161.54z"/>
			<path class="st0" d="M218.58,179.06c0.03,0.76,0.05,1.52,0.07,2.28c3.47-1.77,6.96-3.5,10.47-5.18c0.22-0.1,0.44-0.2,0.65-0.3
				c-0.09-1.61-0.19-3.21-0.32-4.82c-1.66,1.19-3.32,2.39-4.97,3.6C222.51,176.1,220.55,177.58,218.58,179.06z"/>
			<path class="st0" d="M266.13,225.87c2.03,1.14,4.09,2.25,6.15,3.32c1.23-4.58,2.26-9.2,3.1-13.86c-4.92-1.5-9.79-3.15-14.62-4.91
				c-0.49,3.79-1.08,7.56-1.8,11.32C261.34,223.15,263.73,224.53,266.13,225.87z"/>
			<path class="st0" d="M228.35,212.53c-2.96-3.36-5.83-6.8-8.62-10.29c-0.5-0.63-0.99-1.27-1.48-1.9c-0.1,1.54-0.23,3.08-0.37,4.63
				c3.36,5.98,6.53,11.1,9.28,15.34C227.61,217.73,228.01,215.13,228.35,212.53z"/>
			<path class="st0" d="M253.53,237.11c-3.34-2.74-6.58-5.6-9.72-8.55c-0.5-0.46-0.98-0.94-1.47-1.41
				c-0.75,3.89-1.61,7.77-2.58,11.62c3.05,4.05,6.16,7.78,9.6,11.24C250.91,245.74,252.3,241.44,253.53,237.11z"/>
			<path class="st0" d="M220.32,201.77c2.67,3.19,5.41,6.33,8.21,9.41c0.33-2.64,0.61-5.29,0.83-7.95
				c-1.78-1.34-3.55-2.68-5.31-4.03c-1.84-1.42-3.66-2.86-5.49-4.31c-0.06,1.48-0.14,2.96-0.23,4.43
				C218.98,200.14,219.65,200.96,220.32,201.77z"/>
			<path class="st0" d="M216.87,198.57c-2.72-3.53-5.35-7.13-7.91-10.78c2.57,5.38,5.14,10.33,7.62,14.83
				C216.68,201.27,216.79,199.92,216.87,198.57z"/>
			<path class="st0" d="M229.73,159.17c3.61-4.05,7.35-7.98,11.24-11.77c-0.71-3.77-1.53-7.53-2.44-11.27
				c-3.3,4.51-6.57,9.44-10.11,14.86C228.91,153.71,229.35,156.44,229.73,159.17z"/>
			<path class="st0" d="M218.26,172.88c0.49-0.63,0.98-1.26,1.48-1.89c2.8-3.5,5.67-6.94,8.64-10.3c-0.34-2.6-0.74-5.2-1.18-7.79
				c-2.75,4.24-5.92,9.37-9.29,15.35C218.03,169.79,218.15,171.33,218.26,172.88z"/>
			<path class="st0" d="M216.87,174.66c-0.08-1.35-0.18-2.7-0.29-4.05c-2.48,4.51-5.05,9.46-7.62,14.85
				C211.52,181.79,214.15,178.19,216.87,174.66z"/>
			<path class="st0" d="M240.95,225.81c-3.89-3.79-7.63-7.72-11.24-11.77c-0.38,2.73-0.82,5.45-1.3,8.16
				c3.54,5.42,6.81,10.34,10.1,14.86C239.42,233.34,240.24,229.58,240.95,225.81z"/>
			<path class="st0" d="M305.71,174.82l-7.45,0.36c0.3,3.69,0.46,7.48,0.46,11.37c0,0.02,0,0.04,0,0.07c0,3.92-0.17,7.73-0.48,11.44
				l7.47,0.36c2.44,0.09,4.88,0.15,7.32,0.2c0.44-4.48,0.63-8.52,0.67-12c-0.05-3.48-0.23-7.52-0.67-12
				C310.59,174.67,308.15,174.73,305.71,174.82z"/>
			<path class="st0" d="M266.53,246.76c-3.97-2.65-7.82-5.48-11.53-8.46c-1.26,4.38-2.68,8.73-4.26,13.04
				c3.05,2.93,6.38,5.68,10.14,8.29C262.94,255.41,264.83,251.12,266.53,246.76z"/>
			<path class="st0" d="M281.17,118.02c2.32-1.14,4.66-2.22,7.07-3.19c1.21-0.48,2.44-0.93,3.67-1.37
				c-2.79-4.38-5.53-8.17-8.02-11.34c-2.72,0.9-6.12,2.17-9.93,3.95C276.18,109.38,278.66,113.37,281.17,118.02z"/>
			<path class="st0" d="M296.2,133.88c-2.27,0.69-4.51,1.49-6.73,2.34c1.94,5.15,3.72,10.73,5.18,16.71
				c3.84-0.8,7.71-1.51,11.61-2.02c0.75-0.1,1.5-0.18,2.25-0.27c-1.09-3.9-2.39-7.94-3.97-12.07c-0.82-2.14-1.67-4.21-2.55-6.21
				C300.05,132.79,298.12,133.31,296.2,133.88z"/>
			<path class="st0" d="M279.34,254.3c-2.43-1.25-4.83-2.57-7.18-3.95c-1.37-0.82-2.72-1.67-4.07-2.54
				c-1.71,4.36-3.61,8.66-5.69,12.88c3.36,2.23,6.63,4.06,9.67,5.57C274.31,262.98,276.81,258.98,279.34,254.3z"/>
			<path class="st0" d="M291.91,259.77c-1.23-0.44-2.46-0.89-3.67-1.37c-2.42-0.98-4.79-2.07-7.12-3.22
				c-2.52,4.65-5.01,8.65-7.23,11.94c3.84,1.8,7.26,3.08,10,3.99C286.38,267.94,289.13,264.15,291.91,259.77z"/>
			<path class="st0" d="M306.27,222.31c-3.91-0.51-7.79-1.22-11.64-2.02c-1.47,5.98-3.25,11.55-5.2,16.7
				c2.24,0.86,4.49,1.66,6.77,2.36c1.91,0.57,3.84,1.09,5.79,1.51c0.88-2,1.73-4.07,2.55-6.21c1.58-4.14,2.88-8.17,3.97-12.07
				C307.76,222.49,307.01,222.41,306.27,222.31z"/>
			<path class="st0" d="M242.37,146.06c0.48-0.46,0.96-0.93,1.45-1.39c3.15-2.96,6.4-5.83,9.75-8.58
				c-1.22-4.34-2.62-8.64-4.16-12.91c-3.44,3.46-6.57,7.18-9.61,11.24C240.76,138.29,241.61,142.17,242.37,146.06z"/>
			<path class="st0" d="M312.77,201.01c-2.39-0.1-4.78-0.21-7.17-0.35l-7.54-0.52c-0.61,6.27-1.61,12.24-2.89,17.86
				c3.79,0.7,7.6,1.3,11.42,1.71c0.88,0.09,1.76,0.17,2.64,0.25C311,213.12,312.1,206.74,312.77,201.01z"/>
			<path class="st0" d="M277.49,213.94c4.37,1.19,8.76,2.27,13.19,3.19c0.85,0.17,1.69,0.33,2.54,0.5
				c1.27-5.56,2.26-11.44,2.87-17.64l-8.36-0.79c-2.79-0.24-5.57-0.59-8.35-0.91C279,203.52,278.37,208.75,277.49,213.94z"/>
			<path class="st0" d="M290.19,219.33c-4.38-1.02-8.73-2.19-13.03-3.47c-0.86,4.77-1.93,9.51-3.2,14.19
				c2.28,1.16,4.58,2.28,6.9,3.34c2.22,1.01,4.46,1.97,6.72,2.88c1.91-5.06,3.66-10.53,5.1-16.4
				C291.86,219.7,291.02,219.52,290.19,219.33z"/>
			<path class="st0" d="M267.3,244.75c1.67-4.45,3.16-8.97,4.45-13.53c-2.2-1.2-4.38-2.44-6.54-3.72c-2.22-1.3-4.41-2.64-6.59-4
				c-0.87,4.34-1.9,8.65-3.08,12.93C259.33,239.38,263.26,242.16,267.3,244.75z"/>
			<path class="st0" d="M255.04,134.91c3.72-2.99,7.56-5.82,11.54-8.46c-1.7-4.36-3.59-8.66-5.65-12.87
				c-3.76,2.6-7.09,5.35-10.15,8.29C252.36,126.17,253.78,130.52,255.04,134.91z"/>
			<path class="st0" d="M269.93,197.12c-2.63-0.34-5.25-0.7-7.88-1.07c-0.22,4.29-0.58,8.56-1.09,12.81
				c4.87,1.66,9.79,3.2,14.74,4.59c0.85-5.1,1.47-10.23,1.83-15.38C275,197.77,272.46,197.48,269.93,197.12z"/>
			<path class="st0" d="M244.83,227.46c2.99,2.7,6.07,5.3,9.22,7.8c1.15-4.22,2.14-8.48,2.99-12.76c-2-1.27-4-2.55-5.97-3.86
				c-2.23-1.47-4.43-2.97-6.62-4.49c-0.49,3.78-1.08,7.55-1.78,11.31C243.39,226.13,244.1,226.8,244.83,227.46z"/>
			<path class="st0" d="M241.25,224.16c0.66-3.67,1.22-7.36,1.69-11.05c-4.09-2.86-8.13-5.78-12.13-8.76
				c-0.25,2.78-0.55,5.57-0.91,8.34C233.56,216.63,237.34,220.47,241.25,224.16z"/>
			<path class="st0" d="M296.74,186.55c0-3.85-0.17-7.61-0.46-11.26l-8.39,0.62c-2.8,0.18-5.59,0.48-8.39,0.74
				c0.2,3.3,0.31,6.6,0.31,9.9c0,0.06,0,0.11,0,0.16c0,3.29-0.11,6.59-0.31,9.87c2.8,0.26,5.59,0.56,8.4,0.74l8.37,0.62
				c0.3-3.67,0.47-7.45,0.47-11.33C296.74,186.59,296.74,186.57,296.74,186.55z"/>
			<path class="st0" d="M262.46,112.52c2.07,4.22,3.97,8.52,5.68,12.89c1.33-0.86,2.67-1.7,4.02-2.51c2.37-1.4,4.78-2.73,7.24-3.98
				c-2.53-4.67-5.02-8.68-7.25-11.96C269.1,108.46,265.83,110.29,262.46,112.52z"/>
			<path class="st0" d="M280.87,139.84c-2.31,1.05-4.6,2.17-6.87,3.32c1.27,4.69,2.33,9.43,3.19,14.2c4.3-1.27,8.63-2.44,13.01-3.46
				c0.84-0.19,1.69-0.37,2.53-0.55c-1.44-5.87-3.18-11.35-5.09-16.41C285.36,137.85,283.1,138.82,280.87,139.84z"/>
			<path class="st0" d="M280.54,121.05c-2.45,1.19-4.86,2.45-7.24,3.79c-1.47,0.84-2.93,1.72-4.37,2.62
				c1.7,4.49,3.21,9.05,4.52,13.65c2.13-1.14,4.28-2.25,6.46-3.3c2.26-1.09,4.54-2.13,6.85-3.12
				C284.78,129.69,282.66,125.14,280.54,121.05z"/>
			<path class="st0" d="M275.73,159.78c-4.95,1.39-9.87,2.93-14.75,4.59c0.51,4.25,0.87,8.53,1.08,12.82
				c2.62-0.37,5.24-0.74,7.87-1.07c2.53-0.36,5.08-0.65,7.62-0.95C277.19,170.02,276.58,164.88,275.73,159.78z"/>
			<path class="st0" d="M306.59,153.53c-3.81,0.41-7.61,1.01-11.39,1.71c1.28,5.63,2.27,11.59,2.88,17.87l7.53-0.52
				c2.39-0.14,4.78-0.25,7.17-0.35c-0.67-5.73-1.77-12.11-3.54-18.95C308.35,153.36,307.47,153.43,306.59,153.53z"/>
			<path class="st0" d="M296.1,173.25c-0.6-6.2-1.58-12.09-2.85-17.65c-0.86,0.17-1.72,0.33-2.57,0.5c-4.42,0.92-8.8,2-13.16,3.19
				c0.87,5.19,1.49,10.42,1.87,15.67c2.78-0.32,5.56-0.68,8.34-0.91L296.1,173.25z"/>
		</g>
		<g>
			<path class="st0" d="M223.82,277.71c-1.08-2.08-2.19-4.14-3.34-6.19c-1.34-2.4-2.71-4.78-4.12-7.15
				c-3.76,0.72-7.53,1.31-11.32,1.79c1.76,4.83,3.41,9.7,4.91,14.62C214.61,279.97,219.23,278.94,223.82,277.71z"/>
			<path class="st0" d="M239.38,272.73c-2.59-4.04-5.37-7.97-8.32-11.77c-4.28,1.18-8.6,2.2-12.94,3.07
				c1.35,2.17,2.69,4.35,3.98,6.56c1.28,2.17,2.53,4.36,3.74,6.58C230.41,275.89,234.93,274.4,239.38,272.73z"/>
			<path class="st0" d="M220.1,248.08c-3.76,0.69-7.53,1.28-11.32,1.77c1.51,2.19,3.01,4.39,4.48,6.61c1.32,1.98,2.6,3.98,3.87,6
				c4.28-0.84,8.54-1.84,12.77-2.98c-2.51-3.17-5.12-6.25-7.83-9.26C221.42,249.5,220.76,248.79,220.1,248.08z"/>
			<path class="st0" d="M197.81,250.99c-3.2,0.25-6.4,0.43-9.61,0.53c0.78,4.72,1.52,9.46,2.21,14.2c4.18-0.2,8.34-0.55,12.49-1.04
				C201.3,260.08,199.59,255.52,197.81,250.99z"/>
			<path class="st0" d="M181.14,283.36c0.05,0,0.11,0,0.16,0c3.24,0,6.49-0.1,9.73-0.3c-0.24-2.52-0.47-5.04-0.78-7.56
				c-0.29-2.67-0.6-5.33-0.92-7.99c-2.67,0.11-5.34,0.18-8.03,0.18c-0.02,0-0.04,0-0.06,0c-2.71,0-5.4-0.07-8.1-0.19
				c-0.32,2.66-0.63,5.33-0.92,8c-0.31,2.51-0.54,5.03-0.78,7.55C174.67,283.25,177.9,283.35,181.14,283.36z"/>
			<path class="st0" d="M207.31,235.31c-2.78,0.36-5.56,0.66-8.35,0.91c2.99,4,5.91,8.04,8.76,12.13c3.7-0.47,7.39-1.03,11.06-1.69
				C215.1,242.75,211.26,238.97,207.31,235.31z"/>
			<path class="st0" d="M174.26,251.52c-3.2-0.11-6.41-0.29-9.6-0.54c-1.79,4.53-3.5,9.09-5.09,13.69c4.14,0.49,8.3,0.84,12.48,1.04
				C172.73,260.97,173.48,256.25,174.26,251.52z"/>
			<path class="st0" d="M204.43,264.5c3.67-0.46,7.32-1.03,10.96-1.71c-1.11-1.85-2.23-3.69-3.39-5.51
				c-1.53-2.43-3.09-4.84-4.68-7.24c-2.76,0.34-5.53,0.63-8.3,0.86c1.88,4.48,3.69,8.98,5.39,13.54
				C204.41,264.46,204.42,264.48,204.43,264.5z"/>
			<path class="st0" d="M179.86,222.6c0.46,0,0.91,0.01,1.37,0.01c0.02,0,0.05,0,0.07,0c0.43,0,0.86-0.01,1.29-0.01
				c-0.44-2.51-0.9-5.01-1.37-7.52C180.76,217.59,180.3,220.1,179.86,222.6z"/>
			<path class="st0" d="M179.48,222.6c0.51-2.58,1.04-5.16,1.57-7.73c-1.32,2.55-2.6,5.12-3.86,7.71
				C177.95,222.59,178.71,222.59,179.48,222.6z"/>
			<path class="st0" d="M176.71,222.56c1.37-2.66,2.77-5.3,4.2-7.93c-2.06,2.61-4.1,5.23-6.12,7.87
				C175.43,222.52,176.07,222.55,176.71,222.56z"/>
			<path class="st0" d="M182.98,222.6c0.76-0.01,1.52-0.01,2.29-0.02c-1.26-2.58-2.54-5.15-3.86-7.71
				C181.94,217.44,182.47,220.02,182.98,222.6z"/>
			<path class="st0" d="M188.35,222.49c1.28-0.04,2.57-0.1,3.85-0.17c-3.46-2.77-6.98-5.47-10.57-8.08
				C183.89,216.97,186.14,219.71,188.35,222.49z"/>
			<path class="st0" d="M185.75,222.56c0.64-0.01,1.28-0.04,1.92-0.06c-2.01-2.64-4.06-5.27-6.12-7.87
				C182.98,217.26,184.38,219.9,185.75,222.56z"/>
			<path class="st0" d="M193.95,223.72c-1.48,0.09-2.96,0.17-4.44,0.23c1.44,1.82,2.88,3.64,4.3,5.48c1.36,1.77,2.7,3.54,4.04,5.32
				c2.66-0.22,5.31-0.5,7.95-0.83c-3.08-2.81-6.22-5.55-9.42-8.22C195.57,225.04,194.76,224.38,193.95,223.72z"/>
			<path class="st0" d="M183.27,224.1c0.74,3.77,1.44,7.54,2.14,11.31c1.92-0.04,3.85-0.1,5.77-0.2c-0.06-0.13-0.11-0.26-0.17-0.38
				c-1.62-3.61-3.31-7.2-5.03-10.77C185.08,224.08,184.17,224.09,183.27,224.1z"/>
			<path class="st0" d="M181.23,265.95c0.02,0,0.04,0,0.06,0c2.61,0,5.21-0.06,7.81-0.17c-0.59-4.75-1.23-9.49-1.91-14.22
				c-1.97,0.05-3.93,0.09-5.9,0.09c-0.02,0-0.04,0-0.06,0c-1.99,0-3.98-0.04-5.97-0.09c-0.68,4.74-1.32,9.47-1.91,14.22
				C175.97,265.88,178.6,265.94,181.23,265.95z"/>
			<path class="st0" d="M181.23,250.02c0.02,0,0.04,0,0.06,0c1.89,0,3.78-0.03,5.67-0.08c-0.48-3.29-0.97-6.58-1.48-9.87
				c-0.16-1.03-0.33-2.06-0.5-3.09c-1.23,0.02-2.47,0.05-3.7,0.05c-0.02,0-0.04,0-0.06,0c-1.26,0-2.51-0.03-3.77-0.05
				c-0.16,1.03-0.34,2.06-0.5,3.09c-0.51,3.29-1,6.58-1.48,9.87C177.4,249.98,179.32,250.02,181.23,250.02z"/>
			<path class="st0" d="M158.05,264.44c1.7-4.56,3.51-9.07,5.39-13.55c-2.77-0.23-5.54-0.53-8.3-0.87c-1.59,2.4-3.15,4.82-4.69,7.25
				c-1.15,1.81-2.26,3.65-3.37,5.49c3.63,0.68,7.28,1.25,10.95,1.72C158.04,264.47,158.05,264.45,158.05,264.44z"/>
			<path class="st0" d="M165.27,249.4c3.08,0.23,6.16,0.41,9.25,0.5c0.55-3.33,1.12-6.65,1.71-9.97c0.18-0.99,0.36-1.98,0.54-2.97
				c-2.05-0.05-4.1-0.12-6.15-0.23C168.77,240.93,166.98,245.15,165.27,249.4z"/>
			<path class="st0" d="M250.57,294.59c-0.88-2.33-1.88-4.61-2.93-6.87c-4.12,2.14-8.7,4.27-13.72,6.26
				c0.92,2.24,1.78,4.51,2.55,6.83c0.58,1.79,1.1,3.6,1.57,5.43c5.16-2.39,9.82-4.93,13.99-7.46
				C251.57,297.37,251.08,295.97,250.57,294.59z"/>
			<path class="st0" d="M132.42,285.3c1.06-2.19,2.17-4.35,3.32-6.5c-4.6-1.31-9.16-2.83-13.65-4.52c-0.91,1.46-1.79,2.92-2.65,4.41
				c-1.32,2.36-2.58,4.75-3.76,7.18c4.09,2.13,8.64,4.25,13.63,6.23C130.3,289.81,131.33,287.54,132.42,285.3z"/>
			<path class="st0" d="M114.84,287.66c-1.06,2.28-2.06,4.58-2.95,6.93c-0.51,1.39-1,2.78-1.45,4.18c4.17,2.54,8.83,5.08,13.99,7.46
				c0.46-1.83,0.99-3.64,1.57-5.43c0.77-2.33,1.64-4.61,2.57-6.87C123.54,291.94,118.96,289.8,114.84,287.66z"/>
			<path class="st0" d="M169.24,229.88c-1.21,1.64-2.4,3.3-3.59,4.96c1.6,0.13,3.21,0.23,4.81,0.32c0.1-0.21,0.2-0.43,0.3-0.65
				c1.68-3.52,3.42-7,5.18-10.47c-0.76-0.02-1.52-0.04-2.28-0.07C172.19,225.93,170.71,227.9,169.24,229.88z"/>
			<path class="st0" d="M171.45,234.83c-0.06,0.13-0.11,0.25-0.17,0.38c1.92,0.1,3.85,0.16,5.77,0.2c0.69-3.78,1.4-7.55,2.14-11.31
				c-0.9-0.01-1.81-0.02-2.71-0.04C174.76,227.63,173.07,231.21,171.45,234.83z"/>
			<path class="st0" d="M191.84,236.74c-2.05,0.11-4.1,0.18-6.15,0.23c0.18,0.99,0.37,1.98,0.54,2.97c0.59,3.32,1.15,6.64,1.71,9.97
				c3.09-0.1,6.17-0.27,9.25-0.5C195.48,245.15,193.69,240.93,191.84,236.74z"/>
			<path class="st0" d="M181.3,224.12c-0.02,0-0.05,0-0.07,0c-0.54,0-1.08-0.01-1.62-0.02c-0.66,3.77-1.28,7.54-1.89,11.32
				c1.17,0.02,2.35,0.05,3.52,0.05c0.02,0,0.04,0,0.06,0c1.15,0,2.3-0.02,3.45-0.04c-0.61-3.78-1.24-7.55-1.89-11.32
				C182.33,224.11,181.81,224.12,181.3,224.12z"/>
			<path class="st0" d="M156.16,248.51c2.64,0.32,5.28,0.58,7.93,0.8c1.81-4.25,3.71-8.46,5.67-12.64c-1.73-0.1-3.45-0.22-5.17-0.37
				C161.72,240.33,158.91,244.4,156.16,248.51z"/>
			<path class="st0" d="M174.11,222.48c2.21-2.77,4.45-5.52,6.71-8.25c-3.58,2.61-7.1,5.3-10.56,8.07
				C171.54,222.38,172.83,222.44,174.11,222.48z"/>
			<path class="st0" d="M206.3,248.53c-2.75-4.11-5.55-8.18-8.43-12.21c-1.72,0.14-3.45,0.27-5.18,0.37
				c1.96,4.18,3.86,8.39,5.67,12.64C201.02,249.11,203.66,248.84,206.3,248.53z"/>
			<path class="st0" d="M188.78,223.97c-0.76,0.03-1.52,0.05-2.28,0.07c1.77,3.47,3.5,6.96,5.18,10.47c0.1,0.22,0.2,0.44,0.3,0.65
				c1.61-0.09,3.21-0.19,4.82-0.32c-1.19-1.66-2.39-3.32-3.6-4.97C191.75,227.9,190.27,225.94,188.78,223.97z"/>
			<path class="st0" d="M141.98,271.52c-1.14,2.03-2.25,4.09-3.32,6.15c4.58,1.23,9.2,2.26,13.86,3.1c1.5-4.92,3.15-9.79,4.91-14.62
				c-3.79-0.49-7.56-1.08-11.32-1.8C144.7,266.73,143.32,269.12,141.98,271.52z"/>
			<path class="st0" d="M155.32,233.74c3.36-2.96,6.8-5.83,10.29-8.62c0.63-0.5,1.27-0.99,1.9-1.48c-1.54-0.1-3.08-0.23-4.63-0.37
				c-5.98,3.36-11.1,6.53-15.34,9.28C150.12,233,152.71,233.4,155.32,233.74z"/>
			<path class="st0" d="M130.73,258.92c2.74-3.34,5.6-6.58,8.55-9.72c0.46-0.5,0.94-0.98,1.41-1.47c-3.89-0.75-7.77-1.61-11.62-2.58
				c-4.05,3.05-7.78,6.16-11.24,9.6C122.1,256.3,126.4,257.69,130.73,258.92z"/>
			<path class="st0" d="M166.07,225.71c-3.19,2.67-6.33,5.41-9.41,8.21c2.64,0.33,5.29,0.61,7.95,0.83
				c1.34-1.78,2.68-3.55,4.03-5.31c1.42-1.84,2.86-3.66,4.31-5.49c-1.48-0.06-2.96-0.14-4.43-0.23
				C167.7,224.37,166.88,225.04,166.07,225.71z"/>
			<path class="st0" d="M169.27,222.26c3.53-2.72,7.13-5.35,10.78-7.91c-5.38,2.57-10.33,5.14-14.83,7.62
				C166.58,222.07,167.92,222.18,169.27,222.26z"/>
			<path class="st0" d="M208.68,235.12c4.05,3.61,7.98,7.35,11.77,11.24c3.77-0.71,7.53-1.53,11.27-2.44
				c-4.51-3.3-9.44-6.57-14.86-10.11C214.13,234.3,211.41,234.74,208.68,235.12z"/>
			<path class="st0" d="M194.97,223.65c0.63,0.49,1.26,0.98,1.89,1.48c3.5,2.8,6.94,5.67,10.3,8.64c2.6-0.34,5.2-0.74,7.79-1.18
				c-4.24-2.75-9.37-5.92-15.35-9.29C198.06,223.42,196.51,223.54,194.97,223.65z"/>
			<path class="st0" d="M193.19,222.26c1.35-0.08,2.7-0.18,4.05-0.29c-4.51-2.48-9.46-5.05-14.85-7.62
				C186.05,216.91,189.65,219.54,193.19,222.26z"/>
			<path class="st0" d="M142.03,246.34c3.79-3.89,7.72-7.63,11.77-11.24c-2.73-0.38-5.45-0.82-8.16-1.3
				c-5.42,3.54-10.34,6.81-14.86,10.1C134.51,244.81,138.26,245.63,142.03,246.34z"/>
			<path class="st0" d="M193.02,311.1l-0.36-7.45c-3.69,0.3-7.48,0.46-11.37,0.46c-0.02,0-0.04,0-0.07,0
				c-3.92,0-7.73-0.17-11.44-0.48l-0.36,7.47c-0.09,2.44-0.15,4.88-0.2,7.32c4.48,0.44,8.52,0.63,12,0.67
				c3.48-0.05,7.52-0.23,12-0.67C193.18,315.98,193.11,313.54,193.02,311.1z"/>
			<path class="st0" d="M121.09,271.92c2.65-3.97,5.48-7.82,8.46-11.53c-4.38-1.26-8.73-2.68-13.04-4.26
				c-2.93,3.05-5.68,6.38-8.29,10.14C112.43,268.33,116.73,270.22,121.09,271.92z"/>
			<path class="st0" d="M249.82,286.56c1.14,2.32,2.22,4.66,3.19,7.07c0.48,1.21,0.93,2.44,1.37,3.67
				c4.38-2.79,8.17-5.53,11.34-8.02c-0.9-2.72-2.17-6.12-3.95-9.93C258.47,281.57,254.47,284.05,249.82,286.56z"/>
			<path class="st0" d="M233.96,301.59c-0.69-2.27-1.49-4.51-2.34-6.73c-5.15,1.94-10.73,3.72-16.71,5.18
				c0.8,3.84,1.51,7.71,2.02,11.61c0.1,0.75,0.18,1.5,0.27,2.25c3.9-1.09,7.94-2.39,12.07-3.97c2.14-0.82,4.21-1.67,6.21-2.55
				C235.05,305.44,234.54,303.51,233.96,301.59z"/>
			<path class="st0" d="M113.55,284.73c1.25-2.43,2.57-4.83,3.95-7.18c0.82-1.37,1.67-2.72,2.54-4.07
				c-4.36-1.71-8.66-3.61-12.88-5.69c-2.23,3.36-4.06,6.63-5.57,9.67C104.87,279.7,108.87,282.2,113.55,284.73z"/>
			<path class="st0" d="M108.08,297.3c0.44-1.23,0.89-2.46,1.37-3.67c0.98-2.42,2.07-4.79,3.22-7.12
				c-4.65-2.52-8.65-5.01-11.94-7.23c-1.8,3.84-3.08,7.26-3.99,10C99.91,291.77,103.69,294.52,108.08,297.3z"/>
			<path class="st0" d="M145.53,311.66c0.51-3.91,1.22-7.79,2.02-11.64c-5.98-1.47-11.55-3.25-16.7-5.2
				c-0.86,2.24-1.66,4.49-2.36,6.77c-0.57,1.91-1.09,3.84-1.51,5.79c2,0.88,4.07,1.73,6.21,2.55c4.14,1.58,8.17,2.88,12.07,3.97
				C145.35,313.15,145.43,312.4,145.53,311.66z"/>
			<path class="st0" d="M221.78,247.76c0.46,0.48,0.93,0.96,1.39,1.45c2.96,3.15,5.83,6.4,8.58,9.75c4.34-1.22,8.64-2.62,12.91-4.16
				c-3.46-3.44-7.18-6.57-11.24-9.61C229.56,246.15,225.68,247,221.78,247.76z"/>
			<path class="st0" d="M166.84,318.16c0.1-2.39,0.21-4.78,0.35-7.17l0.52-7.54c-6.27-0.61-12.24-1.61-17.86-2.89
				c-0.7,3.79-1.3,7.6-1.71,11.42c-0.09,0.88-0.17,1.76-0.25,2.64C154.72,316.39,161.11,317.49,166.84,318.16z"/>
			<path class="st0" d="M153.9,282.88c-1.19,4.37-2.27,8.76-3.19,13.19c-0.17,0.85-0.33,1.69-0.5,2.54
				c5.56,1.27,11.44,2.26,17.64,2.87l0.79-8.36c0.24-2.79,0.59-5.57,0.91-8.35C164.32,284.39,159.1,283.76,153.9,282.88z"/>
			<path class="st0" d="M148.52,295.58c1.02-4.38,2.19-8.73,3.47-13.03c-4.77-0.86-9.51-1.93-14.19-3.2
				c-1.16,2.28-2.28,4.58-3.34,6.9c-1.01,2.22-1.97,4.46-2.88,6.72c5.06,1.91,10.53,3.66,16.4,5.1
				C148.15,297.25,148.33,296.42,148.52,295.58z"/>
			<path class="st0" d="M123.1,272.69c4.45,1.67,8.97,3.16,13.53,4.45c1.2-2.2,2.44-4.38,3.72-6.54c1.3-2.22,2.64-4.41,4-6.59
				c-4.34-0.87-8.65-1.9-12.93-3.08C128.47,264.72,125.69,268.65,123.1,272.69z"/>
			<path class="st0" d="M232.93,260.43c2.99,3.72,5.82,7.56,8.46,11.54c4.36-1.7,8.66-3.59,12.87-5.65
				c-2.6-3.76-5.35-7.09-8.29-10.15C241.67,257.75,237.32,259.17,232.93,260.43z"/>
			<path class="st0" d="M170.73,275.32c0.34-2.63,0.7-5.25,1.07-7.88c-4.29-0.22-8.56-0.58-12.81-1.09
				c-1.66,4.87-3.2,9.79-4.59,14.74c5.1,0.85,10.23,1.47,15.38,1.83C170.07,280.39,170.36,277.85,170.73,275.32z"/>
			<path class="st0" d="M140.39,250.22c-2.7,2.99-5.3,6.07-7.8,9.22c4.22,1.15,8.48,2.14,12.76,2.99c1.27-2,2.55-4,3.86-5.97
				c1.47-2.23,2.97-4.43,4.49-6.62c-3.78-0.49-7.55-1.08-11.31-1.78C141.71,248.78,141.04,249.49,140.39,250.22z"/>
			<path class="st0" d="M143.69,246.64c3.67,0.66,7.36,1.22,11.05,1.69c2.86-4.09,5.78-8.13,8.76-12.13
				c-2.78-0.25-5.57-0.55-8.34-0.91C151.21,238.95,147.38,242.73,143.69,246.64z"/>
			<path class="st0" d="M181.29,302.13c3.85,0,7.61-0.17,11.26-0.46l-0.62-8.39c-0.18-2.8-0.48-5.59-0.74-8.39
				c-3.3,0.2-6.6,0.31-9.9,0.31c-0.06,0-0.11,0-0.16,0c-3.29,0-6.59-0.11-9.87-0.31c-0.26,2.8-0.56,5.59-0.74,8.4l-0.62,8.37
				c3.67,0.3,7.45,0.47,11.33,0.47C181.25,302.13,181.27,302.13,181.29,302.13z"/>
			<path class="st0" d="M255.33,267.85c-4.22,2.07-8.52,3.97-12.89,5.68c0.86,1.33,1.7,2.67,2.51,4.02c1.4,2.37,2.73,4.78,3.98,7.24
				c4.67-2.53,8.68-5.02,11.96-7.25C259.39,274.49,257.56,271.22,255.33,267.85z"/>
			<path class="st0" d="M228,286.26c-1.05-2.31-2.17-4.6-3.32-6.87c-4.69,1.27-9.43,2.33-14.2,3.19c1.27,4.3,2.44,8.63,3.46,13.01
				c0.19,0.84,0.37,1.69,0.55,2.53c5.87-1.44,11.35-3.18,16.41-5.09C229.99,290.75,229.02,288.49,228,286.26z"/>
			<path class="st0" d="M246.8,285.93c-1.19-2.45-2.45-4.86-3.79-7.24c-0.84-1.47-1.72-2.93-2.62-4.37
				c-4.49,1.7-9.05,3.21-13.65,4.52c1.14,2.13,2.25,4.28,3.3,6.46c1.09,2.26,2.13,4.54,3.12,6.85
				C238.15,290.17,242.71,288.05,246.8,285.93z"/>
			<path class="st0" d="M208.07,281.12c-1.39-4.95-2.93-9.87-4.59-14.75c-4.25,0.51-8.53,0.87-12.82,1.08
				c0.37,2.62,0.74,5.24,1.07,7.87c0.36,2.53,0.65,5.08,0.95,7.62C197.83,282.58,202.96,281.97,208.07,281.12z"/>
			<path class="st0" d="M214.32,311.98c-0.41-3.81-1.01-7.61-1.71-11.39c-5.63,1.28-11.59,2.27-17.87,2.88l0.52,7.53
				c0.14,2.39,0.25,4.78,0.35,7.17c5.73-0.67,12.11-1.77,18.95-3.54C214.49,313.74,214.41,312.86,214.32,311.98z"/>
			<path class="st0" d="M194.6,301.49c6.2-0.6,12.09-1.58,17.65-2.85c-0.17-0.86-0.33-1.72-0.5-2.57c-0.92-4.42-2-8.8-3.19-13.16
				c-5.19,0.87-10.42,1.49-15.67,1.87c0.32,2.78,0.68,5.56,0.91,8.34L194.6,301.49z"/>
		</g>
		<g>
			<path class="st0" d="M90.13,229.21c2.08-1.08,4.14-2.19,6.19-3.34c2.4-1.34,4.78-2.71,7.15-4.12c-0.72-3.76-1.31-7.53-1.79-11.32
				c-4.83,1.76-9.7,3.41-14.62,4.91C87.88,220,88.91,224.62,90.13,229.21z"/>
			<path class="st0" d="M95.12,244.77c4.04-2.59,7.97-5.37,11.77-8.32c-1.18-4.28-2.2-8.6-3.07-12.94
				c-2.17,1.35-4.35,2.69-6.56,3.98c-2.17,1.28-4.36,2.53-6.58,3.74C91.96,235.8,93.45,240.32,95.12,244.77z"/>
			<path class="st0" d="M119.77,225.49c-0.69-3.76-1.28-7.53-1.77-11.32c-2.19,1.51-4.39,3.01-6.61,4.48c-1.98,1.32-3.98,2.6-6,3.87
				c0.84,4.28,1.84,8.54,2.98,12.77c3.17-2.51,6.25-5.12,9.26-7.83C118.35,226.81,119.05,226.15,119.77,225.49z"/>
			<path class="st0" d="M116.85,203.2c-0.25-3.2-0.43-6.4-0.53-9.61c-4.72,0.78-9.46,1.52-14.2,2.21c0.2,4.18,0.55,8.34,1.04,12.49
				C107.76,206.69,112.32,204.98,116.85,203.2z"/>
			<path class="st0" d="M84.49,186.53c0,0.05,0,0.11,0,0.16c0,3.24,0.1,6.49,0.3,9.73c2.52-0.24,5.04-0.47,7.56-0.78
				c2.67-0.29,5.33-0.6,7.99-0.92c-0.11-2.67-0.18-5.34-0.18-8.03c0-0.02,0-0.04,0-0.06c0-2.71,0.07-5.4,0.19-8.1
				c-2.66-0.32-5.33-0.63-8-0.92c-2.51-0.31-5.03-0.54-7.55-0.78C84.6,180.06,84.49,183.29,84.49,186.53z"/>
			<path class="st0" d="M132.53,212.7c-0.36-2.78-0.66-5.56-0.91-8.35c-4,2.99-8.04,5.91-12.13,8.76c0.47,3.7,1.03,7.39,1.69,11.06
				C125.1,220.49,128.87,216.65,132.53,212.7z"/>
			<path class="st0" d="M116.32,179.65c0.11-3.2,0.29-6.41,0.54-9.6c-4.53-1.79-9.09-3.5-13.69-5.09c-0.49,4.14-0.84,8.3-1.04,12.48
				C106.87,178.12,111.6,178.87,116.32,179.65z"/>
			<path class="st0" d="M103.35,209.82c0.46,3.67,1.03,7.32,1.71,10.96c1.85-1.11,3.69-2.23,5.51-3.39
				c2.43-1.53,4.84-3.09,7.24-4.68c-0.34-2.76-0.63-5.53-0.86-8.3c-4.48,1.88-8.98,3.69-13.54,5.39
				C103.39,209.8,103.37,209.81,103.35,209.82z"/>
			<path class="st0" d="M145.24,185.25c0,0.46-0.01,0.91-0.01,1.37c0,0.02,0,0.05,0,0.07c0,0.43,0.01,0.86,0.01,1.29
				c2.51-0.44,5.01-0.9,7.52-1.37C150.25,186.15,147.75,185.69,145.24,185.25z"/>
			<path class="st0" d="M145.25,184.87c2.58,0.51,5.16,1.04,7.73,1.57c-2.55-1.32-5.12-2.6-7.71-3.86
				C145.25,183.34,145.25,184.11,145.25,184.87z"/>
			<path class="st0" d="M145.28,182.1c2.66,1.37,5.3,2.77,7.93,4.2c-2.61-2.06-5.23-4.1-7.87-6.12
				C145.32,180.82,145.3,181.46,145.28,182.1z"/>
			<path class="st0" d="M145.24,188.37c0.01,0.76,0.01,1.52,0.02,2.29c2.58-1.26,5.15-2.54,7.71-3.86
				C150.4,187.33,147.83,187.86,145.24,188.37z"/>
			<path class="st0" d="M145.36,193.74c0.04,1.28,0.1,2.57,0.17,3.85c2.77-3.46,5.47-6.98,8.08-10.57
				C150.88,189.29,148.13,191.53,145.36,193.74z"/>
			<path class="st0" d="M145.28,191.14c0.01,0.64,0.04,1.28,0.06,1.92c2.64-2.01,5.27-4.06,7.87-6.12
				C150.59,188.37,147.94,189.77,145.28,191.14z"/>
			<path class="st0" d="M144.12,199.34c-0.09-1.48-0.17-2.96-0.23-4.44c-1.82,1.44-3.64,2.88-5.48,4.3
				c-1.77,1.36-3.54,2.7-5.32,4.04c0.22,2.66,0.5,5.31,0.83,7.95c2.81-3.08,5.55-6.22,8.22-9.42
				C142.81,200.96,143.47,200.15,144.12,199.34z"/>
			<path class="st0" d="M143.75,188.66c-3.77,0.74-7.54,1.44-11.31,2.14c0.04,1.92,0.1,3.85,0.2,5.77c0.13-0.06,0.26-0.11,0.38-0.17
				c3.61-1.62,7.2-3.31,10.77-5.03C143.77,190.47,143.76,189.56,143.75,188.66z"/>
			<path class="st0" d="M101.9,186.62c0,0.02,0,0.04,0,0.06c0,2.61,0.06,5.21,0.17,7.81c4.75-0.59,9.49-1.23,14.22-1.91
				c-0.05-1.97-0.09-3.93-0.09-5.9c0-0.02,0-0.04,0-0.06c0-1.99,0.04-3.98,0.09-5.97c-4.74-0.68-9.47-1.32-14.22-1.91
				C101.97,181.36,101.9,183.99,101.9,186.62z"/>
			<path class="st0" d="M117.83,186.62c0,0.02,0,0.04,0,0.06c0,1.89,0.03,3.78,0.08,5.67c3.29-0.48,6.58-0.97,9.87-1.48
				c1.03-0.16,2.06-0.33,3.09-0.5c-0.02-1.23-0.05-2.47-0.05-3.7c0-0.02,0-0.04,0-0.06c0-1.26,0.03-2.51,0.05-3.77
				c-1.03-0.16-2.06-0.34-3.09-0.5c-3.29-0.51-6.58-1-9.87-1.48C117.86,182.79,117.83,184.71,117.83,186.62z"/>
			<path class="st0" d="M103.41,163.44c4.56,1.7,9.07,3.51,13.55,5.39c0.23-2.77,0.53-5.54,0.87-8.3c-2.4-1.59-4.82-3.15-7.25-4.69
				c-1.81-1.15-3.65-2.26-5.49-3.37c-0.68,3.63-1.25,7.28-1.72,10.95C103.38,163.43,103.39,163.44,103.41,163.44z"/>
			<path class="st0" d="M118.45,170.66c-0.23,3.08-0.41,6.16-0.5,9.25c3.33,0.55,6.65,1.12,9.97,1.71c0.99,0.18,1.98,0.36,2.97,0.54
				c0.05-2.05,0.12-4.1,0.23-6.15C126.92,174.16,122.7,172.37,118.45,170.66z"/>
			<path class="st0" d="M73.26,255.96c2.33-0.88,4.61-1.88,6.87-2.93c-2.14-4.12-4.27-8.7-6.26-13.72
				c-2.24,0.92-4.51,1.78-6.83,2.55c-1.79,0.58-3.6,1.1-5.43,1.57c2.39,5.16,4.93,9.82,7.46,13.99
				C70.48,256.96,71.87,256.47,73.26,255.96z"/>
			<path class="st0" d="M82.55,137.81c2.19,1.06,4.35,2.17,6.5,3.32c1.31-4.6,2.83-9.16,4.52-13.65c-1.46-0.91-2.92-1.79-4.41-2.65
				c-2.36-1.32-4.75-2.58-7.18-3.76c-2.13,4.09-4.25,8.64-6.23,13.63C78.04,135.69,80.31,136.72,82.55,137.81z"/>
			<path class="st0" d="M80.19,120.23c-2.28-1.06-4.58-2.06-6.93-2.95c-1.39-0.51-2.78-1-4.18-1.45c-2.54,4.17-5.08,8.83-7.46,13.99
				c1.83,0.46,3.64,0.99,5.43,1.57c2.33,0.77,4.61,1.64,6.87,2.57C75.91,128.93,78.04,124.35,80.19,120.23z"/>
			<path class="st0" d="M137.96,174.63c-1.64-1.21-3.3-2.4-4.96-3.59c-0.13,1.6-0.23,3.21-0.32,4.81c0.21,0.1,0.43,0.2,0.65,0.3
				c3.52,1.68,7,3.42,10.47,5.18c0.02-0.76,0.04-1.52,0.07-2.28C141.91,177.58,139.94,176.1,137.96,174.63z"/>
			<path class="st0" d="M133.02,176.84c-0.13-0.06-0.25-0.11-0.38-0.17c-0.1,1.92-0.16,3.85-0.2,5.77c3.78,0.69,7.55,1.4,11.31,2.14
				c0.01-0.9,0.02-1.81,0.04-2.71C140.22,180.15,136.63,178.46,133.02,176.84z"/>
			<path class="st0" d="M131.11,197.23c-0.11-2.05-0.18-4.1-0.23-6.15c-0.99,0.18-1.98,0.37-2.97,0.54
				c-3.32,0.59-6.64,1.15-9.97,1.71c0.1,3.09,0.27,6.17,0.5,9.25C122.69,200.87,126.91,199.08,131.11,197.23z"/>
			<path class="st0" d="M143.73,186.69c0-0.02,0-0.05,0-0.07c0-0.54,0.01-1.08,0.02-1.62c-3.77-0.66-7.54-1.28-11.32-1.89
				c-0.02,1.17-0.05,2.35-0.05,3.52c0,0.02,0,0.04,0,0.06c0,1.15,0.02,2.3,0.04,3.45c3.78-0.61,7.55-1.24,11.32-1.89
				C143.74,187.72,143.73,187.2,143.73,186.69z"/>
			<path class="st0" d="M119.33,161.55c-0.32,2.64-0.58,5.28-0.8,7.93c4.25,1.81,8.46,3.71,12.64,5.67c0.1-1.73,0.22-3.45,0.37-5.17
				C127.51,167.11,123.44,164.3,119.33,161.55z"/>
			<path class="st0" d="M145.36,179.5c2.77,2.21,5.52,4.45,8.25,6.71c-2.61-3.58-5.3-7.1-8.07-10.56
				C145.47,176.93,145.41,178.22,145.36,179.5z"/>
			<path class="st0" d="M119.32,211.69c4.11-2.75,8.18-5.55,12.21-8.43c-0.14-1.72-0.27-3.45-0.37-5.18
				c-4.18,1.96-8.39,3.86-12.64,5.67C118.74,206.41,119,209.05,119.32,211.69z"/>
			<path class="st0" d="M143.87,194.17c-0.03-0.76-0.05-1.52-0.07-2.28c-3.47,1.77-6.96,3.5-10.47,5.18c-0.22,0.1-0.44,0.2-0.65,0.3
				c0.09,1.61,0.19,3.21,0.32,4.82c1.66-1.19,3.32-2.39,4.97-3.6C139.94,197.14,141.91,195.66,143.87,194.17z"/>
			<path class="st0" d="M96.32,147.37c-2.03-1.14-4.09-2.25-6.15-3.32c-1.23,4.58-2.26,9.2-3.1,13.86c4.92,1.5,9.79,3.15,14.62,4.91
				c0.49-3.79,1.08-7.56,1.8-11.32C101.12,150.09,98.73,148.71,96.32,147.37z"/>
			<path class="st0" d="M134.1,160.71c2.96,3.36,5.83,6.8,8.62,10.29c0.5,0.63,0.99,1.27,1.48,1.9c0.1-1.54,0.23-3.08,0.37-4.63
				c-3.36-5.98-6.53-11.1-9.28-15.34C134.84,155.51,134.45,158.1,134.1,160.71z"/>
			<path class="st0" d="M108.93,136.12c3.34,2.74,6.58,5.6,9.72,8.55c0.5,0.46,0.98,0.94,1.47,1.41c0.75-3.89,1.61-7.77,2.58-11.62
				c-3.05-4.05-6.16-7.78-9.6-11.24C111.54,127.49,110.15,131.79,108.93,136.12z"/>
			<path class="st0" d="M142.14,171.46c-2.67-3.19-5.41-6.33-8.21-9.41c-0.33,2.64-0.61,5.29-0.83,7.95
				c1.78,1.34,3.55,2.68,5.31,4.03c1.84,1.42,3.66,2.86,5.49,4.31c0.06-1.48,0.14-2.96,0.23-4.43
				C143.47,173.09,142.81,172.27,142.14,171.46z"/>
			<path class="st0" d="M145.59,174.67c2.72,3.53,5.35,7.13,7.91,10.78c-2.57-5.38-5.14-10.33-7.62-14.83
				C145.77,171.97,145.67,173.31,145.59,174.67z"/>
			<path class="st0" d="M132.73,214.07c-3.61,4.05-7.35,7.98-11.24,11.77c0.71,3.77,1.53,7.53,2.44,11.27
				c3.3-4.51,6.57-9.44,10.11-14.86C133.54,219.53,133.11,216.8,132.73,214.07z"/>
			<path class="st0" d="M144.2,200.36c-0.49,0.63-0.98,1.26-1.48,1.89c-2.8,3.5-5.67,6.94-8.64,10.3c0.34,2.6,0.74,5.2,1.18,7.79
				c2.75-4.24,5.92-9.37,9.29-15.35C144.42,203.45,144.3,201.9,144.2,200.36z"/>
			<path class="st0" d="M145.58,198.58c0.08,1.35,0.18,2.7,0.29,4.05c2.48-4.51,5.05-9.46,7.62-14.85
				C150.94,191.44,148.3,195.04,145.58,198.58z"/>
			<path class="st0" d="M121.51,147.42c3.89,3.79,7.63,7.72,11.24,11.77c0.38-2.73,0.82-5.45,1.3-8.16
				c-3.54-5.42-6.81-10.34-10.1-14.86C123.03,139.9,122.22,143.65,121.51,147.42z"/>
			<path class="st0" d="M56.74,198.41l7.45-0.36c-0.3-3.69-0.46-7.48-0.46-11.37c0-0.02,0-0.04,0-0.07c0-3.92,0.17-7.73,0.48-11.44
				l-7.47-0.36c-2.44-0.09-4.88-0.15-7.32-0.2c-0.44,4.48-0.63,8.52-0.67,12c0.05,3.48,0.23,7.52,0.67,12
				C51.87,198.57,54.31,198.5,56.74,198.41z"/>
			<path class="st0" d="M95.92,126.48c3.97,2.65,7.82,5.48,11.53,8.46c1.26-4.38,2.68-8.73,4.26-13.04
				c-3.05-2.93-6.38-5.68-10.14-8.29C99.51,117.82,97.62,122.12,95.92,126.48z"/>
			<path class="st0" d="M81.28,255.21c-2.32,1.14-4.66,2.22-7.07,3.19c-1.21,0.48-2.44,0.93-3.67,1.37
				c2.79,4.38,5.53,8.17,8.02,11.34c2.72-0.9,6.12-2.17,9.93-3.95C86.28,263.86,83.8,259.86,81.28,255.21z"/>
			<path class="st0" d="M66.25,239.35c2.27-0.69,4.51-1.49,6.73-2.34c-1.94-5.15-3.72-10.73-5.18-16.71
				c-3.84,0.8-7.71,1.51-11.61,2.02c-0.75,0.1-1.5,0.18-2.25,0.27c1.09,3.9,2.39,7.94,3.97,12.07c0.82,2.14,1.67,4.21,2.55,6.21
				C62.41,240.44,64.34,239.93,66.25,239.35z"/>
			<path class="st0" d="M83.11,118.94c2.43,1.25,4.83,2.57,7.18,3.95c1.37,0.82,2.72,1.67,4.07,2.54c1.71-4.36,3.61-8.66,5.69-12.88
				c-3.36-2.23-6.63-4.06-9.67-5.57C88.15,110.26,85.65,114.26,83.11,118.94z"/>
			<path class="st0" d="M70.54,113.47c1.23,0.44,2.46,0.89,3.67,1.37c2.42,0.98,4.79,2.07,7.12,3.22c2.52-4.65,5.01-8.65,7.23-11.94
				c-3.84-1.8-7.26-3.08-10-3.99C76.08,105.3,73.33,109.08,70.54,113.47z"/>
			<path class="st0" d="M56.19,150.92c3.91,0.51,7.79,1.22,11.64,2.02c1.47-5.98,3.25-11.55,5.2-16.7
				c-2.24-0.86-4.49-1.66-6.77-2.36c-1.91-0.57-3.84-1.09-5.79-1.51c-0.88,2-1.73,4.07-2.55,6.21c-1.58,4.14-2.88,8.17-3.97,12.07
				C54.69,150.74,55.44,150.82,56.19,150.92z"/>
			<path class="st0" d="M120.09,227.17c-0.48,0.46-0.96,0.93-1.45,1.39c-3.15,2.96-6.4,5.83-9.75,8.58
				c1.22,4.34,2.62,8.64,4.16,12.91c3.44-3.46,6.57-7.18,9.61-11.24C121.7,234.95,120.84,231.07,120.09,227.17z"/>
			<path class="st0" d="M49.69,172.23c2.39,0.1,4.78,0.21,7.17,0.35l7.54,0.52c0.61-6.27,1.61-12.24,2.89-17.86
				c-3.79-0.7-7.6-1.3-11.42-1.71c-0.88-0.09-1.76-0.17-2.64-0.25C51.46,160.11,50.35,166.5,49.69,172.23z"/>
			<path class="st0" d="M84.96,159.29c-4.37-1.19-8.76-2.27-13.19-3.19c-0.85-0.17-1.69-0.33-2.54-0.5
				c-1.27,5.56-2.26,11.44-2.87,17.64l8.36,0.79c2.79,0.24,5.57,0.59,8.35,0.91C83.46,169.71,84.09,164.49,84.96,159.29z"/>
			<path class="st0" d="M72.26,153.91c4.38,1.02,8.73,2.19,13.03,3.47c0.86-4.77,1.93-9.51,3.2-14.19c-2.28-1.16-4.58-2.28-6.9-3.34
				c-2.22-1.01-4.46-1.97-6.72-2.88c-1.91,5.06-3.66,10.53-5.1,16.4C70.6,153.54,71.43,153.72,72.26,153.91z"/>
			<path class="st0" d="M95.16,128.49c-1.67,4.45-3.16,8.97-4.45,13.53c2.2,1.2,4.38,2.44,6.54,3.72c2.22,1.3,4.41,2.64,6.59,4
				c0.87-4.34,1.9-8.65,3.08-12.93C103.12,133.86,99.2,131.08,95.16,128.49z"/>
			<path class="st0" d="M107.42,238.33c-3.72,2.99-7.56,5.82-11.54,8.46c1.7,4.36,3.59,8.66,5.65,12.87
				c3.76-2.6,7.09-5.35,10.15-8.29C110.1,247.06,108.68,242.71,107.42,238.33z"/>
			<path class="st0" d="M92.53,176.12c2.63,0.34,5.25,0.7,7.88,1.07c0.22-4.29,0.58-8.56,1.09-12.81c-4.87-1.66-9.79-3.2-14.74-4.59
				c-0.85,5.1-1.47,10.23-1.83,15.38C87.45,175.46,89.99,175.75,92.53,176.12z"/>
			<path class="st0" d="M117.63,145.78c-2.99-2.7-6.07-5.3-9.22-7.8c-1.15,4.22-2.14,8.48-2.99,12.76c2,1.27,4,2.55,5.97,3.86
				c2.23,1.47,4.43,2.97,6.62,4.49c0.49-3.78,1.08-7.55,1.78-11.31C119.07,147.1,118.35,146.43,117.63,145.78z"/>
			<path class="st0" d="M121.2,149.08c-0.66,3.67-1.22,7.36-1.69,11.05c4.09,2.86,8.13,5.78,12.13,8.76
				c0.25-2.78,0.55-5.57,0.91-8.34C128.89,156.6,125.12,152.77,121.2,149.08z"/>
			<path class="st0" d="M65.71,186.68c0,3.85,0.17,7.61,0.46,11.26l8.39-0.62c2.8-0.18,5.59-0.48,8.39-0.74
				c-0.2-3.3-0.31-6.6-0.31-9.9c0-0.06,0-0.11,0-0.16c0-3.29,0.11-6.59,0.31-9.87c-2.8-0.26-5.59-0.56-8.4-0.74l-8.37-0.62
				c-0.3,3.67-0.47,7.45-0.47,11.33C65.71,186.64,65.71,186.66,65.71,186.68z"/>
			<path class="st0" d="M99.99,260.72c-2.07-4.22-3.97-8.52-5.68-12.89c-1.33,0.86-2.67,1.7-4.02,2.51
				c-2.37,1.4-4.78,2.73-7.24,3.98c2.53,4.67,5.02,8.68,7.25,11.96C93.35,264.78,96.62,262.95,99.99,260.72z"/>
			<path class="st0" d="M81.59,233.39c2.31-1.05,4.6-2.17,6.87-3.32c-1.27-4.69-2.33-9.43-3.19-14.2c-4.3,1.27-8.63,2.44-13.01,3.46
				c-0.84,0.19-1.69,0.37-2.53,0.55c1.44,5.87,3.18,11.35,5.09,16.41C77.1,235.38,79.35,234.41,81.59,233.39z"/>
			<path class="st0" d="M81.92,252.19c2.45-1.19,4.86-2.45,7.24-3.79c1.47-0.84,2.93-1.72,4.37-2.62c-1.7-4.49-3.21-9.05-4.52-13.65
				c-2.13,1.14-4.28,2.25-6.46,3.3c-2.26,1.09-4.54,2.13-6.85,3.12C77.67,243.54,79.79,248.1,81.92,252.19z"/>
			<path class="st0" d="M86.72,213.46c4.95-1.39,9.87-2.93,14.75-4.59c-0.51-4.25-0.87-8.53-1.08-12.82
				c-2.62,0.37-5.24,0.74-7.87,1.07c-2.53,0.36-5.08,0.65-7.62,0.95C85.27,203.22,85.88,208.35,86.72,213.46z"/>
			<path class="st0" d="M55.87,219.71c3.81-0.41,7.61-1.01,11.39-1.71c-1.28-5.63-2.27-11.59-2.88-17.87l-7.53,0.52
				c-2.39,0.14-4.78,0.25-7.17,0.35c0.67,5.73,1.77,12.11,3.54,18.95C54.11,219.88,54.99,219.8,55.87,219.71z"/>
			<path class="st0" d="M66.36,199.99c0.6,6.2,1.58,12.09,2.85,17.65c0.86-0.17,1.72-0.33,2.57-0.5c4.42-0.92,8.8-2,13.16-3.19
				c-0.87-5.19-1.49-10.42-1.87-15.67c-2.78,0.32-5.56,0.68-8.34,0.91L66.36,199.99z"/>
		</g>
	</g>
</g>
</svg>
